<svg width="22" height="18" viewBox="0 0 22 18" fill="none" xmlns="http://www.w3.org/2000/svg">
<path d="M2.24789 7.77593C2.24789 7.77593 11.3199 4.07993 14.4559 2.73593C15.6879 2.17593 19.7199 0.495933 19.7199 0.495933C19.7199 0.495933 21.6239 -0.288067 21.3999 1.50393C21.3999 2.28793 20.9519 4.86393 20.5039 7.55193C19.8319 11.4719 19.1599 15.8399 19.1599 15.8399C19.1599 15.8399 19.0479 17.0719 18.1519 17.2959C17.2559 17.5199 15.7999 16.5119 15.5759 16.3999C15.3519 16.2879 11.6559 13.9359 10.3119 12.7039C9.97589 12.3679 9.52789 11.8079 10.3119 11.0239C12.2159 9.34393 14.4559 7.10393 15.7999 5.75993C16.4719 5.08793 17.0319 3.63193 14.4559 5.42393C10.7599 7.99993 7.06389 10.4639 7.06389 10.4639C7.06389 10.4639 6.27989 11.0239 4.59989 10.4639C3.03189 10.0159 1.23989 9.34393 1.23989 9.34393C1.23989 9.34393 0.00788718 8.67193 2.24789 7.77593Z" fill="black"/>
</svg>
