<svg width="448" height="237" viewBox="0 0 448 237" fill="none" xmlns="http://www.w3.org/2000/svg">
<path d="M447.372 60.8034C447.372 60.8034 417.153 30.5844 396.788 41.0953C376.423 51.6063 363.284 44.5114 329.124 38.8618C294.963 33.2121 277.883 -8.83167 239.781 1.67928C201.679 12.1902 195.109 30.1902 167.518 30.453C139.927 30.5844 93.4159 22.307 74.6275 30.453C55.8392 38.4676 28.248 45.0369 32.1896 60.8034H447.372Z" fill="#660000"/>
<path d="M27.5912 118.088C36.7883 103.636 57.1533 118.745 57.1533 118.745C42.7007 92.4677 28.2482 109.548 28.2482 109.548C11.1679 95.7523 0 114.147 0 114.147C19.708 103.636 27.5912 118.088 27.5912 118.088Z" fill="#660000"/>
<path d="M289.446 231.081C278.409 222.278 271.314 234.103 271.314 234.103C283.928 227.402 288.92 236.599 288.92 236.599C294.833 227.402 307.971 236.993 307.971 236.993C298.643 220.176 289.446 231.081 289.446 231.081Z" fill="#660000"/>
</svg>
