<svg width="445" height="269" viewBox="0 0 445 269" fill="none" xmlns="http://www.w3.org/2000/svg">
<path d="M283.663 157.664C327.152 157.664 362.495 122.321 362.495 78.8321C362.495 35.3431 327.152 0 283.663 0C240.174 0 204.831 35.3431 204.831 78.8321C204.831 122.321 240.174 157.664 283.663 157.664Z" fill="#660000"/>
<path d="M306.787 258.175C290.89 260.803 284.846 264.088 275.386 259.226C266.057 254.365 251.999 268.423 251.999 268.423H444.218C446.057 261.066 433.313 258.044 424.641 254.365C415.838 250.555 394.422 254.365 381.546 254.365C368.802 254.234 365.78 245.825 348.174 240.964C330.437 236.102 322.554 255.679 306.787 258.175Z" fill="#660000"/>
<path d="M310.729 190.117C299.824 181.314 292.598 193.139 292.598 193.139C305.342 186.438 310.335 195.635 310.335 195.635C316.247 186.438 329.255 196.029 329.255 196.029C320.057 179.212 310.729 190.117 310.729 190.117Z" fill="#660000"/>
<path d="M341.604 182.89C346.202 175.664 356.451 183.285 356.451 183.285C349.224 170.014 341.867 178.555 341.867 178.555C333.326 171.722 327.677 180.92 327.677 180.92C337.662 175.664 341.604 182.89 341.604 182.89Z" fill="#660000"/>
<path d="M13.7956 61.3576C18.5255 53.9999 28.7737 61.6203 28.7737 61.6203C21.416 48.4816 14.1898 57.0218 14.1898 57.0218C5.64962 50.0583 0 59.3868 0 59.3868C9.85401 53.9999 13.7956 61.3576 13.7956 61.3576Z" fill="#660000"/>
</svg>
