<svg width="1440" height="618" viewBox="0 0 1440 618" fill="none" xmlns="http://www.w3.org/2000/svg">
<path fill-rule="evenodd" clip-rule="evenodd" d="M1440 327.942V617.387H0V403.226C0 403.226 29.2993 393.766 57.1533 378.92C57.0657 378.131 57.1095 377.255 57.2847 376.292C58.5985 371.036 65.1679 371.693 63.1971 368.409C61.2263 365.124 71.0803 360.526 73.0511 354.613C75.0219 348.701 84.8759 351.985 83.562 344.759C82.2482 337.533 82.2482 334.905 89.4745 332.934C96.7007 330.964 97.3577 334.248 102.613 329.65C105.766 326.891 109.839 330.044 112.599 332.934C120.088 327.285 129.416 322.292 139.664 318.219V252.526H104.584L104.715 252.394C90.5255 251.737 92.8905 233.606 102.482 225.854C102.482 225.854 94.5985 243.723 112.073 243.854L165.547 180.526C161.606 177.635 159.109 171.985 160.686 164.759C162.788 154.248 171.985 156.219 171.985 156.219C160.686 164.759 171.985 172.905 171.985 172.905H248.584C248.584 172.905 260.015 164.759 248.584 156.219C248.584 156.219 257.781 154.248 260.015 164.759C261.46 171.591 259.358 176.978 255.679 180L306.788 243.723C322.686 242.803 315.066 225.854 315.066 225.854C324.526 233.474 327.022 250.949 313.752 252.394L313.883 252.526H281.562V321.241C286.686 324.131 291.942 327.285 297.328 330.701C296.015 318.613 296.277 297.985 308.891 281.036C327.942 255.416 359.737 232.949 344.365 204.832C328.599 175.927 301.007 188.409 291.81 152.934C291.197 150.745 290.715 148.599 290.365 146.496C286.161 146.365 279.066 146.102 268.161 145.051C248.453 143.08 238.599 127.314 238.599 127.314C238.599 127.314 230.058 124.686 216.92 122.058C209.168 120.482 206.015 116.934 204.701 114.175H191.956C191.956 114.175 189.328 106.949 197.869 104.978C206.409 103.007 201.416 89.2117 210.745 89.8686C220.204 90.5255 228.088 83.9562 233.343 89.8686C238.599 95.781 239.255 92.4963 245.825 97.0949C252.394 101.693 256.73 107.606 254.496 114.175H237.547C238.336 116.146 239.255 118.117 240.569 119.431C243.854 122.715 253.051 129.285 262.248 131.912C268.686 133.752 281.431 134.277 288.657 134.409C286.555 111.153 292.861 98.4088 281.562 89.8686C267.504 79.3577 248.453 78.0438 233.343 76.7299C218.234 75.4161 209.037 66.8759 205.752 62.9343C202.73 59.3869 187.226 62.2774 183.022 50.4525H155.168C149.255 42.4379 153.854 41.2555 160.161 23.6496C166.467 6.0438 179.474 22.2044 191.562 15.635C203.65 9.06569 215.606 19.5766 227.431 18.2628C239.255 16.9489 234 36 245.168 34.0292C256.336 32.0584 255.153 50.4525 255.153 50.4525H236.365C235.445 55.1825 231.898 61.8832 220.204 64.2482C220.204 64.2482 241.489 75.4161 262.642 73.4452C283.927 71.4744 298.38 74.7591 300.35 104.978C300.438 106.642 300.569 108.307 300.745 109.971C306.788 110.365 318.876 109.577 327.942 99.0657C332.803 93.4161 336.35 87.3723 338.978 81.3285H321.372C315.46 74.1022 318.088 66.219 330.044 65.8248C337.139 65.6934 339.898 62.8029 344.102 60.5694C344.102 60.3066 344.146 60 344.234 59.6496H291.81C289.839 52.4234 297.066 45.854 306.263 44.5401C315.46 43.2263 320.715 41.2555 325.971 28.7737C331.226 16.292 350.934 23.5182 363.547 17.6058C376.029 11.6934 390.35 29.4306 402.832 26.146C415.314 22.8613 418.599 48.4817 429.766 46.5109C440.934 44.5401 444.876 59.6496 444.876 59.6496H395.869C397.314 64.7737 397.708 70.1606 402.832 70.8175C412.686 72.1314 411.109 81.3285 411.109 81.3285H387.591C386.54 84.8759 383.781 90.7883 377.212 97.7518C369.723 105.766 361.577 106.949 357.504 107.08C355.927 111.022 353.956 115.226 351.591 119.431C341.212 137.825 319.401 142.161 307.971 143.737C313.358 159.241 321.504 171.066 331.883 172.905C344.234 174.876 361.183 184.599 366.964 203.912C373.664 202.993 386.672 200.102 394.292 189.723C395.168 188.496 396 187.27 396.788 186.044C396.263 182.365 394.818 177.766 390.35 175.927C386.015 174.088 384.438 169.62 383.912 166.073H356.847C356.847 166.073 364.073 151.358 368.934 156.088C373.927 160.818 371.956 137.825 380.496 139.796C389.037 141.766 404.934 123.372 411.109 129.942C417.285 136.511 431.737 124.686 439.62 133.883C444.219 139.27 453.022 144.92 454.861 151.358C461.431 152.146 468.92 156.613 481.007 156.088C500.715 155.299 494.146 170.672 507.285 169.226C520.423 167.912 511.883 181.182 521.08 182.496C530.277 183.81 526.993 197.606 526.993 197.606H489.547C487.708 201.81 484.029 207.985 477.723 214.029C469.051 222.175 453.81 225.197 447.241 226.117C438.964 232.292 429.372 238.073 421.226 240.964C408.088 245.562 376.423 247.664 362.365 248.453C353.956 270.657 344.891 278.015 337.27 288.131C341.474 293.124 352.117 303.635 366.044 306.657C376.949 309.022 382.993 304.818 386.146 301.007H360.788C355.533 295.489 368.015 281.693 375.241 275.781C382.467 269.869 389.693 277.752 400.861 279.066C412.029 280.38 408.745 287.606 415.971 286.686C423.197 285.766 426.482 301.007 426.482 301.007H394.818C392.321 305.212 387.328 311.387 378.526 314.54C364.073 319.796 338.715 314.54 330.044 300.088C328.599 303.241 327.153 306.92 325.971 311.255C322.292 324.131 322.029 336.876 322.949 347.518C331.226 353.168 339.504 358.818 347.518 364.336C359.343 356.19 394.161 332.672 440.803 309.285C494.146 282.613 574.292 250.686 653.65 249.504C749.431 248.19 839.299 280.774 897.898 308.496C954.526 335.168 993.547 362.628 1001.56 368.277C1007.08 366.263 1012.69 364.204 1018.38 362.102C1018.64 357.635 1018.25 352.511 1016.8 347.387C1016.28 345.416 1015.62 343.708 1014.96 342.263C1011.02 348.832 999.328 351.328 992.759 348.832C988.686 347.387 986.453 344.628 985.401 342.657H970.817C970.817 342.657 972.394 335.693 975.679 336.088C978.963 336.613 977.387 333.197 982.511 332.672C987.635 332.015 990.92 328.467 994.336 331.095C997.62 333.854 1003.27 340.161 1000.91 342.657H989.343C990.657 344.496 993.416 346.336 998.54 345.285C1004.85 343.971 1009.71 339.11 1011.68 336.745C1008.13 332.146 1004.06 328.861 1000.12 318.613C993.81 318.35 979.226 317.299 973.182 315.197C969.504 313.883 965.168 311.255 961.358 308.365C958.336 307.971 951.372 306.657 947.431 302.847C944.409 300.088 942.832 297.328 941.912 295.358H924.832C924.832 295.358 923.387 289.051 927.591 288.526C931.796 287.869 927.854 281.825 933.898 282.35C939.81 283.007 936.92 276.044 945.854 276.307C951.372 276.569 954.788 274.599 957.81 274.204C958.73 271.314 962.672 268.686 964.774 266.19C968.453 261.985 975.022 267.372 977.912 264.35C980.672 261.46 987.898 269.869 991.839 268.949C995.781 268.029 994.861 278.54 997.095 276.307C999.328 274.204 1002.74 280.905 1002.74 280.905H990.263C990 282.613 989.343 284.584 987.372 285.504C985.27 286.292 984.613 288.394 984.35 290.102C984.701 290.628 985.095 291.197 985.533 291.81C989.08 296.54 994.993 297.854 998.015 298.248C1000.64 289.445 1008.53 284.978 1014.18 284.058C1018.91 283.27 1022.58 277.883 1025.08 270.788C1019.82 270 1009.84 268.029 1005.11 259.62C1004.06 257.693 1003.14 255.81 1002.35 253.971C1000.51 253.971 996.832 253.314 993.416 249.635C990.394 246.482 989.08 243.723 988.555 242.146H977.912C977.912 242.146 977.124 237.942 981.591 237.416C983.956 237.022 984.219 234.526 984.876 232.292H962.409C962.409 232.292 964.248 225.328 969.372 226.248C974.496 227.168 975.942 215.343 981.591 216.92C987.372 218.365 993.942 210.35 999.591 212.978C1005.37 215.737 1014.44 212.453 1016.8 218.102C1019.17 223.883 1021.66 224.672 1025.87 225.328C1030.07 225.985 1033.36 228.876 1032.44 232.292H1008.53C1008.53 232.38 1008.53 232.511 1008.53 232.686C1010.5 233.737 1011.68 235.051 1014.96 235.051C1020.48 235.314 1021.66 238.861 1018.91 242.146H1010.89C1012.07 244.905 1013.65 247.664 1015.88 250.292C1020.09 255.022 1025.61 255.416 1028.36 255.285C1028.45 254.496 1028.5 253.752 1028.5 253.051C1029.42 239.124 1036.12 237.679 1045.84 238.599C1055.56 239.518 1065.28 234.394 1065.28 234.394C1059.9 233.212 1058.32 230.19 1057.8 227.956H1049.26C1049.26 227.956 1048.73 219.679 1053.85 220.467C1058.85 221.387 1056.48 212.715 1061.87 213.241C1067.39 213.898 1072.77 209.036 1078.29 212.058C1083.81 215.08 1089.72 207.723 1092.74 215.737C1095.63 223.883 1097.74 224.409 1094.98 227.956H1082.23C1080.26 233.474 1073.17 232.161 1071.85 233.737C1070.28 235.577 1066.07 239.518 1059.24 240.044C1052.28 240.701 1043.61 241.226 1037.17 246.088C1032.04 249.898 1034.8 255.81 1033.88 266.453C1037.17 266.453 1043.08 266.19 1045.97 265.27C1050.18 264.088 1054.38 261.066 1055.96 259.62C1056.48 258.964 1057.01 258.044 1057.27 257.255H1049.52C1048.47 254.234 1050.44 251.474 1053.46 249.372C1056.48 247.27 1056.74 248.715 1059.24 246.088C1061.61 243.328 1065.28 246.35 1069.49 246.088C1073.82 245.825 1071.59 252.131 1075.4 253.051C1079.34 253.839 1078.16 257.255 1078.16 257.255H1072.38C1071.72 258.438 1070.28 260.146 1066.73 260.803C1060.69 261.985 1056.74 263.168 1056.74 263.168C1056.74 263.168 1052.28 270.394 1043.34 271.314C1038.22 271.839 1035.07 271.971 1033.09 271.971C1032.92 272.934 1032.7 273.942 1032.44 274.993C1028.23 291.153 1015.62 285.504 1008.39 298.642C1001.43 311.518 1015.88 321.766 1024.69 333.591C1030.99 342.131 1030.47 352.774 1029.68 357.898C1032.04 357.022 1034.41 356.146 1036.77 355.27C1036.64 353.036 1036.77 350.672 1038.09 350.672C1040.72 350.672 1039.4 339.504 1042.69 341.474C1045.97 343.445 1044 334.248 1050.57 332.934C1057.14 331.62 1054.51 336.219 1059.77 336.876C1065.02 337.533 1066.34 333.591 1068.31 338.847C1068.83 340.161 1069.49 341.474 1070.15 342.657C1072.25 341.781 1074.35 340.949 1076.45 340.161V287.474H1098.92V177.504H1119.15V154.511H1098.92C1086.96 149.518 1094.19 135.591 1094.19 135.591C1096.95 146.759 1110.48 143.869 1110.48 143.869L1151.34 107.08C1142.01 102.482 1150.03 89.8686 1150.03 89.8686C1145.82 101.825 1160.8 98.5401 1160.8 98.5401V68.1898H1157.39C1157.39 68.1898 1147.27 65.4306 1153.84 54.2628C1153.84 54.2628 1155.42 61.3577 1161.85 61.7518L1189.58 21.6788C1176.96 12.0876 1192.86 0 1192.86 0C1185.77 10.6423 1196.15 12.3504 1196.15 12.3504H1314.13C1314.13 12.3504 1324.38 10.6423 1317.28 0C1317.28 0 1332.66 11.6934 1321.09 21.2846L1348.82 61.7518C1354.86 61.0949 1356.44 54.2628 1356.44 54.2628C1362.09 64.1168 1354.99 67.4014 1353.15 68.0584L1353.28 68.1898H1349.74V98.5401H1350.66L1350.92 98.8029C1354.73 99.3284 1363.53 99.4598 1360.12 89.8686C1360.12 89.8686 1367.74 101.825 1359.59 106.686L1400.45 144C1403.34 144.394 1413.72 145.182 1415.96 135.591C1415.96 135.591 1423.05 149.255 1411.62 154.248L1411.75 154.511H1391.91V177.504H1403.21V287.474H1426.99V319.664C1435.4 324.526 1440 327.942 1440 327.942ZM1060.55 257.255L1058.85 259.62C1058.85 259.62 1064.5 259.883 1067.52 257.255H1060.55ZM1073.43 227.956L1073.04 230.19C1076.58 230.715 1078.42 229.27 1079.34 227.956H1073.43ZM1069.49 229.533V227.956H1062C1064.76 231.241 1069.49 229.533 1069.49 229.533ZM1000.64 248.715C999.723 245.825 999.328 243.46 999.197 242.146H991.577C991.839 243.591 992.496 245.299 994.336 246.35C996.964 247.927 999.46 248.453 1000.64 248.715ZM1026.53 265.927C1026.96 264.175 1027.36 262.336 1027.71 260.409C1024.03 260.409 1017.33 259.752 1013.26 254.759C1010.63 251.737 1008.79 246.876 1007.61 242.146H1002.22C1002.22 245.299 1003.14 251.869 1010.23 258.438C1018.38 266.058 1024.69 266.19 1026.53 265.927ZM987.109 280.905H980.803C981.066 282.35 981.591 284.321 982.511 286.423C983.693 284.715 985.664 284.453 986.715 283.401C987.372 282.745 987.372 281.825 987.109 280.905ZM974.759 280.905C976.073 283.664 977.912 284.978 979.358 285.766C978.744 283.664 978.307 282.044 978.044 280.905H974.759ZM960.569 297.46C961.489 296.934 962.277 296.277 962.934 295.358H954.263C954.788 296.934 955.708 298.905 957.285 300.745C957.942 299.693 958.993 298.38 960.569 297.46ZM956.234 304.292C954.394 302.715 952.949 301.27 952.161 300.219C951.109 298.642 950.584 296.934 950.321 295.358H945.591C945.985 296.672 946.511 298.248 947.431 299.562C949.139 302.19 953.737 303.635 956.234 304.292ZM998.015 311.912C997.358 308.891 997.095 306.131 997.226 303.635C990 301.664 983.299 297.591 980.803 290.234C978.832 289.708 977.124 288.526 975.81 287.212C976.993 289.971 979.226 292.073 976.861 295.358H966.745C966.088 296.672 965.168 297.854 963.854 298.38C961.883 299.168 960.701 301.927 960.175 303.635C966.088 308.234 987.109 312.044 998.015 311.912ZM203.124 55.0511L202.204 50.4525H189.328C191.431 53.2117 195.504 56.2336 203.124 55.0511ZM227.168 50.4525H210.745V53.7372C210.745 53.7372 221.124 57.4161 227.168 50.4525ZM234 119.431L230.453 114.175H215.212C221.65 119.956 234 119.431 234 119.431ZM381.153 81.3285H364.467C364.073 84.219 363.285 89.3431 361.445 95.6496C363.942 95.1241 369.328 93.9416 375.241 90.5255C379.182 88.292 380.628 84.4817 381.153 81.3285ZM302.19 121.139C302.978 125.343 303.766 129.416 304.818 133.358C308.759 133.752 322.818 133.358 340.423 116.803C355.796 102.482 357.766 88.0292 357.766 81.3285H346.204C343.445 91.5766 339.372 102.219 333.854 108.92C324.788 119.825 310.336 121.27 302.19 121.139ZM443.693 197.606C445.139 199.445 446.847 201.153 448.818 202.204C452.496 204.175 454.73 207.066 456.175 209.299C459.591 205.226 461.562 201.022 462.745 197.606H443.693ZM471.285 197.606C470.759 201.022 469.708 204.832 467.212 208.117C465.504 210.35 462.482 213.635 458.409 217.182C463.927 215.737 474.044 212.453 477.723 206.803C479.825 203.781 480.876 200.496 481.533 197.606H471.285ZM410.715 166.073C410.19 168.569 409.401 171.985 408.088 176.584C410.978 175.007 415.314 171.854 417.942 166.073H410.715ZM400.993 178.029C403.095 173.299 404.146 169.095 404.803 166.073H390.876C390.35 167.912 390.35 169.883 391.796 171.328C394.161 173.693 398.496 174.35 400.993 178.029ZM368.934 215.737C369.197 221.124 368.672 227.168 367.095 233.737C391.139 234 436.861 225.723 450 215.474C448.686 211.796 446.058 205.883 441.723 204.175C438.964 203.124 436.861 200.365 435.416 197.606H413.474C408.35 190.511 413.08 185.65 415.839 179.869C412.686 182.759 409.007 185.255 404.934 186.438C399.416 202.336 384.832 211.401 368.934 215.737ZM1288.38 286.818V249.372C1288.38 229.007 1271.69 212.321 1251.2 212.321C1230.7 212.321 1214.01 229.007 1214.01 249.372V289.051C1214.01 290.715 1214.15 292.336 1214.41 293.912C1238.98 289.577 1264.6 287.212 1288.38 286.818ZM1153.84 242.934H1176.18C1175.12 231.109 1165.66 221.781 1153.84 220.73V242.934ZM1153.84 247.27V269.606C1165.66 268.555 1175.12 259.095 1176.18 247.27H1153.84ZM1325.04 242.934H1347.24V220.599C1335.42 221.65 1326.09 231.109 1325.04 242.934ZM1351.71 269.606C1363.53 268.555 1372.86 259.095 1373.91 247.27H1351.71V269.606ZM1347.24 247.27H1325.04C1326.09 259.095 1335.42 268.555 1347.24 269.606V247.27ZM1373.91 242.934C1372.86 231.109 1363.53 221.65 1351.71 220.599V242.934H1373.91ZM1361.04 177.504V154.38H1349.74V177.504H1361.04ZM1339.62 154.38H1328.85V177.504H1339.62V154.38ZM1318.73 154.38H1308.09V177.504H1318.73V154.38ZM1297.97 154.38H1287.2V177.504H1297.97V154.38ZM1277.21 154.38H1271.82V177.504H1277.21V154.38ZM1242.66 154.38H1234.38V177.504H1242.66V154.38ZM1224.39 154.38H1213.62V177.504H1224.39V154.38ZM1203.5 154.38H1192.86V177.504H1203.5V154.38ZM1182.74 154.38H1170.79V177.504H1182.74V154.38ZM1160.67 154.38H1150.03V177.504H1160.67V154.38ZM1127.04 242.803H1149.37V220.599C1137.55 221.65 1128.09 230.978 1127.04 242.803ZM1127.04 247.27C1128.09 259.095 1137.55 268.555 1149.37 269.606V247.27H1127.04ZM1381.8 154.38H1371.02V177.504H1381.8V154.38ZM1328.85 68.0584V98.5401H1339.49V68.0584H1328.85ZM1308.09 68.0584V98.5401H1318.86V68.0584H1308.09ZM1287.2 68.0584V98.5401H1297.97V68.0584H1287.2ZM1277.08 68.0584H1271.82V98.5401H1277.08V68.0584ZM1234.38 68.0584V98.4088H1242.66V68.0584H1234.38ZM1213.49 68.0584V98.4088H1224.26V68.0584H1213.49ZM1192.6 68.0584V98.4088H1203.37V68.0584H1192.6ZM1170.53 98.4088H1182.48V68.0584H1170.53V98.4088ZM1129.01 177.372H1139.78V154.248H1129.01V177.372ZM951.766 372.745V348.701C938.365 340.949 922.467 332.146 904.467 323.212V348.701C923.387 357.635 939.547 366.044 951.766 372.745ZM966.219 380.891C973.445 378.263 981.197 375.504 989.343 372.482C982.905 368.015 972.263 361.051 958.336 352.642V376.423C961.314 378 963.942 379.489 966.219 380.891ZM892.905 317.693C880.555 311.781 866.759 305.737 851.912 299.825V325.839C868.336 332.409 883.839 339.109 897.898 345.547V320.058C896.234 319.27 894.569 318.482 892.905 317.693ZM824.584 402.175C826.161 402.263 827.825 402.35 829.577 402.438V348.964C827.912 348.35 826.248 347.781 824.584 347.256V402.175ZM845.343 323.212V297.328C828.394 290.759 810.131 284.584 790.817 279.066V304.686C809.737 310.336 828.131 316.642 845.343 323.212ZM720.131 320.715V396.263C721.796 396.175 723.46 396.088 725.124 396V321.504C723.46 321.241 721.796 320.978 720.131 320.715ZM784.248 302.847V277.358C763.358 271.708 741.285 266.978 718.555 263.825V288.526C740.759 291.81 762.832 296.803 784.248 302.847ZM634.467 260.672V285.109C643.664 284.409 652.861 284.058 662.058 284.058C678.613 284.058 695.299 285.241 711.985 287.474V263.036C692.934 260.672 673.358 259.489 653.65 259.752C647.255 259.839 640.861 260.146 634.467 260.672ZM590.058 322.292V404.803C591.11 404.891 592.117 404.978 593.08 405.066V321.766C592.117 321.942 591.11 322.117 590.058 322.292ZM627.898 285.635V261.197C606.482 263.168 585.066 267.241 564.175 272.759V296.54C584.803 291.547 606.219 287.737 627.898 285.635ZM491.518 350.672V395.869C492.307 395.781 493.095 395.693 493.883 395.606V349.752C493.095 350.015 492.307 350.321 491.518 350.672ZM557.606 298.117V274.467C536.19 280.38 515.431 287.737 495.854 295.752V317.693C515.168 310.467 535.927 303.635 557.606 298.117ZM438.701 321.898V342C453.942 334.774 470.891 327.285 489.285 320.19V298.38C471.153 306 454.204 314.015 438.701 321.898ZM432.131 345.285V325.314C416.234 333.723 402.044 341.737 390.088 348.964V367.489C401.255 361.182 415.445 353.431 432.131 345.285ZM356.584 370.511C361.226 373.577 365.737 376.555 370.117 379.445C373.533 377.343 378 374.584 383.518 371.299V353.036C371.693 360.263 362.496 366.438 356.584 370.511ZM273.416 272.496H262.38V311.387C265.971 312.963 269.65 314.715 273.416 316.642V272.496ZM273.416 252.394H262.38V262.511H273.416V252.394ZM193.664 224.934C193.664 233.737 200.759 240.701 209.431 240.701C218.102 240.701 225.197 233.737 225.197 224.934C225.197 216.263 218.102 209.168 209.431 209.168C200.759 209.168 193.664 216.263 193.664 224.934ZM166.073 252.394V262.38H254.496V252.394H166.073ZM147.285 252.394V262.38H158.19V252.394H147.285ZM147.285 314.934C150.876 313.708 154.555 312.569 158.321 311.518V272.496H147.285V314.934ZM245.431 305.737C248.321 306.35 251.387 307.226 254.628 308.365V272.496H166.204V309.416C193.139 302.715 222.701 301.139 245.431 305.737ZM472.599 398.234V358.818C441.328 372.745 416.891 387.328 401.518 397.183C407.825 399.942 413.343 401.781 417.942 402.175C432.526 403.226 452.628 400.861 472.599 398.234ZM540.657 396C547.226 398.759 558.131 401.124 571.139 402.832V325.971C545.65 331.489 522 338.978 500.584 347.124V394.949C517.664 393.11 532.511 392.584 540.657 396ZM664.029 402.175C673.62 400.073 686.759 398.496 701.212 397.445V318.482C687.416 317.036 673.226 316.248 658.905 316.248C638.54 316.248 618.701 317.956 599.781 320.715V405.46C622.38 406.642 646.423 405.854 664.029 402.175ZM805.664 398.628V340.686C782.934 333.328 757.971 327.022 731.825 322.555V395.869C762.701 394.818 793.182 395.869 805.664 398.628ZM921.679 396C922.905 395.65 924.438 395.168 926.277 394.555C908.672 384.175 877.007 367.095 836.277 351.46V402.701C864.394 403.62 903.942 400.861 921.679 396Z" fill="#660000"/>
<path d="M135.722 101.168C126.262 94.5984 115.883 105.766 105.24 97.2261C94.5979 88.686 85.138 91.9706 75.284 101.168C65.5614 110.233 60.3059 110.89 49.6636 106.949C38.8899 103.139 28.3789 116.803 28.3789 116.803H171.065C166.861 99.1969 145.182 107.606 135.722 101.168Z" fill="#660000"/>
<path d="M945.459 111.548C936.919 104.584 931.27 113.913 931.27 113.913C941.124 108.526 945.065 115.883 945.065 115.883C949.795 108.526 960.043 116.146 960.043 116.146C952.686 103.008 945.459 111.548 945.459 111.548Z" fill="#660000"/>
<path d="M209.693 237.022C216.262 237.022 221.518 231.766 221.518 225.197C221.518 218.628 216.262 213.372 209.693 213.372C203.124 213.372 197.868 218.628 197.868 225.197C197.868 231.766 203.124 237.022 209.693 237.022Z" fill="#660000"/>
</svg>
