<svg width="1652" height="914" viewBox="0 0 1652 914" fill="none" xmlns="http://www.w3.org/2000/svg">
<mask id="mask0_262_2590" style="mask-type:luminance" maskUnits="userSpaceOnUse" x="0" y="0" width="1652" height="914">
<path d="M1610.15 913.426H41.415C18.5465 913.426 0 895.203 0 872.718V40.7081C0 18.223 18.5465 0 41.415 0H1610.15C1633.02 0 1651.57 18.223 1651.57 40.7081V872.718C1651.57 895.203 1633.02 913.426 1610.15 913.426Z" fill="white"/>
</mask>
<g mask="url(#mask0_262_2590)">
<path d="M1893.68 884.549C1893.68 853.459 1893.29 821.847 1890.28 790.758C1887.28 759.93 1884.01 728.71 1884.28 697.62C1884.28 692.395 1887.28 626.689 1888.19 615.324C1888.85 614.541 1889.11 613.234 1888.72 612.059V611.144C1888.85 609.838 1888.06 609.054 1887.28 608.662C1881.53 596.383 1875.52 582.798 1864.94 573.915C1859.19 569.082 1852.01 566.731 1844.83 565.163C1832.81 562.681 1826.15 556.28 1817.52 547.92C1805.51 536.164 1794.93 529.763 1778.07 529.371C1754.95 528.848 1734.58 528.457 1715.24 514.088C1714.89 513.913 1714.59 513.739 1714.33 513.565C1711.72 510.952 1708.71 508.862 1705.45 507.034C1696.04 500.502 1686.9 495.277 1675.4 492.273C1673.96 490.705 1673.44 488.746 1672.53 485.349C1668.22 470.588 1656.46 451.255 1642.09 444.332C1635.56 441.328 1627.2 441.197 1620.15 441.85C1614.01 442.373 1610.61 444.071 1606.69 447.206C1603.56 435.972 1597.81 424.999 1584.88 422.387C1575.99 420.688 1563.58 422.909 1556.4 429.44C1553.13 419.121 1545.56 408.671 1537.98 402.4C1529.36 395.216 1517.6 399.265 1509.76 405.405C1509.37 405.666 1509.24 406.058 1509.24 406.45C1503.89 408.801 1500.62 414.81 1499.05 420.819C1498.79 421.951 1498.57 423.04 1498.4 424.085C1496.57 423.04 1494.61 422.125 1492.52 421.342C1478.02 415.463 1459.21 414.418 1443.93 416.378C1431.91 417.945 1423.29 421.995 1411.92 415.333C1403.69 410.63 1395.99 405.274 1387.5 400.964C1372.61 393.126 1361.89 390.513 1345.43 396C1326.23 402.4 1310.69 413.112 1290.18 406.189C1274.37 400.833 1264.05 393.256 1246.94 392.865C1232.05 392.342 1218.2 393.779 1203.83 396.783C1203.83 396.087 1203.79 395.39 1203.7 394.693C1200.44 373.27 1196.13 351.325 1191.16 329.771C1191.82 329.51 1192.6 328.987 1192.99 328.073C1193.43 327.202 1193.86 326.331 1194.3 325.46C1194.82 324.285 1194.3 322.979 1193.64 321.934C1191.95 319.582 1189.99 317.362 1187.64 315.663C1187.11 313.573 1186.59 311.222 1186.07 309.132C1185.94 307.956 1184.89 307.564 1184.11 307.826C1183.19 307.826 1182.41 308.609 1182.67 309.654C1182.8 310.83 1182.93 311.875 1183.06 313.051C1181.93 312.528 1180.8 312.136 1179.67 311.875C1176.01 306.911 1169.09 304.821 1162.95 304.56C1154.72 304.168 1150.01 307.956 1146.49 313.965C1139.43 308.609 1129.51 306.389 1122.19 312.398C1117.36 316.317 1118.14 321.803 1120.23 326.897C1119.8 327.42 1119.4 327.986 1119.06 328.596C1116.31 327.942 1113.57 327.942 1110.96 328.596C1107.04 329.51 1104.03 332.514 1102.2 335.911C1101.81 336.695 1101.42 337.348 1101.29 338.001C1097.5 336.041 1093.32 334.996 1089.14 335.519C1084.57 336.041 1080.13 338.393 1076.99 341.789C1076.08 342.834 1075.43 343.879 1074.9 344.924C1061.97 342.181 1046.03 350.019 1051 363.343C1041.99 362.298 1032.84 367.653 1028.53 375.622C1023.83 371.442 1017.95 368.698 1012.07 369.482C1007.89 370.005 1002.4 372.617 999.4 375.752C998.225 377.059 997.572 378.234 997.31 379.541C993 378.626 988.428 379.018 982.941 380.977C975.365 383.721 967.005 390.252 967.658 398.482C963.478 398.351 959.298 399.004 955.379 400.18C945.712 403.054 941.793 407.756 941.01 415.202C936.96 415.071 932.649 415.986 928.208 418.468C923.114 421.211 919.587 425.26 918.28 430.094C913.839 428.526 909.006 428.657 905.348 431.922C902.213 434.796 899.731 440.021 898.425 443.94C897.772 445.638 897.249 447.728 897.249 449.557C891.893 449.035 886.668 450.08 882.88 453.607C880.006 456.35 877.916 460.53 877.524 464.71C877.263 464.536 877.002 464.362 876.741 464.188C872.038 461.836 864.984 461.052 860.02 463.012C854.403 465.233 850.092 471.503 848.656 478.034C846.565 476.858 844.214 476.075 841.732 476.075C837.421 476.075 834.548 479.471 832.588 482.998C831.674 484.827 830.89 486.786 830.498 488.746C821.224 484.696 810.512 484.957 802.674 492.403C792.877 501.547 797.841 513.957 807.246 520.88C807.333 520.88 807.377 520.924 807.377 521.011C811.296 526.367 817.174 529.632 823.575 529.763C825.926 531.984 828.8 533.943 831.674 535.511C823.575 536.556 815.476 538.646 808.945 543.609C803.197 547.92 798.886 554.452 792.747 558.37C788.958 560.722 784.386 562.028 779.814 562.551C780.86 556.019 781.643 549.488 781.643 543.087C781.643 537.992 781.643 532.767 779.814 528.979C779.553 527.324 779.161 525.713 778.639 524.146C779.423 523.623 779.814 522.84 779.553 521.925C775.634 510.952 759.437 515.263 753.036 521.403C747.941 526.236 745.067 532.637 743.63 539.691C739.581 536.556 735.401 534.074 729 534.466C720.509 534.857 709.145 539.037 702.221 544.263C695.69 549.357 692.424 557.195 690.073 565.033C684.195 554.974 674.136 549.096 661.727 553.798C657.938 555.235 654.673 557.325 652.06 559.677C647.358 558.632 641.741 559.807 636.907 561.636C630.115 554.321 615.484 554.321 606.993 557.979C597.327 562.028 592.624 569.735 588.836 578.618C587.356 578.531 585.875 578.487 584.395 578.487C581.652 578.618 576.688 579.271 571.854 580.838C562.188 581.622 551.085 591.158 546.774 599.518C543.9 605.135 542.202 611.536 541.549 618.329C529.27 615.586 516.729 625.121 509.153 634.788C505.234 640.013 501.968 646.022 499.878 652.423C495.306 650.594 489.428 650.725 485.771 651.378C470.095 653.598 457.685 664.702 448.15 676.589C437.177 690.435 429.6 708.07 427.38 726.097C427.293 726.097 427.162 726.053 426.988 725.966C420.065 723.484 413.403 722.701 405.957 722.701C391.457 722.701 380.092 727.664 368.989 736.678C344.953 756.403 339.336 781.353 336.071 809.96C329.278 803.168 321.31 801.339 309.945 798.204C295.968 794.546 285.387 793.24 272.977 802.384C261.221 811.005 252.991 825.505 249.595 839.613C247.766 846.667 246.852 854.113 247.113 861.428C247.244 866.392 248.811 871.878 249.203 877.103C219.289 866.914 187.547 885.071 185.065 918.512C182.975 948.426 208.708 949.994 234.181 945.422C234.616 945.857 235.139 946.249 235.748 946.597C237.969 947.773 240.19 946.205 240.712 944.115C243.412 943.593 246.068 942.983 248.681 942.287H1889.76V941.372C1894.2 940.066 1894.73 937.061 1895.25 932.098C1896.68 916.683 1893.81 900.094 1893.68 884.549Z" fill="#5B0101"/>
<path d="M1452.36 444.38L1500.85 441.52C1501.47 441.396 1501.97 440.898 1501.97 440.277L1487.67 332.853C1487.67 332.355 1487.17 331.982 1486.55 331.982L1452.86 332.728C1452.24 332.728 1451.74 333.35 1451.86 333.972L1453.73 345.783C1453.73 346.405 1453.23 347.027 1452.61 347.027L1440.05 347.151C1439.56 347.151 1438.93 346.654 1439.06 346.032L1439.31 336.085C1439.43 335.588 1438.93 334.966 1438.31 334.966L1405.86 335.215C1405.36 335.215 1404.87 335.588 1404.87 336.21L1404.37 348.27C1404.37 348.892 1403.87 349.389 1403.25 349.389L1392.68 349.016C1392.06 348.892 1391.56 348.394 1391.56 347.897L1391.94 337.95C1391.94 337.329 1391.44 336.831 1390.82 336.831L1359.36 337.453C1358.74 337.453 1358.24 337.95 1358.24 338.572L1358.37 358.217C1358.37 358.838 1357.87 359.336 1357.25 359.336L1348.05 359.46C1347.55 359.46 1347.05 358.963 1347.05 358.341L1346.68 339.691C1346.68 339.069 1346.18 338.572 1345.56 338.572L1313.11 339.691C1312.61 339.815 1312.11 340.188 1312.11 340.81L1310 418.394L1309.13 443.758C1309.01 444.38 1309.5 444.877 1310.12 444.877L1452.36 444.38Z" fill="#C53F1C"/>
<path d="M1404.74 397.134C1388.58 396.512 1393.3 434.558 1393.3 434.558L1414.07 435.304C1414.07 435.304 1420.91 397.631 1404.74 397.134Z" fill="#3D3D3D"/>
<path d="M1461.07 393.279C1450.5 393.776 1455.72 418.394 1455.72 418.394L1469.27 417.648C1469.27 417.648 1471.63 392.782 1461.07 393.279Z" fill="#3D3D3D"/>
<path d="M1495.75 369.904C1462.93 371.396 1430.36 373.758 1397.66 375.748C1368.56 377.613 1338.47 374.877 1309.63 378.732C1308.38 378.98 1308.38 380.97 1309.5 381.094C1324.05 384.078 1338.85 381.84 1353.52 381.467C1367.32 381.094 1381.12 381.591 1394.92 380.721C1428.49 378.483 1461.81 375.872 1495.51 375.996C1499.48 376.121 1499.61 369.78 1495.75 369.904Z" fill="#8A2D15"/>
<path d="M1291.35 416.281C1281.16 413.297 1196.61 376.37 1188.4 369.78C1182.44 364.931 1170.5 343.546 1170.87 333.35C1180.57 333.723 1247.46 334.469 1247.46 334.469L1375.77 338.945L1325.79 281.876L1318.7 282.125L1318.33 261.859L1260.39 248.431L1239.13 254.274L1238.63 267.827L1232.54 267.702L1232.29 255.518L1212.4 262.232C1212.4 262.232 1212.77 269.07 1212.52 274.168C1206.18 272.924 1190.27 270.438 1177.96 269.194C1155.95 266.832 1138.17 267.329 1126.11 277.276C1114.18 287.223 1113.93 301.894 1113.43 313.084C1112.93 326.388 1109.7 413.67 1111.32 427.222C1112.93 440.899 1167.64 451.094 1196.11 447.986C1200.46 446.369 1292.22 416.156 1292.22 416.156" fill="#E8623E"/>
<path d="M1179.33 289.461C1171.87 288.964 1125.86 291.45 1122.76 324.15C1119.4 359.212 1184.8 376.867 1184.8 376.867C1184.8 376.867 1163.66 359.461 1163.41 328.502C1163.16 299.159 1171 296.299 1179.33 289.461Z" fill="#FFC684"/>
<path d="M1321.81 279.265C1301.67 275.162 1281.53 271.308 1261.39 267.205C1261.22 267.122 1261.1 267.122 1261.01 267.205C1260.93 267.205 1260.85 267.205 1260.77 267.205C1257.78 267.951 1254.92 269.318 1251.94 270.064C1247.84 271.059 1243.73 272.054 1239.63 272.8C1239.01 272.924 1239.01 273.919 1239.75 273.919C1246.72 273.919 1255.3 272.054 1261.51 268.821C1261.64 268.697 1261.64 268.572 1261.76 268.572C1270.22 272.178 1280.41 272.8 1289.24 274.416C1300.06 276.281 1310.5 278.768 1321.19 281.13C1322.31 281.379 1322.93 279.514 1321.81 279.265Z" fill="#8A2D15"/>
<path d="M1247.96 256.761C1247.58 256.761 1247.34 256.885 1247.09 257.134C1247.09 257.258 1246.96 257.134 1246.96 257.258C1246.96 257.258 1246.96 257.3 1246.96 257.382C1246.88 257.465 1246.84 257.59 1246.84 257.755C1246.59 258.501 1246.34 259.372 1246.84 259.993C1247 260.242 1247.25 260.366 1247.59 260.366C1247.83 260.242 1247.96 260.242 1248.33 260.242C1248.7 260.242 1248.95 259.993 1249.08 259.496C1249.2 258.501 1249.57 256.761 1247.96 256.761Z" fill="#8A2D15"/>
<path d="M1247.59 263.475C1246.84 263.475 1246.59 263.972 1246.59 264.47C1246.09 265.216 1245.97 266.335 1246.59 266.832C1247.34 267.578 1248.83 266.708 1249.08 265.837C1249.2 264.843 1248.7 263.351 1247.59 263.475Z" fill="#8A2D15"/>
<path d="M1225.33 264.594C1225.33 264.345 1224.96 264.097 1224.71 264.097C1223.59 263.972 1223.22 264.345 1222.97 265.091C1222.72 265.589 1222.59 266.335 1222.84 266.832C1223.09 267.702 1224.21 267.578 1224.83 267.454C1225.21 267.454 1225.45 267.081 1225.45 266.832C1225.45 266.086 1225.45 265.34 1225.33 264.594Z" fill="#8A2D15"/>
<path d="M1225.33 270.686C1225.08 270.313 1224.21 269.94 1223.84 270.189C1222.97 270.438 1223.09 271.432 1223.22 272.178C1223.22 272.344 1223.22 272.468 1223.22 272.551C1223.22 272.8 1223.34 273.049 1223.59 273.173C1224.21 273.297 1224.83 273.297 1225.21 272.8C1225.45 272.303 1225.58 271.184 1225.33 270.686Z" fill="#8A2D15"/>
<path d="M1269.97 255.89C1269.97 254.896 1269.47 254.398 1268.47 254.398C1268.1 254.398 1267.85 254.647 1267.73 255.02C1267.48 255.02 1267.23 255.144 1267.23 255.517C1267.23 256.263 1266.73 257.631 1267.48 258.253C1267.98 258.75 1269.1 258.75 1269.59 258.253C1270.09 257.631 1269.97 256.512 1269.97 255.89Z" fill="#8A2D15"/>
<path d="M1274.94 263.475C1274.69 263.475 1274.44 263.848 1274.44 264.097C1274.44 264.097 1274.44 264.138 1274.44 264.221C1273.94 265.091 1273.82 266.21 1274.19 266.832C1274.32 267.081 1274.57 267.329 1274.82 267.205C1276.06 267.205 1277.43 267.205 1277.43 265.713C1277.3 263.848 1276.68 263.226 1274.94 263.475Z" fill="#8A2D15"/>
<path d="M1284.26 258.75C1283.89 258.129 1283.52 258.253 1283.02 258.253C1281.4 258.004 1281.28 258.999 1281.53 260.367C1281.4 260.864 1281.28 261.486 1281.78 261.734C1282.15 262.107 1283.39 262.107 1283.89 261.859C1284.39 261.61 1284.51 261.237 1284.51 260.615C1284.51 260.118 1284.51 259.248 1284.26 258.75Z" fill="#8A2D15"/>
<path d="M1291.35 266.21C1290.61 266.086 1289.98 266.21 1289.73 266.459C1289.61 266.459 1289.36 266.459 1289.36 266.583C1289.11 267.205 1288.99 267.826 1288.99 268.448C1288.86 268.572 1289.11 268.821 1289.24 268.945C1289.74 269.194 1290.73 269.318 1291.35 268.945C1291.85 268.448 1291.72 267.453 1291.85 266.832C1291.85 266.583 1291.6 266.21 1291.35 266.21Z" fill="#8A2D15"/>
<path d="M1298.81 262.854C1298.69 262.481 1298.81 261.859 1298.56 261.486C1298.31 260.989 1297.2 260.491 1296.7 260.74C1296.57 260.74 1296.57 260.74 1296.45 260.864C1296.45 260.616 1296.2 260.616 1296.08 260.74C1295.33 261.486 1295.21 263.227 1295.58 264.221C1295.83 264.594 1296.2 264.594 1296.57 264.47C1297.32 264.221 1298.31 265.092 1298.81 264.097C1298.94 263.6 1298.81 263.227 1298.81 262.854Z" fill="#8A2D15"/>
<path d="M1304.28 269.692C1304.16 269.692 1304.16 269.816 1304.03 269.816C1303.95 269.899 1303.91 269.94 1303.91 269.94C1303.91 270.023 1303.91 270.065 1303.91 270.065C1303.41 270.686 1303.41 271.805 1303.41 272.676C1303.41 272.924 1303.66 273.297 1304.03 273.297C1305.9 273.297 1306.4 272.924 1306.4 271.059C1306.4 269.816 1305.4 269.567 1304.28 269.692Z" fill="#8A2D15"/>
<path d="M1313.36 264.966C1313.23 264.593 1312.98 264.469 1312.74 264.469C1312.16 264.386 1311.58 264.345 1311 264.345C1310.5 264.345 1310.25 264.842 1310.37 265.339C1310.46 265.339 1310.5 265.381 1310.5 265.464C1310.37 265.837 1310.25 266.458 1310.5 266.831C1310.87 267.577 1311.87 267.329 1312.61 267.577C1313.11 267.702 1313.48 267.329 1313.61 266.831C1313.61 266.21 1313.48 265.464 1313.36 264.966Z" fill="#8A2D15"/>
<path d="M1347.67 328.625C1345.93 326.014 1344.44 323.279 1342.7 320.668C1339.34 315.695 1335.74 311.094 1331.88 306.494C1332.01 306.245 1331.88 305.997 1331.64 305.872C1329.27 305.375 1326.79 305.375 1324.42 305.002C1323.8 301.148 1324.18 297.293 1323.55 293.563C1323.55 293.439 1323.68 293.439 1323.68 293.315C1323.8 292.942 1323.55 292.569 1323.06 292.444L1261.14 278.519C1261.06 278.436 1260.93 278.395 1260.77 278.395L1251.19 279.762C1250.69 279.887 1250.45 280.26 1250.45 280.633C1250.57 281.13 1250.94 281.379 1251.32 281.254L1260.89 280.011L1322.81 293.936C1322.56 295.553 1322.81 297.418 1322.81 299.034C1322.68 301.148 1322.81 303.261 1323.18 305.251C1323.3 305.748 1323.68 305.872 1323.93 305.748C1325.05 306.245 1326.29 306.245 1327.53 306.618C1328.65 306.867 1330.14 306.991 1331.39 306.991C1332.13 308.608 1334 310.473 1334.87 311.592C1336.69 314.244 1338.51 316.896 1340.34 319.549C1343.2 323.776 1345.93 328.128 1348.54 332.604C1348.79 332.977 1349.29 332.853 1349.41 332.604C1350.04 330.988 1348.42 329.744 1347.67 328.625Z" fill="#AC3516"/>
<path d="M1172.37 372.142C1172.37 371.894 1172.24 371.687 1171.99 371.521C1170.87 371.148 1169.51 371.769 1168.64 372.391C1168.39 372.515 1168.39 372.888 1168.64 372.888C1167.14 374.629 1167.52 376.743 1167.39 379.727C1167.27 381.592 1167.02 383.705 1167.14 385.695C1167.14 386.316 1167.14 387.062 1167.89 387.435C1169.51 388.306 1170.13 386.068 1170.38 384.949C1170.5 384.078 1170.38 382.835 1170.25 381.592C1170.5 380.721 1170.5 379.851 1170 379.229C1169.88 376.494 1170 373.883 1172.12 372.888C1172.24 372.764 1172.37 372.64 1172.37 372.515C1172.37 372.35 1172.37 372.225 1172.37 372.142Z" fill="#8A2D15"/>
<path d="M1174.98 395.269C1174.23 395.766 1174.35 396.264 1174.23 397.134C1174.11 397.88 1174.11 398.502 1174.35 399.248C1174.48 399.745 1174.98 399.621 1175.1 399.248C1175.47 398.129 1175.47 396.885 1175.97 395.891C1176.22 395.269 1175.35 395.02 1174.98 395.269Z" fill="#8A2D15"/>
<path d="M1189.65 403.102C1189.4 402.853 1188.9 402.978 1188.78 403.351C1188.03 404.221 1188.03 405.713 1188.4 406.832C1188.53 407.081 1188.78 406.956 1188.9 406.832C1189.27 405.962 1189.65 404.967 1189.9 404.097C1190.02 403.599 1190.02 403.351 1189.65 403.102Z" fill="#8A2D15"/>
<path d="M1206.06 408.945C1205.81 408.572 1205.44 408.697 1205.19 408.945C1204.44 409.94 1204.82 411.432 1205.06 412.551C1205.06 412.8 1205.44 412.8 1205.44 412.551C1205.69 411.432 1206.56 410.064 1206.06 408.945Z" fill="#8A2D15"/>
<path d="M1221.85 416.53C1221.73 416.157 1221.35 416.033 1221.1 416.157C1220.11 416.654 1219.98 417.898 1220.23 419.017C1220.36 419.638 1221.48 419.514 1221.48 418.892C1221.48 418.022 1221.97 417.4 1221.85 416.53Z" fill="#8A2D15"/>
<path d="M1237.27 422.871C1237.14 422.125 1236.15 422.125 1236.02 422.747C1235.65 423.99 1235.77 425.358 1236.02 426.601C1236.15 427.098 1236.77 427.098 1236.89 426.601C1237.27 425.482 1237.39 424.114 1237.27 422.871Z" fill="#8A2D15"/>
<path d="M1251.07 404.22C1250.98 404.137 1250.94 404.013 1250.94 403.847C1250.82 403.599 1250.57 403.35 1250.32 403.35C1250.07 403.35 1249.78 403.391 1249.45 403.474C1249.37 403.309 1249.24 403.267 1249.08 403.35C1248.08 403.474 1247.46 403.847 1246.96 404.345C1245.1 405.339 1244.73 409.442 1244.6 411.059C1244.48 414.167 1244.1 417.4 1244.23 420.508C1244.35 421.503 1244.23 422.249 1245.35 422.622C1245.6 422.746 1245.97 422.746 1246.09 422.497C1246.22 422.373 1246.34 422.124 1246.34 421.876C1246.84 421.876 1247.21 421.627 1247.21 421.005C1247.34 419.016 1247.46 417.027 1247.59 415.037C1247.83 413.297 1248.08 411.432 1248.21 409.691C1248.21 408.821 1248.08 407.95 1248.21 406.956C1248.21 406.624 1248.25 406.293 1248.33 405.961C1248.95 405.588 1249.2 405.215 1249.2 404.966C1249.45 404.966 1249.7 404.966 1250.45 404.966C1250.82 404.966 1251.19 404.593 1251.07 404.22Z" fill="#8A2D15"/>
<path d="M1266.61 410.81C1265.61 409.815 1263.5 410.934 1263.13 412.053C1262.75 413.297 1262.88 414.789 1262.63 416.032C1262.51 417.524 1262.26 419.016 1262.26 420.508C1262.13 421.627 1263.87 421.751 1264 420.632C1264.12 418.767 1264.37 417.027 1264.62 415.162C1264.62 414.54 1264.37 413.172 1264.74 412.551C1264.99 412.053 1265.99 411.68 1266.48 411.556C1266.73 411.432 1266.86 411.059 1266.61 410.81Z" fill="#8A2D15"/>
<path d="M1234.03 397.755C1234.03 397.507 1233.91 397.382 1233.66 397.382C1230.55 396.885 1229.18 399.372 1229.06 402.107C1228.98 402.687 1228.94 403.267 1228.94 403.848C1228.69 405.837 1228.69 407.826 1228.44 409.443C1228.31 411.183 1226.95 415.286 1228.69 416.53C1229.06 416.778 1229.56 416.53 1229.81 416.281C1229.81 416.198 1229.81 416.157 1229.81 416.157C1229.97 416.074 1230.1 415.949 1230.18 415.784C1231.05 413.67 1231.17 411.183 1231.3 409.07C1231.3 405.713 1232.17 402.48 1232.04 399.247C1231.96 399.081 1231.88 398.957 1231.8 398.874C1232.29 398.501 1232.67 398.253 1233.29 398.128C1233.41 398.501 1234.03 398.501 1234.03 398.004C1234.03 397.921 1234.03 397.838 1234.03 397.755Z" fill="#8A2D15"/>
<path d="M1216.01 391.788C1214.64 392.409 1214.39 394.399 1214.14 395.891C1213.89 398.129 1213.89 400.491 1213.77 402.729C1213.77 404.594 1213.27 407.205 1213.89 409.07C1214.02 409.443 1214.39 409.692 1214.76 409.443C1216.5 408.573 1216.5 404.47 1216.63 402.853C1216.75 400.988 1217 399.123 1217 397.258C1217.13 395.518 1217.13 394.896 1218.74 393.653C1219.11 393.404 1219.74 393.528 1219.99 393.031C1221.1 390.793 1217.25 390.42 1216.01 391.788Z" fill="#8A2D15"/>
<path d="M1202.45 385.074C1202.37 384.659 1202.16 384.452 1201.83 384.452C1200.71 384.203 1200.09 384.576 1199.22 385.198C1198.85 385.322 1198.97 385.571 1199.22 385.695C1198.35 386.69 1198.47 388.928 1198.23 389.923C1197.85 393.528 1197.6 398.004 1197.85 401.61C1197.85 402.107 1198.35 402.48 1198.85 402.232C1200.59 401.361 1200.34 397.507 1200.34 395.891C1200.46 393.528 1200.46 390.793 1201.09 388.555C1201.33 387.56 1202.45 386.193 1202.45 385.074Z" fill="#8A2D15"/>
<path d="M1187.28 376.992C1186.41 376.495 1185.17 376.992 1184.3 377.614C1184.18 377.614 1184.18 377.614 1184.05 377.614C1183.97 377.614 1183.84 377.614 1183.68 377.614C1183.3 377.614 1183.06 377.738 1182.93 378.111C1182.31 380.971 1182.68 384.328 1182.56 387.312C1182.43 389.301 1181.94 392.161 1183.3 393.901C1183.55 394.15 1184.05 394.274 1184.3 393.901C1185.54 392.409 1185.17 389.798 1185.17 388.058C1185.25 386.317 1185.34 384.576 1185.42 382.836C1185.42 381.717 1185.54 380.722 1186.29 379.976C1186.66 379.603 1187.28 379.603 1187.53 379.23C1188.28 378.36 1188.28 377.614 1187.28 376.992Z" fill="#8A2D15"/>
<path d="M1160.68 389.176C1160.68 388.306 1159.43 388.306 1159.56 389.052C1159.56 389.922 1159.68 390.792 1159.81 391.538C1159.81 391.621 1159.81 391.663 1159.81 391.663H1159.93C1160.05 391.911 1160.55 392.16 1160.68 391.663C1160.93 390.792 1160.68 390.171 1160.68 389.176Z" fill="#8A2D15"/>
<path d="M1147.75 383.333C1147.75 384.079 1147.62 384.825 1148 385.571C1148.12 385.944 1148.74 385.82 1148.74 385.447C1148.74 384.701 1148.87 384.079 1148.99 383.333C1149.11 382.587 1147.75 382.587 1147.75 383.333Z" fill="#8A2D15"/>
<path d="M1137.3 375.251C1137.05 374.754 1136.31 374.629 1136.18 375.251C1135.69 376.494 1136.06 377.613 1136.68 378.732C1136.8 378.981 1136.93 378.857 1137.05 378.732C1137.43 377.738 1137.55 376.246 1137.3 375.251Z" fill="#8A2D15"/>
<path d="M1125.74 368.164C1125.74 369.408 1125.49 370.527 1125.61 371.77C1125.74 372.019 1126.11 372.019 1126.24 371.77C1126.48 370.527 1126.61 369.408 1126.86 368.164C1126.86 367.543 1125.86 367.418 1125.74 368.164Z" fill="#8A2D15"/>
<path d="M1120.64 361.326C1120.64 362.32 1120.64 363.315 1120.77 364.185C1120.89 364.558 1121.39 364.558 1121.39 364.31C1121.64 363.315 1121.64 362.32 1121.76 361.326C1121.76 360.704 1120.64 360.704 1120.64 361.326Z" fill="#8A2D15"/>
<path d="M1158.69 365.304C1156.95 365.056 1154.59 365.926 1154.21 367.791C1154.09 368.661 1154.46 369.78 1154.46 370.775C1154.46 372.018 1154.34 373.386 1154.21 374.754C1154.21 376.992 1153.96 379.23 1154.46 381.343C1154.46 381.716 1155.08 381.841 1155.21 381.468C1155.95 378.484 1155.7 375.251 1155.83 372.143C1155.95 371.272 1155.58 368.04 1156.08 367.418C1156.45 367.045 1158.32 366.672 1158.81 366.548C1159.56 366.548 1159.31 365.429 1158.69 365.304Z" fill="#8A2D15"/>
<path d="M1146.88 358.342C1145.76 359.088 1144.51 358.342 1143.39 359.088C1142.65 359.709 1142.4 361.823 1142.28 362.693C1141.78 366.423 1141.53 371.397 1142.4 375.127C1142.4 375.375 1142.77 375.375 1142.77 375.127C1143.77 371.521 1143.27 367.791 1143.52 364.185C1143.64 362.818 1143.77 360.58 1145.14 360.082C1145.88 359.709 1146.63 360.207 1147.5 359.585C1148.24 359.088 1147.62 357.844 1146.88 358.342Z" fill="#8A2D15"/>
<path d="M1137.05 352.125C1134.69 352.871 1132.58 351.876 1132.08 354.611C1131.33 358.59 1130.96 363.439 1131.83 367.293C1131.83 367.418 1131.95 367.418 1131.95 367.293C1132.95 364.185 1132.58 360.579 1133.07 357.347C1133.07 356.849 1133.12 356.352 1133.2 355.855C1133.45 354.736 1133.32 354.487 1134.07 353.99C1134.94 353.617 1136.43 353.741 1137.43 353.492C1138.17 353.244 1137.92 351.876 1137.05 352.125Z" fill="#8A2D15"/>
<path d="M1129.84 344.54C1128.6 344.292 1126.61 344.665 1125.49 345.038C1124.5 345.411 1124.25 345.784 1124 346.903C1123.5 348.892 1123.38 351.379 1123.25 353.492C1123.13 355.979 1122.63 358.341 1123.25 360.704C1123.38 360.952 1123.63 360.952 1123.75 360.704C1124.87 357.222 1124.62 353.244 1125.24 349.638C1125.49 348.27 1125.12 347.027 1126.49 346.53C1127.36 346.157 1128.72 346.032 1129.72 345.784C1130.34 345.659 1130.46 344.665 1129.84 344.54Z" fill="#8A2D15"/>
<path d="M1124.5 337.703C1122.38 337.454 1119.77 337.454 1119.52 339.941C1119.15 344.044 1118.9 349.017 1119.65 352.996H1119.77C1120.52 350.012 1120.39 346.903 1120.52 343.919C1120.64 342.925 1120.27 341.184 1120.64 340.314C1121.14 338.946 1123.25 338.946 1124.5 339.07C1125.37 339.195 1125.49 337.827 1124.5 337.703Z" fill="#8A2D15"/>
<path d="M1121.26 328.253C1120.52 327.88 1119.52 327.88 1118.53 328.004C1117.66 328.128 1116.54 328.128 1115.79 328.75C1115.3 329.247 1115.92 329.993 1116.54 329.745C1117.04 329.496 1117.78 329.745 1118.28 329.745C1119.03 329.62 1119.52 329.62 1120.27 329.745C1121.02 329.745 1121.51 329.869 1121.64 328.999C1121.76 328.75 1121.51 328.377 1121.26 328.253Z" fill="#8A2D15"/>
<path d="M1120.39 315.198C1120.14 314.825 1119.77 314.701 1119.4 314.825C1117.78 315.074 1115.54 314.576 1114.18 315.695C1114.05 315.82 1114.05 316.193 1114.3 316.317C1115.17 316.939 1116.79 316.69 1117.91 316.69C1118.78 316.69 1119.9 316.69 1120.39 315.944C1120.52 315.82 1120.52 315.571 1120.39 315.447C1120.39 315.364 1120.39 315.281 1120.39 315.198Z" fill="#8A2D15"/>
<path d="M1120.27 305.251C1119.15 304.754 1116.04 304.256 1115.17 305.251C1114.92 305.5 1114.92 305.873 1115.3 305.997C1116.66 306.619 1118.28 306.37 1119.65 306.992C1120.77 307.365 1121.26 305.748 1120.27 305.251Z" fill="#8A2D15"/>
<path d="M1116.66 295.429C1116.17 295.429 1115.92 296.175 1116.41 296.423C1117.16 296.796 1117.78 296.796 1118.53 296.796C1119.4 296.796 1120.02 297.169 1120.89 297.169C1121.26 297.294 1121.51 296.796 1121.51 296.548C1121.02 294.558 1118.03 295.429 1116.66 295.429Z" fill="#8A2D15"/>
<path d="M1125.12 286.229C1125.12 285.98 1124.87 285.856 1124.74 285.856C1124.12 285.358 1123.38 285.358 1122.76 285.358C1122.38 285.483 1120.77 285.856 1120.52 285.731C1120.52 285.648 1120.52 285.648 1120.52 285.731C1120.27 286.229 1120.77 286.353 1121.26 286.477C1121.89 286.477 1122.51 286.477 1123 286.602C1123.5 286.602 1123.75 286.726 1124 286.85C1124.5 288.964 1124.74 291.326 1124.99 293.44C1125.12 295.305 1124.99 297.294 1125.86 299.035C1125.99 299.284 1126.61 299.159 1126.61 298.786C1126.24 294.683 1126.36 290.207 1125.12 286.229Z" fill="#8A2D15"/>
<path d="M1132.95 284.985C1132.95 284.902 1132.95 284.861 1132.95 284.861C1132.95 282.623 1132.7 280.26 1132.2 278.893C1132.2 278.81 1132.2 278.727 1132.2 278.644C1132.08 278.395 1132.2 277.898 1131.96 278.147C1132.33 277.774 1132.08 277.028 1131.46 277.028C1131.38 277.028 1131.29 277.028 1131.21 277.028C1130.96 277.028 1130.71 277.152 1130.59 277.401C1130.46 277.276 1130.46 277.152 1130.34 277.152C1129.34 276.779 1128.35 277.028 1127.48 276.53C1127.4 276.53 1127.36 276.53 1127.36 276.53C1127.23 277.028 1127.48 277.276 1127.85 277.525C1128.1 277.649 1128.35 277.649 1128.6 277.774C1129.1 277.898 1129.47 278.022 1129.97 278.271C1130.09 278.395 1130.34 278.395 1130.46 278.271V278.147C1130.63 279.887 1130.88 281.628 1131.21 283.369C1131.21 283.617 1131.25 283.866 1131.33 284.115C1131.33 284.446 1131.33 284.653 1131.33 284.736C1131.33 286.726 1131.21 288.715 1131.58 290.58C1131.83 291.326 1132.7 291.202 1133.07 290.58C1133.82 288.839 1133.32 286.726 1132.95 284.985Z" fill="#8A2D15"/>
<path d="M1142.4 277.525C1142.27 275.536 1142.27 273.547 1141.9 271.557C1141.98 271.391 1142.03 271.226 1142.03 271.06C1141.94 271.06 1141.86 271.018 1141.78 270.936C1141.78 270.853 1141.78 270.77 1141.78 270.687C1141.65 270.314 1141.28 270.19 1140.91 270.19C1140.82 270.19 1140.7 270.19 1140.53 270.19C1140.53 270.19 1140.53 270.231 1140.53 270.314C1139.79 270.19 1139.04 270.314 1138.42 269.941C1137.92 269.692 1137.55 270.19 1137.8 270.563C1138.42 271.184 1139.66 271.433 1140.66 271.557C1140.16 273.671 1140.04 275.785 1140.16 277.898C1140.16 279.39 1140.16 281.131 1141.03 282.499C1141.4 282.872 1141.9 282.872 1142.27 282.499C1143.27 281.255 1142.52 278.893 1142.4 277.525Z" fill="#8A2D15"/>
<path d="M1153.34 278.022C1153.47 275.163 1153.47 272.427 1153.09 269.692C1152.84 268.822 1151.6 268.946 1151.48 269.692C1151.39 269.609 1151.35 269.526 1151.35 269.443H1151.23C1151.14 269.526 1151.06 269.568 1150.98 269.568C1150.85 269.692 1150.85 269.816 1150.85 269.941C1151.48 270.811 1150.98 273.298 1150.85 274.168C1150.85 275.536 1150.73 277.028 1150.73 278.395C1150.73 279.763 1150.48 281.628 1151.48 282.747C1151.85 282.996 1152.35 283.12 1152.59 282.747C1153.71 281.504 1153.22 279.514 1153.34 278.022Z" fill="#8A2D15"/>
<path d="M1168.63 270.314C1168.63 269.444 1167.51 269.444 1167.27 270.314C1167.14 271.309 1167.14 272.428 1167.27 273.422C1166.93 275.494 1166.73 277.567 1166.64 279.639C1166.64 280.882 1166.15 282.623 1167.02 283.618C1167.39 283.991 1168.01 283.991 1168.26 283.618C1170 279.888 1168.88 274.293 1168.63 270.314Z" fill="#8A2D15"/>
<path d="M1186.79 278.644C1186.66 276.53 1186.29 274.417 1186.29 272.179L1186.16 272.054C1186.16 271.888 1186.12 271.764 1186.04 271.681C1185.54 271.308 1184.67 271.433 1184.67 272.179C1184.67 272.676 1184.67 273.173 1184.67 273.671C1184.3 274.914 1184.3 276.406 1184.18 277.525C1184.05 278.768 1183.55 281.006 1184.67 282.001C1184.92 282.125 1185.29 282.125 1185.54 282.001C1186.79 281.379 1186.91 279.887 1186.79 278.644Z" fill="#8A2D15"/>
<path d="M1171.24 341.557C1170.62 335.091 1169.5 315.571 1187.91 302.267C1206.31 289.088 1232.91 288.466 1250.57 291.326C1251.32 278.893 1250.82 277.276 1250.82 277.276C1250.82 277.276 1238.51 273.049 1219.49 274.79C1200.46 276.53 1187.78 279.514 1179.45 287.969C1171 296.548 1163.16 308.608 1165.53 323.404C1167.89 338.2 1171.24 341.557 1171.24 341.557Z" fill="#AC3516"/>
<path d="M1266.98 406.458C1266.86 406.458 1266.86 406.458 1266.86 406.583C1255.42 401.858 1243.86 397.506 1232.42 392.782C1221.23 388.181 1214.89 386.689 1195.99 376.618C1175.1 365.677 1161.92 327.009 1172.61 300.526C1180.57 287.844 1190.89 280.509 1206.93 276.654C1209.91 275.908 1219.74 274.914 1221.23 274.914C1228.56 274.665 1235.53 275.411 1241.99 275.784C1242.86 275.908 1241.25 274.416 1241 274.416C1238.88 274.292 1237.02 274.292 1235.03 273.919C1234.53 273.919 1220.61 272.924 1205.93 275.411C1199.1 276.53 1191.89 278.644 1185.67 282.001C1177.71 286.477 1171 292.942 1166.4 298.661C1158.81 307.986 1158.69 330.491 1164.9 346.405C1168.88 356.849 1173.61 365.801 1181.57 373.386C1166.89 366.92 1148 361.325 1136.06 350.508C1127.73 342.8 1122.63 333.972 1121.02 323.777C1119.4 314.203 1120.77 299.532 1121.51 295.304C1122.13 291.077 1123.75 287.471 1125.49 284.736C1127.36 282.001 1130.46 278.271 1133.57 275.784C1137.05 273.173 1141.16 270.313 1146.13 269.816C1149.24 269.443 1155.33 269.567 1155.46 269.443C1158.69 269.567 1162.79 269.816 1166.02 270.065C1171.37 270.686 1203.08 274.416 1211.28 274.541C1211.65 274.541 1212.15 274.292 1211.78 274.168C1203.08 273.546 1184.43 271.184 1177.71 270.562C1167.27 269.567 1149.49 267.578 1142.52 268.697C1135.69 269.816 1127.6 275.038 1123.63 279.141C1117.53 285.233 1115.3 295.18 1114.43 302.516C1113.56 309.851 1114.67 333.723 1124 346.032C1134.44 359.709 1161.67 370.029 1168.01 372.515C1174.35 374.878 1201.58 387.56 1217.75 393.528C1230.93 398.377 1248.83 406.21 1256.17 408.448C1263.5 410.686 1283.52 417.773 1283.52 417.773L1292.22 416.156C1292.22 416.156 1270.84 407.702 1266.98 406.458Z" fill="#FF8D70"/>
<path d="M1230.8 431.822C1209.17 422.124 1188.16 411.182 1166.89 400.614C1146.88 390.543 1117.29 376.245 1113.68 351.129C1113.68 350.881 1113.18 350.881 1113.18 351.254C1113.06 361.076 1117.29 369.282 1123.63 376.245C1123.87 376.576 1124.17 376.908 1124.5 377.239C1133.57 386.937 1146.63 394.149 1157.2 399.744C1169.75 406.458 1182.44 413.172 1195.62 418.642C1207.05 423.491 1218.12 430.827 1230.06 434.433C1231.67 434.93 1232.29 432.568 1230.8 431.822Z" fill="#AC3516"/>
<path d="M1310 418.394L1312.11 340.81C1312.11 340.189 1312.61 339.816 1313.11 339.691L1345.56 338.572C1346.18 338.572 1346.68 339.07 1346.68 339.691L1347.05 358.341C1347.05 358.963 1347.55 359.46 1348.05 359.46L1357.25 359.336C1357.87 359.336 1358.37 358.839 1358.37 358.217L1358.24 338.572C1358.24 337.951 1358.74 337.453 1359.36 337.453H1359.98C1358.12 334.967 1355.26 333.102 1352.15 332.729C1350.16 332.48 1343.82 332.356 1341.33 334.345C1340.34 332.356 1338.85 330.615 1337.35 329.496C1333.38 326.636 1328.65 328.128 1325.05 330.615C1323.68 326.388 1318.7 323.155 1314.73 322.409C1312.61 322.036 1307.14 322.782 1305.15 325.02C1299.81 319.052 1287.12 316.317 1282.65 322.533C1282.27 315.944 1275.81 310.97 1269.59 309.478C1264.5 308.235 1256.41 310.1 1253.43 315.073C1250.45 311.841 1244.73 309.976 1241 310.473C1234.78 311.095 1227.82 315.571 1227.82 321.912C1226.08 318.928 1222.35 316.317 1219.86 315.695C1216.5 314.949 1210.29 317.311 1209.17 321.041C1206.8 317.063 1202.58 314.949 1196.98 315.322C1192.75 315.695 1187.91 318.555 1188.4 322.782C1187.82 322.616 1187.33 322.451 1186.91 322.285C1183.8 321.041 1180.82 320.544 1177.59 321.912C1174.73 323.155 1172.24 326.388 1171.12 329.247C1170.75 330.366 1170.62 331.485 1170.87 332.356C1170.79 333.185 1170.75 334.014 1170.75 334.842C1169.38 348.395 1178.58 364.061 1188.15 372.515C1203.32 385.695 1227.32 393.155 1245.97 399.123C1260.89 403.847 1273.94 411.68 1288.12 416.032C1292.35 417.275 1296.95 416.032 1301.42 416.529C1304.28 416.778 1307.02 418.27 1309.88 418.767L1310 418.394Z" fill="#5B0101"/>
<path d="M1442.66 413.297C1440.43 413.173 1438.44 431.076 1438.06 434.309C1437.57 437.542 1358.12 433.563 1358.12 433.563C1358.12 433.563 1358.86 414.54 1359.36 400.242C1352.27 388.555 1342.95 394.896 1339.34 397.755C1335.74 400.739 1317.09 415.908 1314.97 419.389C1313.48 418.022 1298.56 415.411 1291.35 416.281C1266.98 418.395 1201.83 443.883 1196.48 446.618C1176.22 457.311 1098.63 469.371 1051.51 477.204C1011.1 484.043 947.569 501.822 908.155 497.719C867.995 493.492 819.63 465.268 802.472 469.744C793.271 472.107 785.811 466.263 781.211 482.178C778.848 490.384 777.108 507.293 776.859 528.181C776.362 568.714 768.404 715.302 768.404 715.302L788.049 911.625L922.329 917.717L1263.87 929.529C1263.87 929.529 1147.62 767.025 1102.74 715.302C1059.72 665.818 1037.96 612.976 1033.48 584.379C1029.13 556.031 989.096 536.76 989.096 536.76C987.977 529.921 999.789 519.602 1007.99 517.861C1016.2 516.12 1047.28 538.998 1106.72 524.824C1132.58 518.607 1184.17 505.304 1234.03 490.384C1298.19 471.236 1357.62 451.218 1365.58 449.105C1392.68 441.769 1412.08 435.179 1425.88 437.915C1430.6 438.909 1433.84 439.904 1436.32 440.899C1438.93 442.018 1440.43 442.515 1443.78 442.266C1446.15 442.142 1446.89 437.791 1447.39 431.574C1447.89 425.855 1450.62 413.546 1450.62 413.546C1450.62 413.546 1444.78 413.421 1442.66 413.297Z" fill="#8A2D15"/>
<path d="M1060.71 654.876C1068.42 655.125 1451.74 663.704 1451.74 663.704L1450.62 413.545C1450.62 413.545 1448.26 422.994 1447.89 428.341C1447.64 432.071 1448.01 442.142 1443.28 442.39C1439.18 442.639 1426 436.298 1416.55 437.293C1398.4 439.158 1378.76 445.126 1358.61 451.218C1330.39 459.673 1285.01 474.717 1253.55 484.415C1215.01 496.351 1164.03 510.028 1118.4 521.839C1085.7 530.294 1066.31 529.299 1043.93 526.688C1027.76 524.823 1014.96 516.369 1007.62 517.736C993.696 520.596 987.728 536.138 989.593 537.132C1000.91 543.1 1014.21 551.182 1025.28 565.853C1035.22 578.908 1034.48 597.185 1040.94 612.478C1051.51 637.345 1057.73 651.643 1060.71 654.876Z" fill="#8A2D15"/>
<path d="M1451.12 413.172C1444.53 412.674 1443.16 437.044 1441.3 441.271C1435.2 439.282 1425.26 436.298 1418.42 436.795C1411.46 437.292 1393.05 440.401 1379.01 444.752C1354.88 450.099 1331.26 457.31 1308.26 466.013C1297.69 469.992 1266.36 479.69 1263.38 480.56C1248.83 485.161 1233.16 489.015 1218.37 492.745C1205.93 495.978 1193.62 499.956 1181.32 503.686C1175.6 505.427 1119.4 520.969 1096.52 524.077C1079.73 526.439 1060.34 529.05 1043.43 524.201C1038.83 521.839 1032.99 519.725 1028.26 517.487C1021.3 514.13 1016.08 513.384 1008.49 515.622C997.177 518.855 980.019 533.402 991.707 543.597C992.453 545.711 993.696 547.7 995.685 549.317C998.918 552.176 1003.89 554.166 1007.75 556.031C1011.23 557.523 1015.21 558.642 1018.94 557.647C1019.06 557.896 1020.68 562.496 1021.05 562.496C1031.74 564.734 1039.33 564.61 1049.4 564.734C1059.22 564.858 1068.92 565.107 1078.37 564.858C1097.39 564.112 1115.67 560.009 1134.07 555.658C1168.76 547.576 1202.08 535.391 1235.9 524.574C1267.23 514.379 1298.31 503.935 1329.27 492.372C1358.37 481.555 1389.2 477.328 1418.67 468.127C1419.83 467.878 1420.99 467.671 1422.15 467.505C1429.48 466.386 1432.72 467.381 1439.43 469.122C1442.91 470.116 1449.25 469.246 1450.75 467.257C1450.87 464.273 1451.12 415.037 1451.12 413.172Z" fill="#AC3516"/>
<path d="M969.202 544.219C945.703 547.452 829.327 537.381 827.587 543.971C826.841 546.706 840.517 607.256 858.546 681.359C863.768 702.993 871.601 725.124 879.185 749.494C907.036 838.019 921.831 921.447 923.075 919.333C923.945 917.965 1189.02 928.534 1189.02 928.534C1189.02 928.534 1056.98 747.629 1041.69 724.876C1021.42 694.787 1016.2 655.498 1008.74 620.684C1004.26 600.169 980.641 588.606 970.321 571.697C964.975 562.994 969.202 544.219 969.202 544.219Z" fill="#F0B84E"/>
<path d="M1358.61 427.47L1438.44 426.973C1438.44 426.973 1439.8 443.012 1436.2 440.774C1432.47 438.536 1424.76 436.919 1419.66 436.671C1417.3 436.671 1401.26 438.909 1382.86 443.758C1357.12 450.472 1329.77 460.543 1329.77 460.543C1329.77 460.543 1348.79 437.417 1351.78 436.298C1358.24 434.06 1358.61 427.47 1358.61 427.47Z" fill="#FFA33A"/>
<path d="M830.571 820.737C825.224 789.778 819.754 758.694 811.548 728.357C804.212 700.755 797.374 672.531 794.638 644.059C793.146 629.388 792.773 614.841 788.422 600.542C783.821 585.498 774.123 573.313 775.988 557.026C776.113 556.155 774.745 555.907 774.496 556.777C772.88 561.75 770.642 565.853 771.015 570.951C771.637 577.789 779.345 587.612 781.583 594.574C786.184 609.37 787.675 623.047 788.546 638.34C790.286 667.558 798.12 697.771 805.704 725.87C814.034 756.581 819.754 788.534 824.851 819.991C825.017 820.819 825.183 821.648 825.349 822.477C825.224 828.943 826.965 835.657 827.462 842.122C828.208 851.323 829.203 860.399 830.944 869.475C834.798 888.498 836.787 907.77 842.507 926.42C843.128 928.285 845.491 929.155 846.983 927.788C847.48 927.29 847.853 926.71 848.102 926.047C849.967 926.544 852.453 925.052 852.08 922.566C847.604 888.374 836.29 854.804 830.571 820.737Z" fill="#AC3516"/>
<path d="M1442.17 412.924C1441.17 415.162 1439.43 421.005 1439.18 424.362C1438.56 432.568 1438.56 441.147 1435.08 438.909C1429.98 435.801 1420.03 435.179 1413.94 436.05C1403.75 437.417 1396.41 438.661 1386.84 440.774C1358.61 447.24 1330.27 457.062 1301.42 465.641C1283.52 470.987 1229.56 486.902 1220.73 489.886C1207.55 494.238 1153.96 508.412 1140.53 511.644C1135.31 512.888 1122.38 516.12 1117.16 517.488C1096.64 522.71 1072.9 525.197 1062.33 525.321C1056.23 525.445 1052.01 525.694 1044.8 523.58C1041.81 522.71 1039.82 522.213 1034.6 519.85C1031.62 518.358 1025.52 513.634 1019.18 512.266C1011.1 510.525 991.954 510.774 978.775 524.824C974.796 529.051 967.958 533.403 970.569 537.008C973.802 541.484 983.127 545.836 986.857 549.193C1014.46 574.184 1012.22 587.612 1014.96 602.781C1019.06 626.528 1028.76 649.157 1046.66 676.51C1059.09 695.409 1116.54 773.117 1138.67 801.838C1171.62 844.36 1194.12 888.126 1223.84 932.886C1224.96 932.388 1263.62 936.989 1262.26 934.005C1253.55 914.982 1239.5 900.062 1231.05 886.634C1215.26 861.643 1188.77 825.959 1178.21 810.666C1166.27 793.508 1149.36 773.242 1145.13 767.398C1140.41 760.808 1124.37 744.396 1115.91 734.698C1107.58 725.125 1093.78 705.977 1082.22 688.571C1076.75 680.365 1068.05 666.812 1062.7 658.482C1057.23 649.903 1044.17 623.669 1038.33 601.289C1035.6 590.72 1033.61 576.795 1027.64 567.47C1022.54 559.388 1014.33 552.301 1006.63 546.706C1003.89 544.593 988.349 536.511 988.846 533.9C989.344 531.04 997.674 523.829 1001.4 520.969C1005.01 517.985 1009.49 514.753 1016.82 515.001C1024.53 515.25 1027.76 518.11 1033.23 519.975C1035.47 521.342 1039.33 522.71 1042.06 523.705C1051.01 527.062 1058.35 527.435 1067.92 527.31C1083.71 527.062 1098.51 525.072 1113.43 521.964C1131.83 518.11 1148.49 514.753 1166.52 509.779C1175.97 507.044 1237.26 489.389 1257.41 483.296C1294.33 472.106 1331.14 460.543 1368.06 449.353C1385.47 444.007 1409.34 436.298 1427.37 438.163C1434.95 438.909 1441.79 446.618 1444.53 442.515C1446.02 440.153 1446.02 434.931 1446.77 430.082C1448.13 421.876 1451.12 413.172 1451.12 413.172C1451.12 413.172 1445.03 413.048 1442.17 412.924Z" fill="#D34D2B"/>
<path d="M1359.86 401.236C1359.24 398.128 1357.87 396.387 1355.26 394.771C1352.15 392.657 1347.8 392.533 1344.19 393.527C1338.72 395.144 1334.12 399.993 1330.27 403.847C1324.8 409.318 1321.81 412.302 1316.84 416.529C1314.48 418.518 1310.87 418.27 1306.89 416.902C1302.42 415.41 1289.73 415.534 1282.03 417.151C1276.06 418.27 1270.21 419.637 1264.37 421.005C1261.39 421.668 1258.48 422.497 1255.67 423.492C1244.48 426.973 1233.41 431.325 1222.47 435.676C1208.54 441.396 1193.87 447.115 1179.33 451.342C1171.12 453.829 1142.52 461.786 1134.07 463.154C1113.18 466.387 1094.65 469.122 1080.98 471.36C1057.98 474.841 1050.89 476.582 1033.86 480.312C1016.45 484.042 963.483 493.616 948.936 494.61C937.124 495.481 931.032 497.719 915.366 497.346C899.576 496.973 888.386 494.486 875.828 490.259C861.903 485.41 839.523 476.085 831.938 473.349C824.478 470.738 810.926 465.019 799.487 467.008C794.141 467.879 780.837 473.225 781.708 482.053C782.329 489.388 790.535 498.092 796.752 516.617C805.704 560.383 812.418 600.667 819.878 643.437C824.478 669.547 829.825 695.533 836.166 721.021C844.993 756.208 853.821 787.54 863.519 822.477C872.347 854.307 875.828 887.255 880.801 919.955C881.174 922.193 925.561 920.701 925.561 920.701C925.561 920.701 906.663 840.133 905.419 833.792C899.824 805.941 878.439 742.78 870.233 715.053C863.27 691.554 849.967 645.924 845.615 625.036C839.523 596.066 832.063 566.102 827.338 537.008C825.224 524.575 818.51 502.692 809.185 488.642C805.828 483.545 798.741 476.831 799.239 474.344C799.736 471.733 804.212 469.868 809.807 469.992C817.143 470.241 822.24 472.852 822.365 472.728C842.755 479.566 862.4 488.269 883.164 494.237C894.105 497.346 905.295 498.962 916.609 499.335C927.924 499.708 940.481 498.838 953.163 497.594C965.97 496.351 981.138 494.362 994.069 491.253C1014.71 486.28 1069.91 475.587 1077.37 474.468C1090.68 472.479 1130.59 466.014 1137.05 464.895C1152.59 462.657 1167.89 458.927 1182.68 453.953C1190.64 451.591 1196.86 448.731 1205.93 445.25C1215.13 441.893 1240.25 431.946 1255.92 425.854C1267.48 422.248 1284.51 417.399 1291.35 417.275C1298.19 417.026 1304.65 417.648 1312.36 420.632C1315.6 421.875 1317.09 423.119 1321.19 422.87C1325.91 422.497 1325.79 419.264 1329.02 416.156C1333.37 411.68 1337.48 407.08 1341.08 402.355C1343.45 399.371 1347.92 395.392 1352.52 395.765C1357.62 396.387 1358.49 399.62 1359.86 401.236Z" fill="#D34D2B"/>
<path d="M830.075 773.614C829.909 773.614 829.784 773.573 829.702 773.49C829.08 773.366 828.582 773.614 828.334 774.236C827.588 776.847 827.339 780.08 827.339 782.815C827.339 786.296 826.842 790.026 827.837 793.259C827.837 793.632 828.334 793.632 828.458 793.259C829.577 790.399 829.453 787.042 829.453 784.058C829.453 782.069 829.577 780.453 829.95 778.588C829.95 778.588 830.447 775.106 830.199 775.231C830.82 774.858 830.821 773.863 830.075 773.614Z" fill="#313131"/>
<path d="M817.516 718.038C816.77 721.022 816.148 723.633 816.148 726.617C816.272 728.109 815.9 729.601 815.775 730.968C815.651 732.709 816.024 734.325 815.775 735.942C815.775 736.066 815.9 736.066 816.024 735.942C817.392 733.952 817.64 731.217 818.013 728.855C818.51 725.373 818.759 722.141 819.505 718.784C820.003 717.54 817.889 716.67 817.516 718.038Z" fill="#313131"/>
<path d="M809.559 669.796C809.683 668.553 807.445 668.304 807.445 669.796C807.197 674.894 805.829 680.986 807.072 685.96C807.197 686.457 807.694 686.457 807.943 685.96C809.559 681.111 809.435 675.018 809.683 669.796H809.559Z" fill="#313131"/>
<path d="M803.467 635.729C803.218 634.983 801.975 634.859 801.726 635.729C800.98 639.21 800.234 643.065 800.98 646.67C801.104 646.795 801.353 646.795 801.353 646.67C801.85 644.805 802.596 642.816 802.845 640.951C802.969 639.21 803.715 637.47 803.467 635.729Z" fill="#313131"/>
<path d="M796.256 599.921C795.137 601.413 795.261 603.526 795.385 605.267C795.468 607.837 795.551 610.365 795.634 612.851C795.634 612.976 795.883 612.976 795.883 612.851C796.256 608.624 796.629 604.397 797.25 600.294C797.25 599.672 796.504 599.548 796.256 599.921Z" fill="#313131"/>
<path d="M790.412 575.054C790.287 574.557 789.666 574.557 789.541 574.93C789.168 577.292 789.044 579.779 788.671 582.017C788.422 584.628 788.298 587.363 788.671 589.85C788.795 590.099 789.044 590.099 789.168 589.85C789.79 587.115 789.417 584.255 789.914 581.395C790.287 579.282 790.536 577.168 790.412 575.054Z" fill="#313131"/>
<path d="M791.656 509.158C791.656 508.536 790.785 508.536 790.661 509.158C789.169 522.586 787.677 536.76 788.672 550.188C788.672 550.312 788.92 550.312 788.92 550.188C790.785 537.008 792.277 522.586 791.656 509.158Z" fill="#313131"/>
<path d="M785.562 502.319C785.562 502.195 785.189 502.071 785.189 502.319C784.941 508.412 784.568 514.504 784.319 520.596C784.07 525.445 783.2 530.543 783.573 535.268C783.573 535.516 783.822 535.516 783.822 535.268C785.562 524.451 785.189 513.385 785.562 502.319Z" fill="#313131"/>
<path d="M798.866 526.191C798.99 525.321 797.622 525.197 797.498 526.191C797.249 535.143 797.995 544.095 796.752 553.047C795.882 559.264 794.638 565.481 795.011 571.697C795.011 571.946 795.26 571.946 795.26 571.697C796.255 564.983 797.622 558.269 798.368 551.431C799.363 542.976 798.617 534.522 798.866 526.191Z" fill="#313131"/>
<path d="M803.591 555.285C803.466 555.036 803.093 555.036 803.093 555.285C801.974 562.869 802.472 570.454 801.974 578.162C801.601 584.379 799.985 590.471 800.109 596.812C800.109 597.061 800.607 597.061 800.607 596.812C802.72 583.011 804.585 569.335 803.591 555.285Z" fill="#313131"/>
<path d="M810.18 599.673C810.18 598.678 808.688 598.678 808.688 599.673C808.191 611.36 806.077 622.799 805.58 634.486C805.58 634.735 805.829 634.735 805.829 634.486C806.326 628.891 808.067 622.674 809.061 617.079C810.18 611.36 810.056 605.516 810.18 599.673Z" fill="#313131"/>
<path d="M826.095 678.375C826.22 677.505 824.852 677.505 824.852 678.375C823.982 687.7 824.479 697.523 824.106 706.972C823.857 714.805 822.241 722.265 823.111 730.098C823.111 730.222 823.236 730.222 823.36 730.098C826.468 712.94 825.722 695.782 826.095 678.375Z" fill="#313131"/>
<path d="M860.659 907.025C860.535 906.527 860.286 906.154 859.789 906.154C857.178 906.154 857.924 911.749 858.297 913.366C858.421 913.987 859.664 914.112 859.789 913.366C859.913 912.247 859.913 911.128 859.913 910.009C859.913 909.511 860.037 908.89 860.162 908.392C860.286 907.895 860.659 907.522 860.659 907.025Z" fill="#313131"/>
<path d="M843.751 839.263C843.751 839.097 843.709 838.931 843.627 838.765C843.502 838.268 843.253 838.144 842.88 838.144C842.507 838.144 842.134 838.268 842.01 838.641C841.844 838.807 841.803 839.014 841.886 839.263C841.513 845.106 841.14 851.447 841.637 857.291C841.761 857.788 842.632 857.788 842.632 857.291C843.626 851.447 843.627 845.231 843.751 839.263Z" fill="#313131"/>
<path d="M802.099 482.924C799.737 481.68 797.25 480.81 794.639 481.183C791.779 481.556 786.806 483.545 786.309 486.778C786.309 486.902 786.433 486.902 786.433 486.902C788.671 485.659 791.904 484.042 794.515 483.669C796.255 483.296 798.245 483.794 799.985 484.416C801.477 484.913 803.467 485.286 804.71 486.281C805.083 486.529 805.705 486.156 805.58 485.659C805.083 484.167 803.342 483.67 802.099 482.924Z" fill="#313131"/>
<path d="M810.926 497.097C807.445 495.978 804.461 494.237 800.731 494.237C797.623 494.237 790.909 498.216 792.028 498.713C794.141 499.584 796.504 498.838 798.742 498.713C802.472 498.713 806.699 498.216 810.305 499.211C810.388 499.211 810.429 499.211 810.429 499.211C810.512 499.211 810.553 499.211 810.553 499.211C811.672 499.211 812.045 497.594 810.926 497.097Z" fill="#313131"/>
<path d="M823.237 518.109C823.112 517.736 822.988 516.866 822.491 516.742C822.242 516.742 816.274 513.012 809.436 513.012C806.7 513.012 802.473 514.006 799.986 515.001C798.37 515.747 796.008 517.239 796.629 519.353C797.127 520.472 797.748 520.72 799.116 520.596C799.613 520.472 799.613 519.974 799.24 519.726C799.489 519.809 799.779 519.767 800.111 519.601C801.727 518.731 811.052 518.607 813.29 518.855C816.398 519.104 821.993 520.72 822.864 520.223C823.485 519.974 823.237 518.234 823.237 518.109Z" fill="#313131"/>
<path d="M824.853 542.107C821.869 540.366 818.512 539.496 815.03 539.744C814.947 539.578 814.823 539.496 814.657 539.496C811.922 539.371 809.435 540.863 806.949 541.858C805.705 542.355 804.586 542.728 803.84 543.599C803.343 543.723 802.721 543.972 802.348 544.22C802.265 544.22 802.224 544.262 802.224 544.345C801.851 544.718 801.727 545.091 801.727 545.712C801.975 547.95 805.084 547.826 806.7 546.831C807.57 546.583 808.565 546.21 809.435 545.837C812.046 545.464 814.657 544.469 817.393 544.593C820.998 544.593 823.485 548.323 826.966 548.199C832.064 547.95 826.469 542.977 824.853 542.107Z" fill="#313131"/>
<path d="M836.788 579.157C836.912 578.535 836.539 578.038 836.042 577.541C835.959 577.375 835.876 577.292 835.793 577.292C835.71 577.126 835.586 577.043 835.42 577.043C833.182 575.551 828.333 574.681 824.976 574.184C824.354 573.935 823.608 573.935 822.862 573.935C822.489 573.935 822.116 573.935 821.992 573.935C819.63 573.811 813.164 574.93 810.056 577.416C809.434 577.541 808.44 577.541 807.942 578.038C807.072 578.908 807.196 580.152 807.445 581.271C807.445 581.768 807.569 582.182 807.818 582.514C807.818 582.597 807.818 582.638 807.818 582.638C807.818 582.763 808.067 582.887 808.191 582.887C808.688 583.26 809.434 583.384 810.056 583.26C813.662 582.638 816.77 580.152 820.376 579.281C824.852 578.038 830.198 578.908 834.052 581.395C834.301 581.519 834.55 581.519 834.798 581.519C835.42 581.892 835.917 582.265 836.539 581.644C837.161 581.146 837.036 580.152 836.788 579.157Z" fill="#313131"/>
<path d="M845.74 620.56C845.367 618.447 844.497 613.1 842.135 612.479C841.886 612.354 841.762 612.479 841.637 612.603C841.016 612.23 840.145 611.857 839.026 611.484C836.167 610.489 833.058 609.619 830.074 608.997C830.074 608.749 829.826 608.5 829.577 608.624C829.245 608.624 828.831 608.624 828.334 608.624C828.251 608.624 828.168 608.583 828.085 608.5C827.836 608.5 827.588 608.541 827.339 608.624C822.241 608.997 813.662 610.614 814.284 615.96C814.408 616.457 814.533 617.452 814.781 618.571C814.781 618.82 814.781 619.193 814.781 619.441C814.781 620.187 815.03 620.933 815.279 621.555C815.03 623.544 814.533 625.534 814.533 627.647C814.533 629.885 814.284 632.123 814.408 634.361C814.16 649.033 812.17 663.704 812.916 678.5C812.916 678.997 813.662 678.997 813.787 678.5C814.657 670.169 814.781 661.715 815.154 653.26C815.279 646.422 816.273 639.708 816.273 632.869C816.273 632.869 816.273 632.828 816.273 632.745C816.522 632.496 816.771 632.372 817.144 632.123C817.765 631.875 818.511 631.626 819.133 631.377C820.252 630.756 821.744 630.258 822.49 629.139C822.863 628.642 822.366 628.269 821.868 628.393C820.252 629.139 818.636 630.134 817.019 630.88C816.771 631.046 816.564 631.212 816.398 631.377C816.646 629.761 816.895 628.145 817.144 626.528C817.144 626.114 817.185 625.741 817.268 625.409C820.874 622.425 827.836 622.55 832.064 622.674C833.307 622.674 834.509 622.715 835.669 622.798C838.28 623.793 841.016 624.788 842.632 624.042C842.798 623.876 842.964 623.71 843.129 623.544C843.751 623.669 844.248 623.669 844.746 623.42C846.238 622.674 845.989 622.301 845.74 620.56Z" fill="#313131"/>
<path d="M856.806 667.185C856.309 664.699 855.936 663.58 853.573 662.585C852.33 661.093 850.341 659.974 848.6 659.352C845.492 658.233 841.886 656.866 838.405 657.363C836.167 657.487 834.053 658.109 832.064 658.855C830.447 659.477 826.22 660.72 824.977 662.212C823.236 664.201 823.485 670.418 824.728 672.656C824.977 672.905 825.35 673.153 825.723 673.153C828.334 673.153 830.82 671.786 833.431 671.413C838.902 670.667 844.373 670.542 849.843 671.413C850.714 671.537 851.46 671.537 852.081 671.413C853.449 671.661 855.563 672.034 856.557 671.164C857.552 670.169 857.055 668.304 856.806 667.185Z" fill="#313131"/>
<path d="M873.59 724.876C872.72 722.763 872.098 720.773 871.601 718.535C871.352 717.416 871.601 715.8 870.731 714.93C869.985 714.308 868.866 714.432 867.995 714.308C867.125 714.184 866.255 713.935 865.384 713.811C864.887 713.562 864.348 713.355 863.768 713.189C859.789 711.697 853.448 708.838 849.345 710.951C845.118 711.573 840.393 713.686 837.906 716.67C837.658 717.085 837.451 717.458 837.285 717.79C837.202 717.79 837.161 717.79 837.161 717.79C835.917 719.033 835.917 720.276 836.414 721.768C837.285 724.503 837.906 727.363 838.901 730.098C838.818 730.844 838.818 731.632 838.901 732.461C838.777 732.585 838.777 732.585 838.777 732.585C838.155 741.04 837.161 749.37 836.912 757.825C836.663 764.912 835.047 772.372 836.539 779.335C836.539 779.583 836.912 779.583 836.912 779.335C840.269 765.161 839.896 749.121 839.896 734.45C840.269 733.207 840.269 731.839 840.393 730.596C843.874 730.596 846.734 728.358 850.216 727.985C854.94 727.239 860.038 727.612 864.763 727.86C865.343 727.86 865.799 727.86 866.13 727.86C867.374 728.109 868.617 728.482 869.86 728.855C870.855 728.979 872.223 729.601 873.217 729.477C875.58 728.979 874.212 726.12 873.59 724.876Z" fill="#313131"/>
<path d="M888.262 774.361C885.03 771.501 878.813 769.263 873.715 768.89C870.234 768.02 866.877 769.512 863.644 770.755C860.163 772.123 856.184 772.993 853.076 774.982C852.993 774.899 852.869 774.899 852.703 774.982C850.838 775.231 849.968 777.469 850.962 779.334C850.962 779.417 850.962 779.541 850.962 779.707C851.211 780.95 852.454 784.68 853.698 786.918C853.2 795.746 853.2 804.201 852.33 813.028C851.584 819.742 850.838 826.705 850.714 833.543C850.216 837.273 848.6 844.236 850.465 847.22C855.19 840.879 855.811 833.916 856.682 826.456C857.676 817.629 859.914 808.304 858.298 799.6C858.049 798.73 857.801 797.113 857.055 796.367C857.179 795.621 856.184 795 855.438 795.373C855.521 793.301 855.521 791.228 855.438 789.156C855.604 789.239 855.728 789.281 855.811 789.281C856.806 789.156 857.801 788.908 858.795 788.535C861.158 787.789 863.893 786.172 865.509 785.675C871.477 784.307 876.326 784.805 881.3 785.675C883.165 786.297 884.905 787.042 887.019 787.042C887.143 787.042 887.268 786.918 887.392 786.918C888.304 787.084 889.257 787.291 890.252 787.54C890.5 787.54 892.863 787.664 892.863 787.291C892.241 783.561 891.246 776.972 888.262 774.361Z" fill="#313131"/>
<path d="M923.325 916.473C923.449 914.484 922.579 912.992 920.962 912.495C920.714 912.246 920.465 912.039 920.217 911.873C915.492 906.9 907.41 904.662 900.945 905.781C900.365 905.864 899.826 905.988 899.329 906.154C898.5 906.237 897.712 906.361 896.966 906.527C893.361 907.273 883.787 910.008 881.052 914.111C880.72 914.36 880.513 914.691 880.43 915.106C880.306 915.23 880.43 915.23 880.43 915.354C880.347 915.603 880.306 915.852 880.306 916.1C880.057 916.846 880.554 917.841 881.549 917.965C889.009 918.836 896.345 919.457 903.805 919.084C908.654 918.96 915.741 919.582 920.838 918.338C921.418 918.256 922.04 918.131 922.703 917.965C922.952 917.841 923.201 917.717 923.201 917.468C923.201 917.385 923.201 917.302 923.201 917.219C923.366 916.971 923.408 916.722 923.325 916.473Z" fill="#313131"/>
<path d="M908.156 845.231C907.907 843.988 908.405 841.999 907.907 840.631C907.907 840.382 907.908 840.134 907.659 840.009C907.576 839.926 907.493 839.885 907.41 839.885C906.416 838.393 904.302 837.771 902.312 837.274C899.701 836.279 896.966 835.285 894.479 834.539C890.003 833.047 885.528 832.922 880.927 834.414C877.446 835.533 870.856 836.777 868.245 839.761C866.256 842.247 867.499 843.491 868.369 846.35C868.452 847.345 868.535 848.298 868.618 849.21C868.494 851.199 867.872 853.562 868.991 855.178C869.074 855.178 869.116 855.219 869.116 855.302C868.991 857.167 869.116 859.157 869.116 861.146C869.24 864.752 869.364 868.606 869.489 872.336C869.489 872.336 869.489 872.377 869.489 872.46C869.737 879.837 869.737 887.214 869.489 894.592C869.489 897.7 867.499 914.734 869.986 914.609C869.613 912.993 870.11 911.004 870.359 909.139C870.359 909.387 870.359 909.594 870.359 909.76C870.359 911.75 869.364 915.107 872.099 914.734C872.472 912.869 874.835 892.975 873.84 892.851C874.213 892.851 874.71 892.727 874.586 892.229C874.089 886.634 872.472 880.915 871.851 875.32C871.768 874.408 871.685 873.496 871.602 872.585C871.602 872.087 871.353 871.714 871.105 871.59C871.105 867.238 870.98 862.887 870.607 858.659C870.607 857.665 870.607 856.628 870.607 855.551C877.943 852.691 882.792 849.086 891.247 849.583C896.966 849.832 902.188 851.821 907.783 852.691C908.405 852.691 909.026 852.07 909.026 851.448C909.151 849.086 908.405 847.594 908.156 845.231Z" fill="#313131"/>
<path d="M828.209 634.112C825.598 635.356 822.863 636.102 820.376 637.469C819.506 637.967 816.646 638.464 816.646 639.832C816.646 639.832 816.646 639.956 816.771 639.832C816.771 639.707 819.755 638.961 819.506 639.086C820.749 638.713 821.744 638.091 822.863 637.718C824.852 636.972 827.09 636.35 828.582 634.734C828.955 634.485 828.582 633.988 828.209 634.112Z" fill="#313131"/>
<path d="M830.945 646.919C829.577 647.043 828.209 647.789 826.966 648.287C825.723 648.701 824.521 649.157 823.36 649.654C821.247 650.649 820.252 651.768 820.625 653.882C820.625 653.757 820.501 653.757 820.501 653.882C820.376 654.255 820.376 654.255 820.625 654.628C820.749 654.876 820.998 654.752 821.122 654.628C821.495 653.384 821.744 652.141 822.863 651.395C823.733 650.773 824.852 650.525 825.847 650.152C827.712 649.53 829.826 649.033 831.318 647.789C831.566 647.541 831.442 646.919 830.945 646.919Z" fill="#313131"/>
<path d="M830.696 685.337C830.323 685.71 829.577 685.71 829.204 685.959C828.706 686.208 828.209 686.581 827.836 687.078C826.966 687.948 826.966 688.943 827.09 690.062C827.09 690.435 827.712 690.435 827.836 690.062C828.209 688.321 828.831 687.451 830.447 686.829C831.069 686.581 831.317 686.332 831.442 685.71C831.442 685.337 830.944 685.089 830.696 685.337Z" fill="#313131"/>
<path d="M838.156 697.647C837.285 698.02 836.415 698.02 835.545 698.393C834.55 698.766 833.431 699.388 832.436 700.009C831.566 700.631 830.198 701.874 830.82 703.118C830.944 703.366 831.317 703.367 831.442 702.994C831.815 701.377 834.053 700.631 835.545 700.009C836.539 699.512 838.031 699.512 838.777 698.393C839.026 697.896 838.529 697.399 838.156 697.647Z" fill="#313131"/>
<path d="M850.092 739.174C848.973 739.05 848.103 739.548 847.108 740.169C846.238 740.791 845.243 741.164 844.372 741.785C842.756 742.904 842.632 744.894 843.005 746.759C843.129 747.256 843.751 747.256 843.875 746.759C843.999 746.137 843.999 745.515 844.124 744.894C844.372 743.65 844.994 743.029 846.113 742.531C847.481 741.91 848.724 740.915 850.216 740.418C850.962 740.169 850.838 739.299 850.092 739.174Z" fill="#313131"/>
<path d="M854.443 755.711C853.449 755.462 852.827 755.835 851.832 756.084C850.713 756.457 849.594 756.706 848.475 757.079C847.356 757.576 846.362 758.571 846.859 759.69C846.983 759.814 847.108 759.814 847.232 759.814C847.978 758.322 849.097 758.322 850.589 757.949C851.832 757.452 853.076 756.954 854.443 756.581C854.816 756.457 854.816 755.835 854.443 755.711Z" fill="#313131"/>
<path d="M881.797 806.438C880.553 806.189 879.559 806.438 878.44 806.811C877.196 807.308 875.829 807.681 874.461 807.93C874.212 808.054 874.088 808.676 874.461 808.676C875.58 808.925 876.699 808.676 877.818 808.303C879.144 807.971 880.47 807.64 881.797 807.308C882.17 807.184 882.17 806.562 881.797 806.438Z" fill="#313131"/>
<path d="M875.579 827.948C874.709 827.699 874.212 827.824 873.217 828.072C871.849 828.57 870.606 828.943 869.238 829.191C867.125 829.689 865.135 830.435 863.519 831.927C863.395 831.927 863.519 832.051 863.519 832.051C865.508 831.305 867.871 830.808 869.984 830.435C871.974 830.062 873.714 829.44 875.704 828.694C876.077 828.57 875.952 828.072 875.579 827.948Z" fill="#313131"/>
<path d="M895.971 883.027C895.225 883.027 894.852 883.152 894.231 883.525C893.236 884.022 892.241 884.395 891.247 884.768C890.128 885.265 889.009 885.39 888.138 886.011C887.144 886.633 886.522 887.628 885.527 888.125C885.527 888.249 885.527 888.374 885.652 888.374C886.398 887.876 887.019 887.379 887.89 887.006C888.884 886.633 890.003 886.633 890.998 886.26C891.993 886.011 892.904 885.721 893.733 885.39C894.604 885.017 895.225 884.271 896.096 884.022C896.593 883.898 896.593 883.027 895.971 883.027Z" fill="#313131"/>
<path d="M826.84 472.852C825.846 471.112 822.862 469.62 820.748 470.614C819.878 470.987 819.38 471.733 819.132 472.604C819.132 472.604 819.132 472.645 819.132 472.728C818.883 473.391 818.759 474.137 818.759 474.966C818.013 478.572 818.883 485.907 819.256 490.135C819.132 491.378 819.132 492.497 819.505 493.74C819.339 497.719 819.173 501.739 819.007 505.801C819.007 506.298 818.966 506.837 818.883 507.417C819.505 509.655 821.245 514.255 821.867 515.374C822.737 515.623 823.608 515.499 824.602 514.877C826.467 513.758 825.97 512.266 826.094 510.277C826.84 503.687 827.338 496.973 827.586 490.259C827.711 485.783 828.954 477.08 826.84 472.852Z" fill="#313131"/>
<path d="M860.285 484.415C860.037 483.793 852.079 480.063 850.09 480.436C849.344 480.685 847.976 481.804 848.101 482.301C848.225 482.674 849.095 483.296 849.344 483.296C849.593 487.772 848.722 492.372 848.598 496.973C848.474 500.33 847.852 504.557 848.847 507.79C850.339 512.639 854.815 513.26 855.934 508.038C856.928 503.438 857.177 498.216 857.426 493.491C857.55 491.751 858.172 488.642 858.047 486.031C859.166 485.41 860.907 485.658 860.285 484.415Z" fill="#313131"/>
<path d="M886.272 493.367C884.78 493.243 877.444 490.508 877.32 490.881C876.822 497.346 876.325 505.179 876.201 511.644C876.201 515.126 875.579 519.85 876.574 523.207C877.32 525.445 879.06 527.932 881.671 526.44C886.272 523.705 884.78 511.893 884.78 508.287C884.904 503.438 884.655 499.708 885.774 495.357C886.023 494.611 886.147 494.113 886.272 493.367Z" fill="#313131"/>
<path d="M915.614 497.346C913.251 496.973 903.678 496.227 902.434 496.475C900.072 496.848 901.937 499.459 902.061 501.324C902.061 501.449 902.061 501.449 902.186 501.573C902.186 504.06 902.061 506.795 902.061 507.168C902.061 510.276 901.937 513.385 902.061 516.493C902.061 519.353 901.937 528.305 906.662 528.056C911.386 527.807 909.894 519.104 910.019 516.12C910.143 513.26 909.024 503.935 911.013 501.449C912.381 499.957 914.495 500.33 915.738 498.092C915.987 497.719 916.111 497.346 915.614 497.346Z" fill="#313131"/>
<path d="M942.471 514.006C942.72 511.893 942.098 509.282 941.849 507.168C941.601 504.806 941.601 497.221 939.238 495.978C937.249 494.983 932.524 496.475 930.286 496.848C929.913 496.973 929.789 497.47 930.038 497.719C930.12 498.548 930.245 499.335 930.411 500.081C930.411 501.822 930.908 503.562 931.281 505.303C931.53 507.914 931.903 510.525 932.151 512.887C932.4 517.363 931.778 524.948 934.389 528.802C935.384 530.045 936.752 531.04 938.492 530.17C939.984 529.424 940.233 527.434 940.109 525.445C940.482 524.575 940.233 523.207 940.357 522.337C940.482 520.223 940.855 518.731 941.601 516.617C941.849 515.498 942.347 515.623 942.471 514.006Z" fill="#313131"/>
<path d="M981.637 505.676C982.01 501.075 981.264 495.605 979.772 491.75C979.399 490.756 979.399 490.631 978.28 490.507C977.161 490.383 974.301 491.129 973.306 491.253C971.939 491.377 970.571 491.626 969.328 492.123C969.203 492.123 969.203 492.123 969.203 492.248C969.079 492.248 968.955 492.248 968.955 492.372C968.955 492.455 968.955 492.496 968.955 492.496C968.83 492.123 968.333 492.496 968.582 492.745C968.582 492.745 968.582 492.787 968.582 492.869C968.664 492.869 968.706 492.869 968.706 492.869C967.587 493.615 970.447 503.189 970.695 504.681C970.944 506.795 971.193 509.157 971.566 511.519C971.648 512.017 971.69 512.473 971.69 512.887C972.063 516.12 971.566 522.709 975.42 523.455C975.793 523.455 976.042 523.455 976.166 523.207C977.161 521.715 977.036 520.471 976.912 518.731C976.788 515.871 975.047 512.017 978.155 509.654C978.238 509.572 978.404 509.53 978.653 509.53C979.399 509.654 980.145 509.654 980.891 509.157C981.015 509.157 981.264 509.033 981.264 508.908C981.264 508.826 981.264 508.743 981.264 508.66C981.885 507.914 981.761 506.67 981.637 505.676Z" fill="#313131"/>
<path d="M1019.81 486.28C1019.56 485.286 1019.31 484.167 1018.44 483.794C1017.82 483.545 1017.07 483.918 1016.45 484.042C1015.7 484.167 1014.83 484.167 1013.96 484.167C1012.47 484.415 1011.1 484.788 1009.61 485.161C1009.36 485.161 1009.24 485.41 1009.36 485.534C1009.24 485.659 1009.24 485.907 1009.24 486.032C1010.11 487.399 1010.61 488.767 1010.98 490.135C1011.23 494.486 1012.84 499.087 1013.22 503.19C1013.34 505.055 1013.22 511.396 1015.58 512.017C1018.81 513.012 1017.57 504.557 1016.57 500.827C1017.57 498.092 1021.3 499.708 1021.42 496.351C1021.42 496.268 1021.42 496.227 1021.42 496.227C1021.8 493.616 1020.55 488.767 1019.81 486.28Z" fill="#313131"/>
<path d="M1055.61 490.756C1055.53 489.513 1055.32 488.311 1054.99 487.151C1054.91 486.156 1054.83 485.244 1054.74 484.415C1054.49 482.177 1054.12 479.318 1052.63 477.577C1051.76 476.458 1050.89 476.707 1049.52 476.955C1047.53 477.328 1045.54 477.95 1043.43 478.323C1043.3 478.447 1043.18 478.572 1043.18 478.82C1043.06 478.82 1042.93 479.069 1043.06 479.193C1043.43 480.312 1043.93 481.431 1044.42 482.55C1044.8 484.291 1045.54 486.156 1045.79 487.897C1046.04 490.632 1046.04 493.492 1046.41 496.227C1046.66 498.092 1046.66 502.941 1049.4 502.941C1049.52 502.941 1049.77 502.941 1049.89 502.692C1050.89 501.076 1050.76 498.465 1050.64 496.351C1052.26 495.854 1053.62 495.357 1054.62 494.486C1054.74 494.486 1054.87 494.362 1054.99 494.362C1055.24 494.238 1055.24 493.989 1055.12 493.74C1055.61 493.119 1055.86 492.124 1055.61 490.756Z" fill="#313131"/>
<path d="M1133.94 470.739C1133.7 469.495 1133.57 468.252 1133.32 467.009C1133.07 466.138 1133.07 464.522 1132.45 463.9C1131.46 462.906 1129.97 463.527 1128.85 463.652C1127.11 463.9 1125.49 464.273 1123.75 464.771C1123.75 464.771 1123.71 464.771 1123.62 464.771C1123.5 464.771 1123.5 464.771 1123.5 464.895C1123.42 464.812 1123.33 464.812 1123.25 464.895C1123 465.765 1123.62 467.133 1123.75 468.003C1123.91 468.584 1124.04 469.205 1124.12 469.868C1123.87 472.106 1124.49 474.842 1124.62 476.582C1124.74 479.069 1124.74 481.556 1124.99 483.918C1125.12 484.54 1125.24 486.28 1125.99 486.778C1127.48 487.648 1128.22 485.783 1128.35 484.664C1128.72 483.048 1128.72 481.307 1128.97 479.691C1129.22 478.074 1128.97 477.826 1130.84 477.204C1131.08 477.08 1133.45 476.582 1133.57 476.458C1133.74 476.458 1133.86 476.375 1133.94 476.209C1133.94 476.209 1134.07 476.209 1134.07 476.085C1134.81 474.469 1134.32 472.479 1133.94 470.739Z" fill="#313131"/>
<path d="M1168.63 473.474C1168.76 472.106 1167.89 470.366 1167.51 468.998C1167.39 467.879 1167.27 466.76 1167.14 465.517C1167.27 464.149 1166.89 462.657 1166.64 461.414C1166.4 459.922 1165.9 457.684 1164.65 456.565C1163.78 455.819 1162.54 456.192 1161.55 456.44C1160.63 456.689 1159.72 456.938 1158.81 457.186C1158.64 457.269 1158.48 457.352 1158.31 457.435C1157.57 457.601 1156.86 457.767 1156.2 457.932C1156.03 458.015 1155.95 458.098 1155.95 458.181C1155.87 458.181 1155.79 458.223 1155.7 458.305C1155.62 458.223 1155.54 458.264 1155.45 458.43C1155.45 458.347 1155.45 458.305 1155.45 458.305C1155.33 458.305 1155.21 458.305 1155.21 458.43C1155.21 458.803 1155.33 458.803 1155.58 459.176C1155.58 459.259 1155.62 459.3 1155.7 459.3C1156.95 462.408 1157.69 465.641 1158.56 468.874C1158.73 469.62 1158.89 470.366 1159.06 471.112C1159.43 474.096 1159.93 477.204 1160.55 480.064C1160.8 481.307 1161.3 483.669 1163.16 483.048C1165.15 482.426 1164.65 478.074 1164.9 476.582C1164.9 476.5 1164.9 476.417 1164.9 476.334C1166.27 475.09 1168.63 476.085 1168.63 473.474Z" fill="#313131"/>
<path d="M1096.77 469.868C1096.77 469.744 1096.64 469.495 1096.39 469.495C1094.28 468.998 1090.68 469.62 1088.31 470.49C1087.9 470.49 1087.53 470.531 1087.19 470.614C1087.19 470.614 1087.15 470.614 1087.07 470.614C1087.07 470.531 1087.03 470.531 1086.95 470.614C1086.95 470.614 1086.95 470.573 1086.95 470.49C1086.95 470.573 1086.9 470.614 1086.82 470.614C1086.7 470.614 1086.7 470.739 1086.7 470.739C1086.57 470.863 1086.57 471.111 1086.57 471.236C1086.82 471.857 1087.19 472.604 1087.57 473.35C1087.57 473.723 1087.69 474.096 1087.82 474.593C1087.82 478.945 1088.56 483.421 1089.06 487.524C1089.43 491.129 1088.93 495.73 1090.43 498.962C1090.68 499.46 1091.3 499.335 1091.67 498.962C1093.53 496.6 1093.04 491.875 1092.91 488.642C1094.16 487.523 1096.89 488.891 1098.01 487.772C1098.26 487.772 1098.38 487.524 1098.51 487.275C1099.13 481.804 1098.38 475.09 1096.77 469.868Z" fill="#313131"/>
<path d="M1340.21 425.482C1340.21 425.399 1340.17 425.316 1340.09 425.233C1340.59 424.984 1340.21 417.897 1340.09 416.903C1340.01 414.416 1339.84 411.929 1339.59 409.443C1339.47 407.951 1339.72 405.34 1338.47 404.221C1336.86 402.604 1333.37 403.226 1331.51 403.102C1331.51 402.977 1331.26 402.853 1331.14 402.977C1330.89 403.226 1330.51 403.599 1330.27 403.972C1330.18 404.055 1330.18 404.138 1330.27 404.221C1330.39 404.345 1330.76 404.469 1331.01 404.469C1331.14 404.594 1331.26 404.718 1331.39 404.718C1332.5 404.718 1334 404.594 1335.12 404.842C1337.97 405.34 1337.48 406.334 1337.73 408.324C1337.85 410.313 1337.97 412.302 1338.1 414.292C1338.35 418.27 1338.1 422.125 1339.47 425.855C1339.72 426.352 1340.46 426.103 1340.21 425.482Z" fill="#313131"/>
<path d="M1347.05 407.453C1346.93 405.588 1346.8 403.723 1346.55 401.858C1346.31 400.366 1346.31 398.749 1344.94 397.755C1343.45 396.884 1340.59 396.263 1338.85 396.387C1338.72 396.387 1338.6 396.636 1338.72 396.76C1339.34 397.382 1340.71 397.506 1341.58 397.63C1342.33 397.879 1343.07 398.003 1343.69 398.501C1345.44 399.62 1344.94 401.733 1345.06 403.474C1345.19 404.966 1345.31 406.582 1345.44 408.074C1345.81 411.68 1346.31 415.161 1346.68 418.643C1346.68 419.14 1347.55 419.264 1347.67 418.767C1348.3 414.788 1347.42 411.307 1347.05 407.453Z" fill="#313131"/>
<path d="M1353.52 405.712C1353.39 402.728 1353.39 399.744 1353.27 396.76C1353.27 395.641 1351.65 395.641 1351.65 396.76C1351.9 402.355 1352.27 407.826 1352.77 413.421C1352.77 413.918 1353.52 414.042 1353.64 413.421C1354.01 410.934 1353.64 408.323 1353.52 405.712Z" fill="#313131"/>
<path d="M1359.36 405.96C1359.24 403.971 1359.24 401.982 1359.11 399.868C1358.99 399.619 1358.49 399.619 1358.37 399.868C1358.12 401.733 1358.12 403.474 1358.37 405.214C1358.61 407.701 1358.37 410.063 1358.74 412.426C1358.74 412.55 1358.86 412.55 1358.86 412.426C1359.36 410.312 1359.61 408.198 1359.36 405.96Z" fill="#313131"/>
<path d="M1333.5 428.963C1333.25 425.357 1333.37 421.627 1333.13 417.897C1333 416.156 1332.88 413.421 1331.51 412.053C1330.89 411.307 1329.4 410.81 1328.53 410.561C1328.28 410.437 1326.78 410.437 1326.04 410.313C1325.96 410.313 1325.91 410.313 1325.91 410.313C1325.29 410.064 1324.55 409.815 1323.92 410.188C1323.8 410.313 1323.68 410.437 1323.8 410.686C1323.8 411.059 1324.05 411.059 1324.42 411.183C1325.29 411.556 1326.16 411.805 1327.03 412.178C1327.53 412.551 1327.9 412.924 1328.28 413.297C1328.28 413.462 1328.32 413.587 1328.4 413.67C1329.02 417.524 1329.02 421.503 1329.64 425.357C1330.02 427.595 1329.77 431.698 1332.13 433.066C1332.38 433.19 1332.75 433.19 1333 432.941C1333.87 431.822 1333.62 430.33 1333.5 428.963Z" fill="#313131"/>
<path d="M1316.84 428.589C1316.84 427.222 1316.84 425.481 1316.59 423.865C1316.34 422.497 1315.97 421.254 1315.47 420.011C1315.22 419.389 1315.1 417.897 1314.35 417.648C1313.73 417.4 1313.11 418.146 1312.24 417.897L1312.11 418.021C1312.03 418.104 1311.99 418.146 1311.99 418.146C1311.99 418.228 1311.99 418.27 1311.99 418.27C1312.15 418.27 1312.28 418.311 1312.36 418.394C1312.28 418.477 1312.24 418.56 1312.24 418.643C1312.24 418.394 1312.11 418.27 1311.99 418.146C1311.86 418.021 1311.74 418.146 1311.74 418.27C1311.99 419.389 1312.61 420.508 1312.86 421.751C1312.86 422.124 1312.86 422.746 1313.11 423.119C1313.11 423.492 1313.11 423.865 1313.11 423.989C1313.11 425.357 1313.36 426.725 1313.48 428.092C1313.61 429.336 1313.61 430.703 1313.61 431.947C1313.61 433.687 1313.61 435.304 1313.61 436.92C1313.73 439.407 1313.11 444.256 1315.22 446.245C1315.59 446.494 1316.22 446.494 1316.34 445.872C1317.58 440.277 1316.96 434.309 1316.84 428.589Z" fill="#313131"/>
<path d="M1304.9 435.676C1304.9 431.822 1304.28 427.967 1303.91 424.237C1303.78 422.372 1304.53 418.145 1303.16 416.529C1302.42 415.783 1301.05 415.658 1300.05 415.534C1298.69 415.41 1295.95 414.291 1296.45 416.653C1297.07 419.886 1297.69 423.118 1298.19 426.227C1298.69 429.459 1299.56 432.941 1299.43 436.173C1299.56 438.038 1299.68 445.374 1303.41 443.758C1305.15 442.887 1304.9 437.044 1304.9 435.676Z" fill="#313131"/>
<path d="M1282.4 421.876C1282.32 421.462 1282.23 421.089 1282.15 420.757C1282.02 420.384 1281.9 419.887 1281.78 419.389C1281.53 418.892 1281.15 417.649 1280.66 417.4C1279.91 417.027 1278.54 417.524 1277.92 417.649C1276.43 417.897 1274.94 418.395 1273.45 418.768C1273.2 418.768 1273.07 419.016 1273.2 419.265C1273.32 419.514 1273.57 419.762 1273.69 419.887C1273.86 420.301 1274.03 420.633 1274.19 420.881C1274.32 421.13 1275.19 426.725 1275.31 427.471C1275.93 430.082 1276.43 432.817 1276.93 435.553C1277.42 438.785 1277.3 443.261 1279.54 445.872C1279.79 446.121 1280.16 446.121 1280.41 445.997C1281.78 445.375 1281.53 444.007 1281.78 442.64C1281.9 441.769 1282.15 441.023 1282.52 440.153C1285.63 435.428 1283.64 426.725 1282.4 421.876Z" fill="#313131"/>
<path d="M1257.9 432.195C1257.53 429.833 1256.54 426.849 1253.93 425.854C1253.93 425.854 1253.88 425.895 1253.8 425.978C1253.47 425.73 1253.1 425.564 1252.68 425.481C1251.07 425.232 1247.96 425.605 1246.84 426.849C1246.71 426.849 1246.84 426.973 1246.96 426.973C1246.84 427.097 1246.84 427.222 1246.96 427.346C1249.57 429.211 1250.2 434.433 1250.82 437.417C1251.31 440.401 1251.07 443.385 1251.69 446.369C1252.31 449.85 1252.68 453.083 1257.16 451.591C1258.4 451.218 1259.02 450.348 1259.27 449.353C1259.52 448.856 1259.77 448.358 1259.89 447.737C1259.89 447.571 1259.89 447.405 1259.89 447.239C1260.52 442.39 1258.9 436.92 1257.9 432.195Z" fill="#313131"/>
<path d="M1230.92 448.234C1230.8 447.364 1230.68 446.493 1230.55 445.499C1230.63 445.499 1230.63 445.457 1230.55 445.374C1230.55 445.208 1230.51 445.001 1230.43 444.753C1230.34 444.421 1230.26 444.048 1230.18 443.634C1230.05 443.012 1229.81 442.639 1229.68 442.142C1228.69 439.531 1227.19 436.671 1225.33 435.552C1224.09 434.806 1223.09 435.552 1221.85 436.049C1220.23 436.547 1218.86 436.671 1217.62 437.79C1217.5 438.039 1217.5 438.163 1217.62 438.287C1217.79 438.37 1217.91 438.453 1217.99 438.536C1217.91 438.536 1217.87 438.536 1217.87 438.536C1220.23 444.753 1222.97 450.472 1224.21 456.937C1224.71 459.175 1224.58 464.273 1227.07 465.392C1227.44 465.516 1227.94 465.143 1227.94 464.77C1227.94 463.154 1227.19 458.802 1227.94 457.435C1228.31 456.564 1228.81 456.191 1229.43 455.943C1230.18 455.818 1230.8 455.445 1231.17 454.699C1231.17 454.699 1231.21 454.658 1231.3 454.575C1231.55 454.202 1231.55 453.705 1231.55 453.207C1231.55 453.207 1231.55 453.166 1231.55 453.083C1231.79 451.467 1231.3 449.85 1230.92 448.234Z" fill="#313131"/>
<path d="M1199.84 460.419C1199.22 457.559 1198.6 454.699 1197.98 451.84C1197.73 450.969 1197.6 450.099 1197.11 449.229C1195.86 447.239 1193 447.115 1190.89 447.364C1189.27 447.612 1188.03 448.234 1186.41 448.731C1186.29 448.731 1186.29 448.856 1186.29 448.98C1186.04 449.104 1185.92 449.602 1186.16 449.726C1189.4 451.84 1189.77 457.186 1190.52 460.667C1191.26 464.024 1192.01 467.381 1193 470.614C1193.38 472.106 1194.62 477.328 1197.35 475.339C1198.22 474.717 1197.85 473.349 1198.1 472.479C1198.72 470.241 1200.59 468.873 1201.08 466.76C1201.46 464.77 1200.46 462.532 1199.96 460.543C1199.96 460.543 1199.92 460.502 1199.84 460.419Z" fill="#313131"/>
<path d="M1327.16 429.957C1326.66 427.097 1326.54 423.491 1325.54 420.88C1324.92 419.388 1323.55 418.394 1322.31 417.772C1320.82 417.026 1318.95 415.907 1317.33 416.28C1317.83 416.653 1318.45 416.902 1319.08 417.15C1319.82 418.021 1320.69 418.642 1321.56 419.264C1323.8 421.129 1323.8 423.243 1324.17 425.978C1324.67 430.33 1325.79 434.308 1326.66 438.536C1326.66 438.784 1326.91 438.909 1327.16 438.784C1327.24 438.784 1327.36 438.784 1327.53 438.784C1327.65 438.784 1327.78 438.66 1327.78 438.411C1328.4 435.676 1327.65 432.692 1327.16 429.957Z" fill="#313131"/>
<path d="M1464.92 486.901C1456.34 488.02 1450.5 494.61 1449.13 503.065C1448.96 503.977 1448.84 504.93 1448.76 505.924C1437.44 498.589 1420.53 500.329 1409.59 508.908C1400.76 515.747 1393.18 528.802 1393.18 540.613C1386.22 537.629 1377.89 538.127 1370.68 543.1C1363.71 548.073 1356.38 554.414 1354.39 563.118C1352.77 570.702 1353.77 579.281 1355.01 587.238C1352.03 583.757 1348.92 580.276 1344.44 578.162C1336.24 574.059 1326.54 572.691 1317.59 574.556C1305.03 577.043 1298.56 587.487 1295.45 598.926C1288.24 584.752 1276.8 572.691 1261.26 569.956C1243.11 566.723 1221.6 576.546 1214.26 593.455C1209.04 581.022 1198.47 568.215 1185.79 571.448C1170.13 575.427 1155.95 586.865 1150.85 601.785C1144.02 588.979 1129.97 579.53 1115.42 583.384C1107.09 585.622 1101 592.212 1097.64 599.92C1093.79 608.624 1093.91 615.338 1095.03 622.922C1093.79 621.803 1092.29 620.684 1090.3 619.814C1085.83 617.824 1080.73 617.078 1075.76 617.451C1067.18 618.073 1058.47 622.549 1054 630.133C1052.76 632.247 1051.88 634.609 1051.51 636.972C1055.99 646.545 1060.22 654.503 1062.7 658.481C1066.68 664.574 1072.4 673.526 1077.25 681.11C1082.22 683.224 1088.19 683.721 1093.29 684.218C1114.92 686.208 1136.56 682.975 1158.19 683.845C1180.32 684.716 1202.45 685.959 1224.58 686.083C1247.59 686.208 1270.21 687.575 1293.22 688.446C1334.12 689.938 1376.77 692.549 1417.42 687.824C1433.84 685.959 1450.62 684.964 1467.03 682.851C1471.39 682.229 1474.49 680.737 1476.61 678.748C1476.86 680.737 1479.34 682.229 1481.33 680.488C1488.05 674.272 1487.42 660.346 1488.79 651.767C1491.15 637.22 1493.89 622.673 1496.63 608.126C1497.74 602.283 1501.72 547.576 1501.6 536.013C1502.22 535.64 1502.59 535.018 1502.72 534.024C1503.71 513.633 1489.91 483.669 1464.92 486.901Z" fill="#5B0101"/>
</g>
</svg>
