<svg width="501" height="503" viewBox="0 0 501 503" fill="none" xmlns="http://www.w3.org/2000/svg">
<path fill-rule="evenodd" clip-rule="evenodd" d="M122.009 90.3886L91.9392 58.8328L94.0785 56.634C104.597 45.9371 126.169 33.1009 127.12 32.566L129.972 30.8427L147.563 58.714L144.294 60.3779C136.45 64.2407 126.823 72.4416 126.763 72.501L123.911 74.9376L109.589 55.8615L125.515 44.8674L134.251 56.1586L126.466 61.2099L123.257 56.634L125.456 55.2078L124.089 53.5438L118.919 57.1094L125.278 65.5481C128.249 63.1116 133.241 59.3677 138.173 56.5152L127.595 39.6973C121.89 43.2035 109.173 51.4044 101.091 58.714L122.306 80.9991C127.12 76.5421 138.233 67.2715 153.446 60.6156L137.282 27.4553L140.372 26.0291C141.62 25.4942 170.383 12.3608 190.053 7.60667L193.322 6.77468L203.424 49.4433L200.156 50.2753C199.978 50.2753 181.852 54.9701 169.551 60.3779L166.342 61.8042L153.922 31.1398L183.16 20.6212L189.934 41.8961L171.037 48.5519L165.985 36.5477L175.494 32.5066L177.455 38.1522L174.424 39.2219L174.959 40.4698L181.674 38.1522L178.703 28.941L162.657 34.7054L170.205 53.3061C179.356 49.5622 190.113 46.472 195.402 44.9863L188.211 14.5596C173.176 18.7195 153.684 27.0393 146.196 30.3672L162.479 63.7058L159.092 65.0727C138.411 73.2736 124.683 87.5955 124.565 87.7144L122.009 90.3886ZM211.388 49.0273L199.443 7.07182L202.414 6.12099C216.677 1.54511 241.695 0.23771 242.765 0.178283L246.152 0L248.767 32.8037L245.083 32.7443C236.347 32.5066 224.046 35.3591 223.927 35.3591L220.302 36.1911L216.439 12.5985L235.693 10.3403L238.13 24.3651L228.919 25.2565L228.205 19.6704L230.88 19.4327L230.404 17.3527L224.164 18.0658L225.828 28.4656C229.632 27.7524 235.753 26.7422 241.458 26.5045L239.913 6.65583C233.257 7.19068 218.162 8.49807 207.644 11.2317L216.023 40.8264C222.382 39.103 236.525 36.0128 253.105 37.2014L254.175 0.356562L257.562 0.534845C258.929 0.653699 290.485 2.37709 310.155 7.30953L313.364 8.08209L302.549 50.513L299.28 49.7405C299.102 49.7405 280.858 45.4023 267.427 44.5109L263.981 44.2732L267.19 11.3506L297.973 15.6293L294.11 37.6173L274.202 34.7054L275.391 21.7503L285.612 22.5823L284.839 28.525L281.63 28.0496L281.512 29.4164L288.524 30.4267L290.188 20.9183L273.251 18.6007L271.29 38.5088C281.155 39.519 292.149 41.7178 297.497 42.9064L305.223 12.5985C290.01 9.27062 268.913 7.60666 260.712 7.07182L259.642 44.1543L256.017 43.7978C233.91 41.4207 215.131 47.7199 214.894 47.7794L211.388 49.0273ZM448.383 251.079C448.383 360.306 359.836 448.793 250.669 448.793C141.442 448.793 52.955 360.306 52.955 251.079C52.955 141.912 141.442 53.4249 250.669 53.4249C359.836 53.4249 448.383 141.912 448.383 251.079ZM440.836 251.079C440.836 146.072 355.677 60.9128 250.669 60.9128C145.602 60.9128 60.5022 146.072 60.5022 251.079C60.5022 356.147 145.602 441.306 250.669 441.306C355.677 441.306 440.836 356.147 440.836 251.079ZM309.799 53.9598L318.713 11.2317L321.744 11.7666C336.482 14.3814 359.302 24.8405 360.312 25.3159L363.343 26.6828L350.387 56.9906L347.178 55.2078C339.572 50.9884 327.33 47.7199 327.211 47.7199L323.586 46.7691L331.193 24.068L349.258 31.0209L344.92 44.5703L336.363 41.0641L338.264 35.7751L340.76 36.7854L341.295 34.7054L335.471 32.5066L332.143 42.4904C335.828 43.6195 341.711 45.5211 346.881 47.9577L354.726 29.7135C348.605 27.0393 334.58 21.2155 324.002 18.779L317.703 48.8491C324.121 50.2753 338.027 54.1381 352.17 62.8739L370.236 30.7832L373.207 32.5066C374.337 33.2197 401.495 49.3839 416.649 62.8739L419.085 65.1321L389.788 97.6387L387.232 95.4399C387.113 95.321 372.97 83.0791 361.5 76.0072L358.529 74.165L376.654 46.5314L401.97 64.6567L388.302 82.3065L372.078 70.5399L379.15 59.5459L387.827 65.0727L384.32 69.8863L381.706 67.9846L380.992 69.1731L386.697 73.333L392.64 65.6669L378.734 55.7426L367.74 72.501C376.001 77.9683 384.677 85.0402 388.896 88.5464L409.815 65.3698C397.87 55.3266 379.923 44.0355 372.97 39.7567L354.726 72.0851L351.754 70.0645C333.213 57.7037 313.662 54.5541 313.483 54.4946L309.799 53.9598ZM394.601 104.057L422.354 70.4211L424.79 72.2633C436.676 81.4151 452.008 101.264 452.662 102.155L454.682 104.829L429.128 125.569L427.167 122.539C422.354 115.229 413.024 106.672 412.964 106.612L410.171 104.057L427.464 87.5361L440.241 102.096L430.079 112.079L424.137 104.948L428.296 101.204L430.02 103.225L431.446 101.68L427.346 96.985L419.739 104.295C422.473 106.969 426.811 111.426 430.257 116.002L445.649 103.463C441.489 98.2924 431.803 86.5853 423.542 79.5134L403.991 103.225C409.042 107.444 419.561 117.309 427.999 131.631L458.961 111.604L460.744 114.516C461.397 115.645 477.918 142.625 485.049 161.582L486.238 164.732L445.114 179.945L443.926 176.796C443.866 176.617 437.032 159.146 430.139 147.617L428.356 144.586L457.297 128.6L471.322 156.353L450.998 165.623L442.083 147.676L453.375 141.258L458.545 150.113L453.196 152.846L451.77 149.935L450.582 150.588L453.731 156.947L462.526 152.906L454.801 137.693L437.27 147.379C442.084 156.056 446.481 166.396 448.561 171.447L477.859 160.631C471.975 146.191 461.338 127.887 457.178 120.815L425.979 141.02L424.255 137.811C413.618 118.26 397.751 106.374 397.632 106.256L394.601 104.057ZM61.9879 168.654L20.6861 154.689L21.5775 151.717C25.9751 137.395 39.049 116.002 39.6433 115.11L41.4261 112.198L69.8916 128.719L67.7523 131.69C62.6416 138.762 57.9468 150.529 57.8874 150.648L56.5206 154.094L34.9486 143.814L43.9815 126.699L56.9366 132.641L52.4201 140.723L47.4283 138.227L48.6762 135.85L46.7151 135.078L43.8032 140.604L53.3115 145.121C54.8566 141.615 57.5308 135.969 60.5616 131.096L43.3872 121.172C39.9998 126.936 32.512 140.07 28.7681 150.351L57.8874 160.215C60.0862 153.976 65.6129 140.664 75.9533 127.649L46.2991 105.84L48.3791 103.165C49.2111 102.096 68.5249 77.0769 83.7382 63.7058L86.2341 61.507L115.056 94.5485L112.56 96.8067C112.382 96.9256 98.4761 109.465 90.1563 119.983L87.9575 122.717L62.701 101.383L83.7382 78.4437L99.6052 94.1325L85.937 108.87L75.9533 100.551L82.4308 92.5874L86.8284 96.6284L84.6296 98.9461L85.6993 99.8375L90.5129 94.6673L83.6194 87.8332L72.0905 100.432L87.4226 113.387C93.8408 105.84 101.863 98.0547 105.905 94.3108L85.3427 70.7777C73.9921 81.4151 60.6211 97.817 55.5103 104.235L85.4022 126.223L83.0845 128.957C68.5249 145.834 63.0575 164.91 62.9981 165.088L61.9879 168.654ZM75.5967 359.474L40.5941 385.503L38.6925 383.126C29.3624 371.36 19.2004 348.421 18.7844 347.47L17.4176 344.38L47.1905 330.296L48.4385 333.742C51.3504 342.003 58.3034 352.521 58.4223 352.64L60.4428 355.731L39.7621 367.675L30.7887 350.501L43.09 343.191L47.1311 351.511L42.1986 354.185L41.0101 351.808L39.2273 352.997L42.1392 358.524L51.291 353.235C49.2705 349.966 46.1209 344.618 43.8626 339.329L25.9156 347.827C28.7087 353.888 35.3051 367.557 41.6044 376.411L66.2666 358.048C62.4039 352.759 54.5595 340.636 49.7459 324.71L14.9216 336.773L13.9114 333.505C13.4954 332.197 3.92762 302.068 1.55054 281.982L1.13454 278.654L44.6946 273.721L45.1106 277.049C45.17 277.287 47.6065 295.828 51.5287 308.664L52.539 312.052L20.6266 320.669L13.6736 290.361L35.6023 286.201L39.9404 305.812L27.4013 309.318L24.5488 299.453L30.3727 298.146L31.0858 301.236L32.3932 300.879L30.8481 293.986L21.3398 295.769L25.2025 312.408L44.5163 307.179C41.9609 297.611 40.1187 286.557 39.3461 281.15L8.26579 284.656C10.5834 300.047 16.5262 320.371 18.9033 328.216L53.9652 316.093L54.8566 319.599C60.5022 341.171 73.1008 356.503 73.2196 356.622L75.5967 359.474ZM453.434 286.082L496.875 289.766L496.697 292.857C495.924 307.832 488.318 331.722 487.961 332.732L486.951 335.941L455.336 326.73L456.703 323.343C459.971 315.261 461.754 302.722 461.754 302.603L462.229 298.918L485.644 303.732L480.949 322.511L466.983 319.837L469.42 310.923L474.887 312.17L474.174 314.726L476.313 315.082L477.799 308.961L467.518 306.881C466.865 310.625 465.617 316.746 463.834 322.214L482.91 327.74C484.812 321.382 488.912 306.763 490.101 295.947L459.436 293.332C458.782 299.869 456.643 314.132 449.69 329.226L483.742 343.31L482.375 346.46C481.84 347.648 469.004 376.589 457.416 393.229L455.514 395.963L419.68 370.766L421.581 367.973C421.7 367.794 432.159 352.284 437.745 340.101L439.231 336.892L468.826 351.571L453.969 378.907L434.774 367.438L444.52 349.907L456.227 355.552L451.83 364.882L446.6 361.97L448.145 359.177L446.897 358.583L443.45 364.763L451.77 369.696L459.971 354.72L441.965 345.806C437.567 354.661 431.624 364.169 428.594 368.745L454.207 386.751C462.705 373.677 471.738 354.542 475.125 347.054L440.836 332.911L442.499 329.642C452.543 309.793 453.315 290.004 453.315 289.766L453.434 286.082ZM1.60995 269.561C-1.18312 254.823 0.480831 229.805 0.599685 228.735L0.837408 225.348L33.7006 226.774L33.1658 230.399C31.9178 239.016 33.2252 251.555 33.2252 251.674L33.6412 255.418L9.75147 256.368L9.81088 236.995L24.0734 236.223L23.7762 245.493L18.1901 245.553L18.2495 242.878L16.1102 243.116V249.356L26.6288 248.94C26.3911 245.137 26.0939 238.897 26.5099 233.192L6.7207 232.36C6.36414 239.016 5.88872 254.17 7.31497 264.985L37.6822 260.172C36.7908 253.694 35.424 239.313 38.5736 222.97L2.14481 217.444L2.73908 214.056C2.97679 212.749 8.50349 181.609 15.7536 162.711L16.9421 159.621L57.7686 175.488L56.6395 178.638C56.58 178.816 50.1024 196.407 47.5471 209.599L46.8934 213.046L14.6245 205.855L22.5877 175.785L43.922 182.263L38.6925 201.696L25.9751 198.962L27.9956 188.859L33.76 190.404L32.928 193.554L34.2948 193.851L36.1371 186.958L26.8665 184.165L22.5283 200.685L42.0798 205.023C44.2786 195.337 47.7848 184.759 49.627 179.529L20.4483 168.238C15.3376 182.917 11.1183 203.716 9.5732 211.739L46.2991 217.325L45.4671 220.831C40.4753 242.522 44.4569 261.955 44.5163 262.133L45.2889 265.758L2.20422 272.592L1.60995 269.561ZM413.915 376.352L450.7 399.825L449.096 402.44C441.43 415.336 423.602 432.986 422.829 433.699L420.452 436.076L396.741 413.196L399.534 410.879C406.19 405.233 413.558 394.952 413.618 394.834L415.757 391.803L434.299 406.957L421.403 421.397L410.231 412.483L416.589 405.768L420.809 409.393L419.026 411.414L420.749 412.662L424.909 407.967L416.708 401.311C414.39 404.342 410.468 409.155 406.368 413.137L420.63 426.924C425.325 422.17 435.725 411.176 441.786 402.084L415.876 385.563C412.311 391.03 403.753 402.678 390.56 412.84L414.153 441.127L411.479 443.207C410.468 444.039 385.687 463.71 367.681 473.04L364.709 474.585L344.682 435.66L347.654 434.055C347.832 433.937 364.353 425.082 374.99 416.881L377.724 414.742L397.157 441.484L371.246 458.777L359.599 439.701L376.357 428.707L384.083 439.166L375.882 445.347L372.613 440.355L375.287 438.631L374.455 437.502L368.513 441.365L373.564 449.625L387.827 440.176L376.06 423.953C368.037 429.717 358.351 435.363 353.537 438.037L367.8 465.849C381.408 458.242 398.345 445.465 404.823 440.474L381.052 411.949L384.023 409.869C402.149 396.913 412.013 379.739 412.132 379.561L413.915 376.352ZM499.668 280.852L499.252 284.121L455.811 278.475L456.227 275.147C456.227 274.969 458.307 256.309 457.594 242.938L457.416 239.432L490.457 238.659L489.982 269.799L467.637 268.551L468.113 248.465L481.127 248.108L481.543 258.33L475.6 258.211L475.66 255.002L474.293 255.061L474.115 262.133L483.742 262.668L484.039 245.612L464.012 246.028C464.19 255.952 463.299 267.125 462.824 272.592L493.785 276.633C495.271 261.123 494.379 239.907 493.963 231.766L457 235.153L456.94 231.528C456.643 209.243 448.086 191.355 447.967 191.177L446.362 187.849L486.594 170.912L487.842 173.705C494.082 187.314 498.48 212.036 498.658 213.106L499.193 216.433L466.924 222.97L466.567 219.286C465.735 210.61 461.457 198.724 461.397 198.605L460.149 195.099L483.088 188.443L487.664 207.282L474.055 211.442L472.094 202.349L477.502 200.982L478.096 203.597L480.117 202.884L478.631 196.763L468.469 199.675C469.658 203.359 471.44 209.302 472.391 214.948L491.824 211.026C490.517 204.489 487.426 189.632 483.385 179.529L455.039 191.474C457.535 197.536 462.289 211.204 463.121 227.784L499.787 224.456L500.025 227.843C500.144 229.151 502.224 260.707 499.668 280.852ZM145.899 428.41L127.061 467.751L124.208 466.503C110.54 460.441 90.8694 444.812 90.0374 444.158L87.4226 442.078L107.212 415.752L109.946 418.248C116.304 424.191 127.417 430.252 127.536 430.311L130.804 432.094L118.028 452.3L102.101 441.246L109.589 429.123L117.017 434.59L113.927 439.226L111.728 437.68L110.718 439.523L115.888 443.148L121.534 434.234C118.206 432.273 112.917 428.945 108.46 425.32L96.515 441.187C101.804 445.228 113.987 454.261 123.733 459.193L137.044 431.5C131.161 428.588 118.503 421.516 106.915 409.631L81.6582 436.492L79.2217 434.055C78.2709 433.105 55.8075 410.879 44.338 394.18L42.4364 391.446L78.7463 366.843L80.648 369.577C80.7669 369.755 91.5826 385.028 100.972 394.596L103.468 397.151L79.2217 419.615L58.9571 396.022L76.4881 382.116L89.4432 397.448L79.9348 406.362L72.863 398.993L77.3795 395.071L79.4595 397.567L80.4697 396.616L75.8938 391.208L68.2871 397.211L79.4 410.166L94.1379 396.557C87.4227 389.247 80.648 380.333 77.4389 375.876L51.5287 393.407C60.7399 406.006 75.4184 421.279 81.1828 427.102L106.618 400.063L109.054 402.737C124.089 419.199 142.333 426.924 142.512 426.984L145.899 428.41ZM240.269 456.757L241.814 500.317L238.724 500.554C223.808 501.565 199.146 496.87 198.076 496.632L194.807 496.038L200.096 463.531L203.662 464.482C212.101 466.74 224.699 466.978 224.818 466.978L228.562 467.037L226.601 490.868L207.406 488.491L208.416 474.228L217.509 475.595L216.914 481.181L214.299 480.825L214.24 482.964L220.48 483.736L221.312 473.218C217.449 472.98 211.269 472.505 205.683 471.435L202.414 490.987C209.01 492.116 223.986 494.433 234.861 494.314L233.792 463.591C227.195 463.71 212.754 463.353 196.947 458.242L187.082 493.72L183.813 492.71C182.565 492.353 152.317 483.083 134.37 473.634L131.458 472.029L152.139 433.461L155.11 434.947C155.288 435.066 171.987 443.564 184.764 447.664L188.092 448.734L177.098 479.933L148.157 468.404L157.19 448.021L175.85 455.568L171.571 467.869L161.825 464.601L164.084 459.074L167.055 460.322L167.53 458.955L160.934 456.281L157.012 465.136L172.879 471.494L179.594 452.597C170.264 449.269 160.102 444.455 155.17 442.078L140.432 469.593C154.397 476.486 174.483 483.142 182.328 485.638L192.252 449.863L195.639 451.111C216.617 458.718 236.347 457.054 236.525 457.054L240.269 456.757ZM337.016 437.978L358.648 475.833L356.033 477.437C343.256 485.282 319.248 492.591 318.237 492.888L314.969 493.898L304.629 462.64L308.194 461.808C316.692 459.966 327.983 454.261 328.102 454.201L331.43 452.537L340.82 474.525L322.694 481.359L316.93 468.285L325.666 465.255L327.746 470.425L325.19 471.376L326.141 473.277L332.025 471.078L327.924 461.332C324.418 462.996 318.713 465.433 313.186 467.037L319.426 485.876C325.785 483.855 340.166 478.923 349.734 473.753L334.461 447.011C328.697 450.22 315.742 456.578 299.34 459.431L307.125 495.444L303.737 496.038C302.43 496.335 271.349 502.218 251.144 502.099H247.757L248.173 458.302L251.501 458.242C251.739 458.242 270.458 458.064 283.651 455.746L287.098 455.152L291.852 487.837L260.89 491.105L259.405 468.82L279.432 466.859L281.393 479.755L271.231 481.419L270.636 475.476L273.845 475.179L273.608 473.753L266.595 474.466L267.249 484.093L284.245 482.31L281.333 462.521C271.528 463.888 260.355 464.363 254.888 464.482L254.591 495.8C270.161 495.384 291.079 491.937 299.161 490.511L291.317 454.201L294.942 453.726C316.99 450.695 333.689 440.117 333.867 439.998L337.016 437.978Z" fill="#BF0000"/>
</svg>
