<svg width="327" height="94" viewBox="0 0 327 94" fill="none" xmlns="http://www.w3.org/2000/svg">
<path d="M283.83 54.9131C272.063 46.4745 257.682 48.7327 257.682 48.7327C257.682 48.7327 264.278 44.8105 257.622 34.8862C251.204 25.3184 239.319 33.8165 238.487 34.4108C238.962 33.2222 245.737 16.2261 232.128 12.9576C218.698 9.6891 211.626 17.2958 211.031 17.9495C208.179 9.27311 200.097 -0.175797 181.258 0.00248445C173.236 0.0619115 167.531 2.14186 163.43 5.11321C159.27 2.14186 153.565 0.0619115 145.543 0.00248445C126.764 -0.175797 118.622 9.27311 115.77 17.9495C115.175 17.2958 108.104 9.6891 94.6731 12.9576C81.0643 16.2261 87.839 33.2222 88.3144 34.4108C87.4825 33.8165 75.597 25.3184 69.1789 34.8862C62.5231 44.8105 69.1195 48.7327 69.1195 48.7327C69.1195 48.7327 54.7381 46.4745 42.9716 54.9131C31.205 63.2923 19.4385 74.2863 1.19434 71.731C1.19434 71.731 16.8237 78.4462 36.8506 70.2453C56.2238 62.3415 73.0417 65.5505 74.1708 65.7883C75.2405 69.235 77.7958 72.8007 82.2529 76.1286C93.3063 84.3295 104.063 80.0508 111.432 74.5835C114.462 82.1307 122.307 94.0755 141.205 92.2333C153.803 90.9853 160.162 85.0426 163.43 78.9811C166.639 85.0426 172.998 90.9853 185.597 92.2333C204.494 94.0755 212.339 82.1307 215.37 74.5835C222.738 80.0508 233.495 84.3295 244.548 76.1286C249.005 72.8007 251.561 69.235 252.63 65.7883C253.759 65.5505 270.637 62.3415 289.951 70.2453C309.977 78.4462 325.607 71.731 325.607 71.731C307.363 74.2863 295.596 63.2923 283.83 54.9131Z" fill="#EFB970"/>
<path d="M92.4732 45.8799C93.1467 46.0384 93.8202 46.2563 94.4937 46.5336C101.922 49.6832 103.289 55.9825 101.447 60.499C99.6639 64.8966 94.6126 68.1056 88.3727 65.6691C87.7785 65.4314 87.4219 64.7777 87.6596 64.124C87.8973 63.5297 88.6104 63.2326 89.2047 63.4703C94.256 65.4314 97.9999 62.8761 99.3073 59.6076C100.734 55.9825 99.545 51.2283 93.5429 48.673C89.2047 46.8307 83.678 48.0787 79.5181 51.8226C75.4176 55.5071 73.8725 60.5584 75.3582 65.372C75.5365 65.9663 75.1799 66.6794 74.5262 66.8577C73.9319 67.0359 73.2782 66.6794 73.0405 66.0851C71.3171 60.3801 73.1594 54.378 77.9136 50.0398C82.1329 46.2365 87.6596 44.6914 92.4732 45.8799Z" fill="#FFCF87"/>
<path d="M167.649 86.5877C168.065 86.7066 168.541 86.5877 168.897 86.2312C169.313 85.6963 169.194 84.9832 168.719 84.5672C165.272 81.7147 162.836 78.1491 162.717 75.5937C162.539 71.6715 164.678 68.1059 168.184 66.442C171.75 64.7186 175.85 65.4317 179.119 68.3436C180.664 69.7105 181.139 71.0178 181.08 72.147C180.902 78.9216 175.137 78.268 172.82 77.7331C172.225 77.5548 171.869 78.5651 172.047 79.1594C172.225 79.8131 172.82 79.8725 173.473 79.9913C174.781 80.1696 181.436 81.9524 183.16 73.6326C183.576 71.5527 182.982 68.5813 180.664 66.5608C176.682 62.9952 171.631 62.1632 167.115 64.3026C162.776 66.3825 160.102 70.8396 160.34 75.7126C160.518 78.9811 163.133 83.0815 167.233 86.4095C167.352 86.4887 167.491 86.5481 167.649 86.5877Z" fill="#FFCF87"/>
<path d="M217.448 12.8389C217.864 12.8389 218.34 13.0766 218.578 13.4926C218.875 14.0868 218.637 14.8 218.043 15.0971C214.121 17.1176 211.03 20.2078 210.377 22.6443C209.366 26.3882 210.733 30.3699 213.823 32.7469C216.914 35.124 221.073 35.3023 224.936 33.1035C226.719 32.0932 227.432 30.9047 227.61 29.7756C228.799 23.1198 223.035 22.5849 220.717 22.6443C220.063 22.6443 219.885 21.6341 220.182 21.0398C220.479 20.4455 221.133 20.505 221.787 20.5644C223.094 20.6238 229.988 20.2673 229.988 28.7653C229.928 30.8453 228.74 33.6978 226.065 35.1834C221.43 37.8577 216.26 37.62 212.338 34.5892C208.534 31.6773 206.811 26.7448 208.059 22.0501C208.891 18.9004 212.338 15.3942 216.973 13.0172C217.132 12.9379 217.29 12.8785 217.448 12.8389Z" fill="#FFCF87"/>
<path d="M115.949 17.1175C115.949 17.1175 115.968 17.1373 116.008 17.1769C116.662 17.3552 117.018 18.0089 116.781 18.6626C112.086 31.2611 121.951 39.6998 126.646 40.9478C129.557 41.7203 133.242 42.0174 136.273 39.7592C140.017 36.9661 140.433 32.5091 138.59 29.3001C136.748 26.1504 131.935 23.8922 127.418 25.8533C126.764 26.1504 126.111 25.8533 125.814 25.259C125.576 24.6647 125.873 23.9516 126.467 23.7139C132.232 21.1585 138.234 23.9516 140.67 28.1115C142.572 31.4394 143.226 37.4416 137.64 41.6609C134.074 44.3945 129.676 44.2757 126.051 43.2654C119.752 41.542 109.293 32.5091 114.522 17.9495C114.76 17.3552 115.354 16.9986 115.949 17.1175Z" fill="#FFCF87"/>
<path d="M69.4159 33.7571C69.5743 33.7571 69.713 33.8165 69.8319 33.9354C70.3667 34.2919 70.4855 35.0051 70.129 35.5399C67.8708 38.9273 67.0388 41.8986 67.5142 44.3351C68.049 46.6528 69.713 47.7225 69.7724 47.7225C70.2478 48.0196 70.4856 48.6139 70.2478 49.1487C70.0696 49.6836 69.5347 50.0401 68.9999 49.9213C68.8216 49.9213 54.8562 47.8413 43.6839 55.864C42.2577 56.894 40.8314 57.9439 39.4052 59.0136C29.1243 66.6203 17.536 75.2372 1.01529 72.9195C0.421023 72.8007 -0.0544011 72.2064 0.00502594 71.5527C0.12388 70.9584 0.718144 70.483 1.37184 70.5425C16.8823 72.7413 27.6386 64.778 37.9789 57.1119C39.4448 56.0423 40.8909 54.9924 42.3171 53.9623C51.1123 47.663 61.2149 47.1282 66.2068 47.3065C65.7908 46.6528 65.4342 45.8208 65.256 44.87C64.5428 41.7797 65.5531 38.2141 68.1679 34.2325C68.465 33.8165 68.9999 33.6382 69.4159 33.7571Z" fill="#FFCF87"/>
<path d="M234.328 45.8801C233.654 46.0386 233 46.2565 232.367 46.5338C224.879 49.6835 223.512 55.9828 225.354 60.4992C227.137 64.8968 232.188 68.1059 238.428 65.6694C239.082 65.4317 239.379 64.778 239.141 64.1243C238.904 63.53 238.19 63.2329 237.596 63.4706C232.545 65.4317 228.86 62.8763 227.553 59.6078C226.067 55.9828 227.256 51.2286 233.258 48.6732C237.596 46.831 243.123 48.0789 247.283 51.8229C251.383 55.5073 252.928 60.5586 251.443 65.3722C251.264 65.9665 251.621 66.6796 252.275 66.8579C252.869 67.0362 253.523 66.6796 253.76 66.0854C255.484 60.3804 253.641 54.3782 248.887 50.04C244.668 46.2367 239.141 44.6916 234.328 45.8801Z" fill="#FFCF87"/>
<path d="M257.385 33.7571C257.226 33.7571 257.088 33.8165 256.969 33.9354C256.434 34.2919 256.315 35.0051 256.672 35.5399C258.93 38.9273 259.821 41.8986 259.286 44.3351C258.752 46.6528 257.088 47.7225 257.028 47.7225C256.553 48.0196 256.374 48.6139 256.553 49.1487C256.731 49.6836 257.266 50.0401 257.86 49.9213C257.979 49.9213 271.944 47.8413 283.117 55.864C284.543 56.894 285.969 57.9439 287.395 59.0136C297.676 66.6203 309.265 75.2372 325.785 72.9195C326.38 72.8007 326.855 72.2064 326.796 71.5527C326.677 70.9584 326.082 70.483 325.429 70.5425C309.918 72.7413 299.162 64.778 288.822 57.1119C287.395 56.0423 285.949 54.9924 284.483 53.9623C275.688 47.663 265.586 47.1282 260.594 47.3065C261.01 46.6528 261.366 45.8208 261.545 44.87C262.258 41.7797 261.307 38.2141 258.633 34.2325C258.336 33.8165 257.86 33.6382 257.385 33.7571Z" fill="#FFCF87"/>
<path d="M137.342 93.8972C120.346 93.8972 113.037 82.3683 110.125 75.1776C109.827 74.4051 110.184 73.5731 110.897 73.276C111.61 72.9788 112.502 73.3354 112.799 74.0485C115.651 81.0609 123.02 92.5304 141.027 90.807C150.594 89.8561 157.488 85.9934 161.529 79.397C161.886 78.6839 162.777 78.4461 163.49 78.8621C164.203 79.2781 164.382 80.1695 163.966 80.8827C159.509 88.311 151.842 92.6492 141.324 93.6595C139.937 93.8179 138.61 93.8972 137.342 93.8972Z" fill="#FFCF87"/>
<path d="M95.2673 82.1901C90.8697 82.1901 86.1749 80.8233 81.3613 77.2577C79.5191 75.8908 77.9146 74.4052 76.6072 72.9195C76.0723 72.2658 76.1912 71.3744 76.7855 70.8395C77.3798 70.3047 78.2711 70.3641 78.806 71.0178C79.9945 72.3846 81.4208 73.692 83.1441 74.94C93.6033 82.725 103.825 78.4462 110.599 73.4543C111.253 72.9789 112.145 73.0978 112.62 73.7515C113.095 74.4052 112.977 75.2966 112.323 75.772C107.806 79.0999 101.864 82.1901 95.2673 82.1901Z" fill="#FFCF87"/>
</svg>
