<svg width="474" height="137" viewBox="0 0 474 137" fill="none" xmlns="http://www.w3.org/2000/svg">
<path d="M62.2945 56.5151C79.3501 68.7571 100.209 65.4291 100.209 65.4291C100.209 65.4291 90.6412 71.1936 100.268 85.5155C109.598 99.4809 126.832 87.12 127.961 86.2286C127.308 87.952 117.502 112.555 137.232 117.368C156.724 122.123 166.946 111.069 167.837 110.118C171.997 122.657 183.704 136.326 210.981 136.147C222.569 136.029 230.889 133.057 236.891 128.66C242.834 133.057 251.154 136.029 262.801 136.147C290.019 136.326 301.786 122.657 305.946 110.118C306.837 111.069 316.999 122.123 336.491 117.368C356.221 112.555 346.475 87.952 345.762 86.2286C346.95 87.12 364.184 99.4809 373.514 85.5155C383.141 71.1936 373.514 65.4291 373.514 65.4291C373.514 65.4291 394.432 68.7571 411.488 56.5151C428.484 44.3325 445.599 28.4061 472.044 32.0905C472.044 32.0905 449.403 22.3445 420.343 34.2894C392.293 45.7588 367.868 41.064 366.205 40.7075C364.659 35.7156 361.034 30.6049 354.497 25.7913C338.512 13.8464 322.882 20.0863 312.185 27.9901C307.788 17.0555 296.437 -0.297212 269.101 2.43643C250.797 4.21925 241.586 12.8956 236.891 21.6314C232.196 12.8956 222.926 4.21925 204.682 2.43643C177.286 -0.297212 165.995 17.0555 161.538 27.9901C150.841 20.0863 135.271 13.8464 119.226 25.7913C112.748 30.6049 109.123 35.7156 107.578 40.7075C105.914 41.064 81.43 45.7588 53.4398 34.2894C24.38 22.3445 1.73828 32.0905 1.73828 32.0905C28.1833 28.4061 45.2389 44.3325 62.2945 56.5151Z" fill="#EFB970"/>
<path d="M339.76 69.6486C338.73 69.4109 337.759 69.0939 336.848 68.6978C326.032 64.1219 324.012 54.9701 326.686 48.3737C329.241 42.015 336.61 37.4391 345.703 40.9453C346.535 41.2425 347.01 42.2527 346.654 43.1441C346.297 44.0355 345.346 44.4515 344.455 44.095C337.086 41.3019 331.737 44.9864 329.836 49.6811C327.696 54.9107 329.479 61.8637 338.155 65.5481C344.455 68.2223 352.477 66.4395 358.479 61.0317C364.422 55.6832 366.68 48.3143 364.541 41.3613C364.303 40.4699 364.779 39.5191 365.73 39.2219C366.621 38.9248 367.572 39.4596 367.869 40.351C370.365 48.6114 367.75 57.2878 360.797 63.587C354.676 69.0543 346.713 71.3126 339.76 69.6486Z" fill="#FFCF87"/>
<path d="M230.77 10.5781C230.116 10.3998 229.403 10.5781 228.927 11.1129C228.333 11.8855 228.452 12.9552 229.225 13.5494C234.216 17.6499 237.663 22.8795 237.841 26.564C238.139 32.2095 235.048 37.3797 229.997 39.8162C224.768 42.3121 218.884 41.3019 214.071 37.0826C211.812 35.062 211.218 33.2198 211.218 31.4964C211.515 21.691 219.835 22.6418 223.222 23.4738C224.114 23.652 224.649 22.2258 224.411 21.3344C224.114 20.443 223.222 20.2647 222.272 20.1458C220.37 19.9081 210.683 17.2933 208.247 29.357C207.593 32.3878 208.544 36.726 211.812 39.6379C217.636 44.8081 225.005 46.0561 231.483 42.9064C237.782 39.8756 241.645 33.3981 241.288 26.3857C241.051 21.6315 237.247 15.6888 231.364 10.8752C231.166 10.7167 230.968 10.6177 230.77 10.5781Z" fill="#FFCF87"/>
<path d="M158.566 117.488C157.912 117.488 157.258 117.19 156.902 116.537C156.486 115.705 156.783 114.695 157.674 114.219C163.379 111.248 167.896 106.85 168.787 103.285C170.273 97.8172 168.312 92.1122 163.855 88.6654C159.279 85.1592 153.217 84.981 147.691 88.1306C145.076 89.6163 144.066 91.2802 143.769 92.9442C142.045 102.631 150.365 103.403 153.812 103.285C154.763 103.285 155 104.77 154.525 105.602C154.109 106.434 153.158 106.375 152.207 106.315C150.305 106.196 140.322 106.731 140.381 94.4299C140.381 91.3397 142.223 87.2986 146.027 85.0998C152.801 81.2371 160.23 81.5936 165.935 85.9318C171.461 90.2105 173.898 97.4012 172.115 104.116C170.927 108.752 165.994 113.803 159.22 117.309C159.021 117.389 158.804 117.448 158.566 117.488Z" fill="#FFCF87"/>
<path d="M305.708 111.307C305.669 111.307 305.629 111.287 305.589 111.248C304.698 110.95 304.104 110 304.46 109.108C311.294 90.8046 296.972 78.6221 290.138 76.7204C285.919 75.5913 280.63 75.2347 276.232 78.5032C270.824 82.6037 270.171 88.9624 272.845 93.5977C275.519 98.233 282.532 101.501 289.069 98.649C289.96 98.233 290.97 98.649 291.327 99.5404C291.743 100.372 291.327 101.383 290.435 101.799C282.056 105.424 273.38 101.383 269.874 95.3211C267.081 90.5669 266.07 81.8311 274.212 75.7696C279.441 71.788 285.741 71.9068 291.089 73.4519C300.181 75.9479 315.335 88.9624 307.729 110.118C307.432 111.01 306.54 111.485 305.708 111.307Z" fill="#FFCF87"/>
<path d="M373.099 87.239C372.9 87.1598 372.722 87.0607 372.564 86.9419C371.732 86.4665 371.553 85.3968 372.088 84.5648C375.357 79.6918 376.605 75.413 375.832 71.8474C375.119 68.46 372.742 66.9744 372.623 66.9149C371.91 66.499 371.613 65.6075 371.91 64.835C372.207 64.0624 372.98 63.6465 373.812 63.7653C373.99 63.7653 394.195 66.7367 410.478 55.1484C412.499 53.6627 414.579 52.1176 416.659 50.5725C431.515 39.5785 448.333 27.0394 472.282 30.4267C473.174 30.5456 473.887 31.437 473.768 32.3284C473.649 33.2792 472.758 33.9329 471.807 33.8141C449.284 30.6644 433.714 42.1933 418.738 53.3656C416.599 54.9107 414.519 56.4558 412.439 57.9415C399.662 67.0338 385.043 67.8063 377.793 67.5092C378.387 68.46 378.863 69.6486 379.219 71.0748C380.23 75.5319 378.804 80.7614 374.941 86.5259C374.525 87.1201 373.812 87.3579 373.099 87.239Z" fill="#FFCF87"/>
<path d="M134.022 69.6486C135.013 69.4109 135.983 69.0939 136.934 68.6978C147.75 64.1219 149.77 54.9701 147.096 48.3737C144.541 42.015 137.172 37.4391 128.079 40.9453C127.188 41.2425 126.772 42.2527 127.129 43.1441C127.426 44.0355 128.436 44.4515 129.327 44.095C136.637 41.3019 142.045 44.9864 143.946 49.6811C146.026 54.9107 144.303 61.8637 135.627 65.5481C129.268 68.2223 121.245 66.4395 115.243 61.0317C109.36 55.6832 107.102 48.3143 109.182 41.3613C109.479 40.4699 108.944 39.5191 108.053 39.2219C107.161 38.9248 106.21 39.4596 105.913 40.351C103.417 48.6114 106.032 57.2878 112.985 63.587C119.106 69.0543 127.069 71.3126 134.022 69.6486Z" fill="#FFCF87"/>
<path d="M100.683 87.239C100.882 87.1598 101.06 87.0607 101.218 86.9419C101.991 86.4665 102.229 85.3968 101.694 84.5648C98.4252 79.6918 97.1178 75.413 97.8903 71.8474C98.6629 68.46 101.04 66.9744 101.159 66.9149C101.813 66.499 102.11 65.6075 101.872 64.835C101.575 64.0624 100.802 63.6465 99.9703 63.7653C99.792 63.7653 79.5274 66.7367 63.3038 55.1484C61.2238 53.6627 59.2033 52.1176 57.1233 50.5725C42.2666 39.5785 25.3893 27.0394 1.49962 30.4267C0.548782 30.5456 -0.104916 31.437 0.0139384 32.3284C0.132793 33.2792 1.02423 33.9329 1.97506 33.8141C24.4979 30.6644 40.0083 42.1933 55.0434 53.3656C57.1828 54.9107 59.2033 56.4558 61.2832 57.9415C74.0601 67.0338 88.7386 67.8063 95.9887 67.5092C95.3944 68.46 94.8595 69.6486 94.5624 71.0748C93.5522 75.5319 94.9784 80.7614 98.8412 86.5259C99.2572 87.1201 99.9703 87.3579 100.683 87.239Z" fill="#FFCF87"/>
<path d="M274.626 0C299.288 0 309.926 16.699 314.145 27.1582C314.621 28.2279 314.086 29.4758 313.016 29.8918C311.946 30.3672 310.698 29.8324 310.282 28.7627C306.123 18.6007 295.366 1.9611 269.278 4.51646C255.431 5.88328 245.447 11.4694 239.624 21.0372C239.029 22.0474 237.722 22.3446 236.771 21.7503C235.761 21.156 235.404 19.8486 236.058 18.8384C242.595 8.08209 253.589 1.84224 268.862 0.297135C270.882 0.0990451 272.804 0 274.626 0Z" fill="#FFCF87"/>
<path d="M335.717 16.9961C342.076 16.9961 348.85 18.9572 355.803 24.1273C358.478 26.0884 360.795 28.2278 362.697 30.4266C363.469 31.318 363.351 32.6848 362.459 33.398C361.568 34.1705 360.26 34.0517 359.488 33.1603C357.824 31.1992 355.685 29.2975 353.248 27.5147C338.094 16.1641 323.237 22.4634 313.432 29.6541C312.54 30.3672 311.174 30.1295 310.52 29.2381C309.807 28.2872 310.044 26.9798 310.936 26.2667C317.532 21.4531 326.149 16.9961 335.717 16.9961Z" fill="#FFCF87"/>
</svg>
