<svg width="802" height="179" viewBox="0 0 802 179" fill="none" xmlns="http://www.w3.org/2000/svg">
<path d="M110.178 46.6875C110.427 46.3145 110.178 45.6929 109.681 45.9415C109.598 45.9415 109.515 45.983 109.432 46.0659C109.267 46.0659 109.101 46.1073 108.935 46.1902C107.194 47.1849 105.951 48.9255 104.21 49.9202C96.5018 54.7692 92.8961 51.4122 86.8038 47.0605C83.9441 44.9468 75.1164 41.7142 71.8838 44.3252C71.8009 44.4081 71.7594 44.4495 71.7594 44.4495C71.7594 44.5324 71.7594 44.5738 71.7594 44.5738C70.3917 45.9415 70.3917 49.1742 69.5214 50.7905C67.6564 54.6448 64.7967 58.3749 60.1964 59.1209C53.2337 60.2399 46.3954 56.1368 45.5251 49.5472C45.7737 48.9255 45.6494 48.3038 45.7738 47.5578C45.7738 47.1848 45.7737 44.8225 46.5197 44.6982C47.3901 44.5739 47.5144 46.1902 47.5144 46.5632C47.5144 46.729 47.5144 46.8947 47.5144 47.0605C47.6387 53.2772 52.8607 58.0018 59.326 56.8828C68.8997 55.1422 70.6404 46.3145 67.5321 38.1085C64.2994 29.5295 55.3474 23.3128 45.8981 27.0428C42.5411 28.2862 37.9408 31.0215 36.0758 34.1299C35.4541 35.2489 34.8324 36.4922 34.2108 37.8599C34.1279 37.9427 34.045 38.0256 33.9621 38.1085C29.1131 36.6165 24.6371 40.9682 21.9017 44.6982C18.4204 49.7959 20.0367 55.7639 11.7064 57.2559C6.98173 58.1262 4.37073 54.3962 0.516398 55.1422C0.143398 55.2665 0.01911 55.5152 0.01911 55.7638C-0.229557 58.3748 2.00841 61.3589 3.25175 63.5969C5.11675 66.8295 7.35476 69.5648 10.9604 70.6838C18.5448 73.1705 24.8858 70.8082 31.4754 67.6999C31.7241 67.6999 32.0142 67.6999 32.3458 67.6999C36.3244 68.8189 39.1841 70.8082 42.9141 72.5488C47.5144 74.6625 53.4824 75.0355 58.4558 74.1652C61.9371 73.4192 66.5374 71.0569 69.1484 67.6999C69.2313 67.7827 69.3142 67.7827 69.3971 67.6999C70.1431 66.5809 71.2621 65.9592 72.6297 65.7105C74.2875 65.7105 75.9453 65.7934 77.6031 65.9592C81.4574 66.7052 85.5604 68.4459 88.0471 68.5702C91.5284 68.6945 96.2531 68.4459 99.3614 67.0782C101.724 65.9592 103.464 64.2185 104.832 62.2292C106.2 60.6129 107.07 58.7479 107.567 56.6342C108.065 55.1422 108.562 53.4015 108.935 51.7852C109.308 51.4122 109.308 50.9149 109.308 50.4175C109.557 49.1742 109.847 47.9723 110.178 46.8119C110.178 46.8119 110.178 46.7704 110.178 46.6875Z" fill="#DFDFE1"/>
<path d="M592.466 20.9507C592.714 22.1111 593.004 23.313 593.336 24.5563C593.212 25.0537 593.336 25.4267 593.585 25.924C594.082 27.5404 594.455 29.1567 595.077 30.773C595.45 32.8867 596.444 34.7517 597.812 36.368C599.18 38.3573 600.92 39.9737 603.283 41.0927C606.391 42.5847 611.116 42.8334 614.473 42.709C617.084 42.5847 621.187 40.844 625.041 39.9737C626.699 39.8908 628.357 39.8079 630.014 39.725C631.382 39.9737 632.377 40.5954 633.247 41.8387C633.247 41.8387 633.289 41.8387 633.371 41.8387C636.107 45.0714 640.707 47.558 644.188 48.304C649.037 49.1744 655.13 48.8014 659.606 46.6877C663.336 44.947 666.32 42.8334 670.174 41.7144C670.506 41.7144 670.837 41.7558 671.169 41.8387C677.634 44.8227 684.099 47.3094 691.684 44.8227C695.289 43.5794 697.527 40.844 699.268 37.6113C700.511 35.3733 702.749 32.5137 702.625 29.9027C702.625 29.654 702.376 29.281 702.128 29.281C698.273 28.4107 695.538 32.265 690.938 31.3947C682.607 29.9027 684.224 23.8104 680.618 18.837C678.007 15.107 673.531 10.7554 668.682 12.2474C668.599 12.1645 668.516 12.0816 668.433 11.9987C667.812 10.631 667.19 9.26337 666.568 8.14437C664.703 5.16037 660.103 2.30069 656.746 1.05735C647.297 -2.54832 638.345 3.54401 635.112 12.123C631.879 20.4533 633.744 29.281 643.194 31.0217C649.659 32.1407 654.881 27.2917 655.005 21.1994C655.088 21.0336 655.13 20.8678 655.13 20.702C655.13 20.2047 655.254 18.7127 656.124 18.837C656.746 18.9614 656.87 21.1994 656.87 21.6967C656.87 22.4427 656.87 23.0644 657.119 23.686C656.124 30.2757 649.286 34.2543 642.323 33.2597C637.847 32.5137 634.988 28.7837 632.998 24.805C632.252 23.1887 632.252 20.0804 630.885 18.7127C630.885 18.6298 630.885 18.5884 630.885 18.5884C630.802 18.5055 630.76 18.464 630.76 18.464C627.403 15.7287 618.7 19.0857 615.84 21.075C609.624 25.551 606.142 28.7837 598.309 24.059C596.693 22.94 595.45 21.1994 593.585 20.329C593.502 20.1632 593.377 20.0804 593.212 20.0804C593.129 20.0804 593.046 20.0389 592.963 19.956C592.466 19.8317 592.217 20.329 592.466 20.702C592.466 20.7849 592.466 20.8678 592.466 20.9507Z" fill="#DFDFE1"/>
<path d="M513.39 71.3055C513.556 71.5542 513.763 71.8029 514.012 72.0515C514.012 72.2173 514.095 72.3416 514.26 72.4245C515.504 74.0408 516.25 75.5329 518.612 76.5275C520.726 77.3979 523.088 77.3979 525.326 77.0249C529.429 76.4032 532.04 75.2842 535.77 78.0195C536.516 78.6412 537.386 79.1385 538.257 79.6359C542.857 84.6092 552.431 82.4955 556.409 77.7709C559.145 74.6625 561.01 68.5702 560.139 63.7212C559.891 60.4885 558.523 56.8829 557.155 54.5205C555.788 52.2825 552.555 50.2932 550.193 49.4228C543.354 46.8118 537.013 51.1635 534.651 57.3802C532.413 63.2239 533.656 69.5649 540.495 70.8082C545.095 71.5542 548.825 68.1972 548.949 63.7212C548.949 63.6383 548.949 63.5554 548.949 63.4725C548.949 63.0995 549.074 61.9805 549.695 62.1049C550.193 62.2292 550.193 63.8455 550.193 64.2185C550.317 64.7159 550.317 65.0888 550.441 65.5862C549.695 70.3108 544.846 73.1705 539.873 72.4245C536.64 71.9272 534.527 69.1919 533.159 66.4565C532.537 65.2132 532.662 62.7265 531.543 61.8562C530.672 61.1102 528.683 61.4832 527.688 61.7319C524.953 62.3535 522.964 64.3429 521.845 66.7052C521.099 68.4459 520.974 69.5648 519.234 70.5595C517.617 71.4298 516.25 71.1812 514.633 71.1812C514.551 71.1812 514.468 71.1812 514.385 71.1812C514.136 71.0568 514.136 70.9325 513.639 70.9325C513.39 70.8082 513.141 71.0569 513.39 71.3055Z" fill="#DFDFE1"/>
<path d="M137.034 109.227C137.283 109.393 137.531 109.6 137.78 109.849C137.78 110.015 137.904 110.098 138.153 110.098C139.645 111.465 140.64 112.833 143.251 113.206C145.489 113.579 147.727 113.082 149.84 112.336C153.819 110.844 156.057 109.227 160.284 111.092C161.155 111.465 162.149 111.838 163.02 112.211C168.615 116.066 177.442 111.963 180.426 106.492C182.416 102.886 183.037 96.5452 181.172 91.9449C180.178 88.8365 178.188 85.6039 176.323 83.6145C174.458 81.7495 170.853 80.5062 168.366 80.1332C161.155 79.0142 155.808 84.6092 154.814 91.0745C153.943 97.4155 156.43 103.259 163.393 103.011C168.117 102.886 170.977 98.7832 170.231 94.4315C170.231 94.3486 170.19 94.2243 170.107 94.0586C170.107 93.6856 169.982 92.6909 170.604 92.5665C171.101 92.5665 171.474 94.1829 171.599 94.5559C171.723 94.9289 171.723 95.4262 171.972 95.7992C172.345 100.524 168.117 104.503 163.144 104.751C159.911 104.876 157.3 102.762 155.311 100.275C154.441 99.2806 154.068 96.7939 152.7 96.1722C151.705 95.6749 149.965 96.4209 148.97 96.9182C146.483 98.0372 144.867 100.4 144.37 103.011C143.997 104.876 144.121 105.995 142.505 107.362C141.261 108.481 139.769 108.606 138.153 108.854C138.07 108.854 138.029 108.896 138.029 108.979C137.656 108.854 137.78 108.73 137.158 108.73C136.91 108.854 136.785 109.103 137.034 109.227Z" fill="#DFDFE1"/>
<path d="M799.854 148.641C799.233 148.144 798.362 148.144 797.741 148.517C797.243 148.268 796.497 148.268 795.876 148.641C786.924 153.49 782.448 141.181 776.853 136.954C772.128 133.473 765.414 132.354 759.943 134.965C751.116 138.943 754.846 148.766 762.181 150.879C762.679 151.004 760.441 152.869 759.819 152.869C757.83 152.869 755.219 150.382 754.1 148.89C750.618 144.911 749.997 139.814 752.608 135.338C753.727 133.224 756.462 131.856 759.446 129.121C762.181 126.634 749.499 118.055 749.375 118.304C746.888 129.37 738.558 142.052 725.503 139.565C716.551 137.949 710.583 128.375 710.832 124.894C710.334 120.045 712.075 118.18 715.059 119.05C712.697 129.867 722.643 140.435 734.082 135.835C747.759 130.364 749.872 112.709 742.661 101.146C734.704 88.5882 719.535 84.8582 706.729 91.5722C698.523 95.9239 687.457 108.233 687.706 119.174C682.359 116.563 673.283 119.547 668.807 123.029C664.207 126.883 663.461 131.235 661.471 136.332C657.244 147.274 652.768 140.808 645.93 138.446C642.573 137.327 640.459 137.824 637.226 138.819C636.107 139.192 635.237 140.808 635.361 141.927C635.61 143.668 639.091 140.808 640.583 148.393C642.324 157.966 648.914 164.432 652.519 167.043C657.368 170.524 666.196 170.524 670.921 166.794C671.542 166.297 673.034 163.81 673.78 162.94C673.78 163.934 678.505 167.043 678.256 166.918C680.743 168.037 683.23 168.659 685.841 168.783C695.041 169.281 701.631 159.831 699.02 152.993C696.906 148.02 690.938 145.533 685.592 145.782C688.825 144.787 692.43 144.911 695.539 146.155C698.771 147.522 701.258 149.014 702.75 152.371C704.491 156.723 702.501 159.831 700.139 163.188C699.766 163.81 699.642 164.432 699.766 164.929C698.896 174.751 717.794 178.73 725.254 178.233C736.196 177.362 744.029 171.767 750.245 163.188C749.872 163.561 755.84 168.162 756.338 168.41C765.663 174.503 779.961 173.384 784.81 162.069C785.39 162.152 785.971 162.235 786.551 162.318C789.41 162.567 792.146 162.442 795.005 161.572C799.233 160.08 803.957 152.62 799.854 148.641Z" fill="#DFDFE1"/>
</svg>
