<svg width="20" height="20" viewBox="0 0 20 20" fill="none" xmlns="http://www.w3.org/2000/svg">
<path d="M8.53067 7.14355H16.5312C17.4137 7.14355 18.1313 7.86121 18.1313 8.74367V16.7442C18.1313 17.6267 17.4137 18.3444 16.5312 18.3444H8.53067C7.6482 18.3444 6.93055 17.6267 6.93055 16.7442V8.74367C6.93055 7.86121 7.6482 7.14355 8.53067 7.14355Z" fill="white"/>
<path d="M3.73086 2.34302H11.7314C12.1558 2.34302 12.5628 2.5116 12.8629 2.81168C13.163 3.11176 13.3315 3.51875 13.3315 3.94313V5.54325H6.93109C6.50671 5.54325 6.09972 5.71183 5.79964 6.01191C5.49956 6.31199 5.33097 6.71898 5.33097 7.14336V13.5438H3.73086C3.30648 13.5438 2.89949 13.3752 2.59941 13.0752C2.29933 12.7751 2.13075 12.3681 2.13075 11.9437V3.94313C2.13075 3.51875 2.29933 3.11176 2.59941 2.81168C2.89949 2.5116 3.30648 2.34302 3.73086 2.34302Z" fill="white"/>
</svg>
