<svg width="197" height="538" viewBox="0 0 197 538" fill="none" xmlns="http://www.w3.org/2000/svg">
<path fill-rule="evenodd" clip-rule="evenodd" d="M185.947 412.305C192.424 418.782 196.465 427.756 196.465 437.68C196.465 457.469 180.36 473.574 160.512 473.574H131.571C121.646 473.574 112.673 469.533 106.195 463.055C99.6584 456.578 95.6768 447.604 95.6768 437.68C95.6768 417.831 111.722 401.786 131.571 401.786H160.512C170.436 401.786 179.41 405.768 185.947 412.305ZM184.342 433.223C184.342 425.022 181.014 417.534 175.606 412.186C170.198 406.778 162.77 403.45 154.51 403.45H130.442C113.98 403.45 100.669 416.762 100.669 433.223C100.669 441.483 103.997 448.912 109.345 454.32C114.753 459.728 122.241 463.055 130.442 463.055H154.51C170.971 463.055 184.342 449.684 184.342 433.223Z" fill="#BF0000"/>
<path d="M175.606 412.185C181.014 417.534 184.342 425.022 184.342 433.223C184.342 449.684 170.971 463.055 154.51 463.055H130.442C122.241 463.055 114.753 459.727 109.345 454.319C103.997 448.911 100.669 441.483 100.669 433.223C100.669 416.761 113.981 403.45 130.442 403.45H154.51C162.77 403.45 170.199 406.778 175.606 412.185Z" fill="#E40500"/>
<path d="M161.938 473.574V482.904H156.174V473.574H160.512H161.938Z" fill="#D89C55"/>
<path d="M161.938 392.396V401.786H160.512H156.174V392.396H161.938Z" fill="#D89C55"/>
<path d="M156.174 473.574V482.904H135.909V473.574H156.174Z" fill="#EFB970"/>
<path d="M156.174 392.396V401.786H135.909V392.396H156.174Z" fill="#EFB970"/>
<path d="M135.908 473.574V482.904H130.203V473.574H131.57H135.908Z" fill="#D89C55"/>
<path d="M135.908 392.396V401.786H131.57H130.203V392.396H135.908Z" fill="#D89C55"/>
<path d="M140.544 537.339H141.198V482.904H140.544V537.339ZM137.098 537.339H137.751V482.904H137.098V537.339ZM133.651 537.339H134.305V482.904H133.651V537.339ZM143.991 537.339H144.645V482.964H143.991V537.339ZM130.204 537.339H130.858V482.904H130.204V537.339ZM147.438 537.339H148.092V482.904H147.438V537.339ZM157.778 537.339H158.432V482.904H157.778V537.339ZM161.284 482.904V537.339H161.938V482.904H161.284ZM150.885 537.339H151.538V482.904H150.885V537.339ZM154.332 537.339H154.985V482.904H154.332V537.339Z" fill="#EFB970"/>
<path d="M146.724 392.397H145.357V18.0654H146.724V392.397Z" fill="#EFB970"/>
<path fill-rule="evenodd" clip-rule="evenodd" d="M82.2471 293.807C88.1898 299.75 91.8148 307.891 91.8148 316.924C91.8148 334.99 77.1958 349.668 59.1299 349.668H32.7443C23.7114 349.668 15.5105 345.984 9.62723 340.041C3.68452 334.158 0 325.957 0 316.924C0 298.858 14.6785 284.239 32.7443 284.239H59.1299C68.1629 284.239 76.3044 287.924 82.2471 293.807ZM80.8208 312.883C80.8208 305.395 77.79 298.621 72.8576 293.688C67.9251 288.815 61.1505 285.784 53.6627 285.784H31.7341C16.699 285.784 4.57593 297.907 4.57593 312.883C4.57593 320.43 7.60665 327.205 12.5391 332.137C17.4121 337.011 24.2463 340.041 31.7341 340.041H53.6627C68.6383 340.041 80.8208 327.918 80.8208 312.883Z" fill="#A30000"/>
<path d="M72.8578 293.688C77.7903 298.62 80.8211 305.395 80.8211 312.883C80.8211 327.918 68.6386 340.041 53.6629 340.041H31.7343C24.2465 340.041 17.4124 337.01 12.5393 332.137C7.60689 327.205 4.57617 320.43 4.57617 312.883C4.57617 297.907 16.6993 285.784 31.7343 285.784H53.6629C61.1507 285.784 67.9254 288.815 72.8578 293.688Z" fill="#BF0000"/>
<path d="M60.378 349.668V358.167H55.1484V349.668H59.13H60.378Z" fill="#D89C55"/>
<path d="M60.378 275.741V284.239H59.13H55.1484V275.741H60.378Z" fill="#D89C55"/>
<path d="M55.1488 349.668V358.167H36.667V349.668H55.1488Z" fill="#EFB970"/>
<path d="M55.1488 275.741V284.239H36.667V275.741H55.1488Z" fill="#EFB970"/>
<path d="M36.6663 349.668V358.167H31.4961V349.668H32.744H36.6663Z" fill="#D89C55"/>
<path d="M36.6663 275.741V284.239H32.744H31.4961V275.741H36.6663Z" fill="#D89C55"/>
<path d="M40.8846 407.729H41.4789V358.167H40.8846V407.729ZM44.0342 407.729H44.6285V358.167H44.0342V407.729ZM37.735 407.729H38.3292V358.107H37.735V407.729ZM34.6448 407.729H35.2391V358.167H34.6448V407.729ZM31.4951 407.729H32.0894V358.167H31.4951V407.729ZM47.1839 407.729H47.7782V358.107H47.1839V407.729ZM53.4831 407.729H54.0774V358.167H53.4831V407.729ZM59.7824 358.167V407.729H60.3767V358.167H59.7824ZM56.6328 407.729H57.2271V358.167H56.6328V407.729ZM50.3335 407.729H50.9278V358.107H50.3335V407.729Z" fill="#EFB970"/>
<path d="M46.5303 275.741H45.3418V65.1318H46.5303V275.741Z" fill="#EFB970"/>
<path fill-rule="evenodd" clip-rule="evenodd" d="M150.707 150.529C157.422 157.304 161.642 166.634 161.642 176.914C161.642 197.595 144.883 214.294 124.262 214.294H94.0732C83.7923 214.294 74.4622 210.134 67.6875 203.359C60.9128 196.585 56.7529 187.255 56.7529 176.914C56.7529 156.293 73.452 139.594 94.0732 139.594H124.262C134.602 139.594 143.932 143.754 150.707 150.529ZM149.043 172.339C149.043 163.781 145.596 155.996 139.951 150.41C134.365 144.764 126.58 141.318 118.022 141.318H92.944C75.829 141.318 61.9231 155.224 61.9231 172.339C61.9231 180.896 65.3699 188.681 71.0154 194.267C76.6016 199.913 84.3865 203.359 92.944 203.359H118.022C135.137 203.359 149.043 189.454 149.043 172.339Z" fill="#BF0000"/>
<path d="M139.952 150.41C145.597 155.996 149.044 163.781 149.044 172.338C149.044 189.453 135.138 203.359 118.023 203.359H92.9447C84.3872 203.359 76.6023 199.912 71.0161 194.267C65.3706 188.681 61.9238 180.896 61.9238 172.338C61.9238 155.223 75.8297 141.317 92.9447 141.317H118.023C126.58 141.317 134.365 144.764 139.952 150.41Z" fill="#E40500"/>
<path d="M125.689 214.294V224.04H119.746V214.294H124.263H125.689Z" fill="#D89C55"/>
<path d="M125.689 129.848V139.594H124.263H119.746V129.848H125.689Z" fill="#D89C55"/>
<path d="M119.746 214.294V224.04H98.5898V214.294H119.746Z" fill="#EFB970"/>
<path d="M119.746 129.848V139.594H98.5898V129.848H119.746Z" fill="#EFB970"/>
<path d="M98.5902 214.294V224.04H92.6475V214.294H94.0737H98.5902Z" fill="#D89C55"/>
<path d="M98.5902 129.848V139.594H94.0737H92.6475V129.848H98.5902Z" fill="#D89C55"/>
<path d="M103.462 280.674H104.116V224.04H103.462V280.674ZM99.8371 280.674H100.55V224.04H99.8371V280.674ZM107.028 280.674H107.741V223.98H107.028V280.674ZM92.6465 280.674H93.3596V224.04H92.6465V280.674ZM96.2715 280.674H96.9252V224.04H96.2715V280.674ZM125.034 224.04V280.674H125.688V224.04H125.034ZM117.844 280.674H118.557V224.04H117.844V280.674ZM121.469 280.674H122.122V223.98H121.469V280.674ZM110.653 280.674H111.366V224.04H110.653V280.674ZM114.278 280.674H114.932V224.04H114.278V280.674Z" fill="#EFB970"/>
<path d="M109.881 129.848H108.514V0H109.881V129.848Z" fill="#EFB970"/>
</svg>
