<svg width="1629" height="262" viewBox="0 0 1629 262" fill="none" xmlns="http://www.w3.org/2000/svg">
<path d="M1250.11 166.618C1225.98 149.384 1196.39 154.019 1196.39 154.019C1196.39 154.019 1210 145.937 1196.33 125.613C1183.19 105.943 1158.83 123.414 1157.16 124.603C1158.12 122.226 1171.96 87.342 1144.03 80.5673C1116.46 73.852 1102.02 89.4813 1100.83 90.8482C1094.94 73.0795 1078.31 53.7062 1039.74 54.0034C1023.34 54.1222 1011.57 58.401 1003.13 64.5814C994.691 58.401 982.925 54.1222 966.463 54.0034C927.895 53.7062 911.315 73.0795 905.432 90.8482C904.184 89.4813 889.743 73.852 862.169 80.5673C834.298 87.342 848.085 122.226 849.095 124.603C847.431 123.414 823.066 105.943 809.873 125.613C796.264 145.937 809.814 154.019 809.814 154.019C809.814 154.019 780.219 149.384 756.151 166.618C732.083 183.852 707.896 206.434 670.457 201.145C670.457 201.145 702.548 214.932 743.612 198.114C783.25 181.89 817.836 188.487 820.154 188.962C822.353 196.034 827.523 203.344 836.734 210.118C859.376 226.996 881.423 218.2 896.577 207.028C902.817 222.42 918.862 246.963 957.549 243.16C983.4 240.604 996.474 228.422 1003.13 216.002C1009.73 228.422 1022.8 240.604 1048.65 243.16C1087.4 246.963 1103.44 222.42 1109.68 207.028C1124.78 218.2 1146.88 226.996 1169.53 210.118C1178.68 203.344 1183.85 196.034 1186.05 188.962C1188.42 188.487 1222.95 181.89 1262.59 198.114C1303.71 214.932 1335.74 201.145 1335.74 201.145C1298.36 206.434 1274.18 183.852 1250.11 166.618Z" fill="#5B0101"/>
<path d="M857.652 148.076C859.039 148.393 860.406 148.849 861.753 149.443C877.025 155.861 879.878 168.816 876.134 178.146C872.449 187.179 862.05 193.657 849.213 188.724C847.965 188.249 847.371 186.823 847.847 185.575C848.322 184.327 849.689 183.673 850.996 184.208C861.337 188.189 868.943 182.9 871.617 176.304C874.589 168.876 872.152 159.07 859.851 153.9C850.937 150.097 839.586 152.652 831.088 160.318C822.709 167.865 819.5 178.206 822.531 188.07C822.887 189.378 822.174 190.745 820.867 191.101C819.619 191.517 818.252 190.804 817.836 189.497C814.27 177.79 818.014 165.548 827.82 156.693C836.496 148.849 847.787 145.699 857.652 148.076Z" fill="#700000"/>
<path d="M1011.81 231.69C1012.7 231.928 1013.71 231.631 1014.3 230.858C1015.19 229.848 1015.01 228.303 1014 227.471C1006.93 221.647 1002 214.278 1001.7 208.989C1001.29 201.085 1005.68 193.716 1012.88 190.27C1020.24 186.763 1028.62 188.19 1035.34 194.192C1038.55 197.044 1039.44 199.6 1039.38 202.036C1038.96 215.883 1027.2 214.516 1022.44 213.387C1021.14 213.09 1020.42 215.11 1020.78 216.418C1021.14 217.725 1022.44 217.903 1023.75 218.082C1026.48 218.438 1040.15 222.123 1043.66 205.067C1044.55 200.788 1043.24 194.667 1038.55 190.507C1030.35 183.198 1019.95 181.474 1010.8 185.872C1001.82 190.21 996.355 199.362 996.889 209.227C997.246 216.002 1002.59 224.381 1010.91 231.215C1011.19 231.413 1011.49 231.571 1011.81 231.69Z" fill="#700000"/>
<path d="M1113.9 80.4483C1114.85 80.3889 1115.8 80.8643 1116.22 81.7557C1116.87 82.9443 1116.4 84.3705 1115.21 85.0242C1107.07 89.1841 1100.77 95.424 1099.4 100.535C1097.38 108.201 1100.12 116.283 1106.47 121.156C1112.89 126.088 1121.45 126.445 1129.23 121.988C1132.98 119.848 1134.4 117.471 1134.82 115.094C1137.26 101.426 1125.49 100.356 1120.62 100.475C1119.25 100.535 1118.95 98.3953 1119.61 97.2068C1120.2 96.0182 1121.51 96.0777 1122.88 96.1965C1125.55 96.3748 1139.69 95.6022 1139.63 113.014C1139.57 117.353 1137.08 123.117 1131.67 126.207C1122.1 131.615 1111.58 131.199 1103.5 125.019C1095.6 118.957 1092.15 108.854 1094.71 99.2867C1096.43 92.7497 1103.44 85.6185 1112.95 80.686C1113.27 80.5275 1113.59 80.4483 1113.9 80.4483Z" fill="#700000"/>
<path d="M905.788 89.1841C905.828 89.1841 905.887 89.1841 905.966 89.1841C907.214 89.6 907.987 91.0263 907.511 92.2742C897.884 118.184 918.149 135.418 927.717 138.033C933.778 139.638 941.266 140.172 947.447 135.537C955.113 129.773 956.063 120.74 952.26 114.203C948.457 107.606 938.532 103.031 929.262 107.072C928.014 107.606 926.588 107.072 926.053 105.824C925.518 104.576 926.112 103.149 927.36 102.615C939.246 97.4444 951.488 103.209 956.42 111.766C960.402 118.541 961.768 130.842 950.358 139.459C942.93 145.045 934.016 144.867 926.469 142.728C913.632 139.222 892.12 120.74 902.876 90.7886C903.352 89.6 904.54 88.8869 905.788 89.1841Z" fill="#700000"/>
<path d="M810.408 123.236C810.685 123.275 810.962 123.394 811.24 123.592C812.309 124.306 812.607 125.851 811.893 126.92C807.258 133.873 805.416 139.935 806.545 144.927C807.555 149.74 810.943 151.88 811.121 151.939C812.072 152.533 812.488 153.781 812.131 154.851C811.715 155.921 810.586 156.634 809.457 156.456C809.16 156.396 780.575 152.177 757.577 168.638C754.665 170.718 751.753 172.857 748.782 175.056C727.804 190.626 703.974 208.335 670.1 203.581C668.852 203.403 667.842 202.155 668.02 200.848C668.258 199.481 669.447 198.589 670.814 198.768C702.667 203.225 724.654 186.942 745.929 171.134C748.901 168.935 751.813 166.736 754.784 164.657C772.79 151.761 793.53 150.632 803.811 151.048C802.979 149.74 802.266 148.076 801.791 146.115C800.365 139.697 802.385 132.388 807.852 124.246C808.447 123.355 809.457 122.998 810.408 123.236Z" fill="#700000"/>
<path d="M1148.61 148.077C1147.18 148.393 1145.81 148.849 1144.51 149.443C1129.23 155.861 1126.32 168.817 1130.13 178.147C1133.75 187.18 1144.21 193.657 1156.99 188.725C1158.23 188.249 1158.89 186.823 1158.41 185.575C1157.94 184.327 1156.51 183.673 1155.26 184.208C1144.86 188.19 1137.32 182.901 1134.64 176.304C1131.61 168.876 1134.11 159.071 1146.35 153.9C1155.32 150.097 1166.67 152.652 1175.17 160.319C1183.55 167.866 1186.7 178.206 1183.73 188.071C1183.31 189.378 1184.08 190.745 1185.33 191.102C1186.64 191.518 1188.01 190.805 1188.36 189.497C1191.93 177.79 1188.19 165.548 1178.38 156.693C1169.76 148.849 1158.47 145.699 1148.61 148.077Z" fill="#700000"/>
<path d="M1195.79 123.236C1195.51 123.275 1195.26 123.394 1195.02 123.592C1193.89 124.306 1193.59 125.851 1194.37 126.92C1199 133.873 1200.78 139.935 1199.71 144.927C1198.64 149.74 1195.26 151.88 1195.14 151.939C1194.13 152.533 1193.71 153.781 1194.13 154.851C1194.54 155.921 1195.61 156.634 1196.8 156.456C1197.04 156.396 1225.68 152.177 1248.62 168.638C1251.53 170.718 1254.51 172.857 1257.42 175.056C1278.46 190.626 1302.29 208.335 1336.1 203.581C1337.41 203.403 1338.36 202.155 1338.18 200.848C1338 199.481 1336.75 198.589 1335.45 198.768C1303.53 203.225 1281.6 186.942 1260.33 171.134C1257.36 168.935 1254.39 166.736 1251.48 164.657C1233.41 151.761 1212.67 150.632 1202.45 151.048C1203.22 149.74 1203.99 148.076 1204.41 146.115C1205.89 139.697 1203.81 132.388 1198.41 124.246C1197.81 123.355 1196.74 122.998 1195.79 123.236Z" fill="#700000"/>
<path d="M949.705 246.072C915.118 246.072 900.202 222.657 894.259 207.979C893.725 206.671 894.319 205.245 895.626 204.71C896.934 204.176 898.36 204.829 898.895 206.077C904.778 220.577 920.17 244.348 957.312 240.664C977.101 238.762 991.304 230.799 999.624 217.071C1000.34 215.883 1001.88 215.526 1003.07 216.239C1004.26 216.952 1004.62 218.497 1003.9 219.686C994.751 234.84 979.24 243.576 957.846 245.656C954.994 245.933 952.28 246.072 949.705 246.072Z" fill="#700000"/>
<path d="M863.359 222.063C854.385 222.063 844.877 219.329 835.19 212.139C831.447 209.346 828.178 206.315 825.504 203.225C824.612 202.155 824.731 200.61 825.742 199.659C826.811 198.768 828.416 198.887 829.307 199.956C831.744 202.809 834.715 205.542 838.221 208.098C859.912 224.262 881.128 215.348 895.093 205.008C896.163 204.176 897.767 204.413 898.599 205.542C899.431 206.671 899.193 208.217 898.064 209.049C888.853 215.823 876.789 222.063 863.359 222.063Z" fill="#700000"/>
<path d="M845.052 181.618C820.984 164.324 791.39 169.019 791.39 169.019C791.39 169.019 804.939 160.878 791.33 140.613C778.137 120.883 753.772 138.355 752.108 139.543C753.119 137.226 766.965 102.342 739.034 95.5673C711.46 88.852 697.019 104.481 695.771 105.848C689.888 88.0795 673.308 68.7062 634.74 69.0034C618.278 69.1222 606.512 73.401 598.073 79.5814C589.635 73.401 577.868 69.1222 561.466 69.0034C522.898 68.7062 506.318 88.0795 500.375 105.848C499.187 104.481 484.746 88.852 457.172 95.5673C429.241 102.342 443.088 137.226 444.038 139.543C442.434 138.355 418.009 120.883 404.876 140.613C391.208 160.878 404.816 169.019 404.816 169.019C404.816 169.019 375.222 164.324 351.094 181.618C327.026 198.852 302.84 221.434 265.46 216.145C265.46 216.145 297.491 229.932 338.615 213.114C378.253 196.89 412.78 203.487 415.157 203.962C417.356 211.034 422.526 218.284 431.677 225.118C454.319 241.936 476.426 233.2 491.521 222.028C497.76 237.42 513.806 261.963 552.552 258.16C578.403 255.604 591.477 243.362 598.073 230.942C604.729 243.362 617.803 255.604 643.654 258.16C682.341 261.963 698.386 237.42 704.626 222.028C719.78 233.2 741.827 241.936 764.529 225.118C773.68 218.284 778.851 211.034 781.049 203.962C783.367 203.487 817.953 196.89 857.591 213.114C898.655 229.932 930.746 216.145 930.746 216.145C893.307 221.434 869.18 198.852 845.052 181.618Z" fill="#5B0101"/>
<path d="M452.595 163.076C454.021 163.393 455.388 163.829 456.695 164.383C471.968 170.861 474.88 183.816 471.076 193.146C467.451 202.12 456.992 208.657 444.215 203.724C442.967 203.189 442.314 201.823 442.789 200.575C443.324 199.327 444.691 198.673 445.939 199.148C456.338 203.189 463.886 197.9 466.56 191.304C469.591 183.876 467.095 174.07 454.853 168.9C445.879 165.097 434.529 167.593 426.031 175.259C417.711 182.806 414.502 193.206 417.473 203.07C417.889 204.378 417.176 205.745 415.869 206.101C414.561 206.517 413.254 205.804 412.838 204.497C409.272 192.79 413.016 180.488 422.822 171.693C431.438 163.849 442.73 160.699 452.595 163.076Z" fill="#700000"/>
<path d="M606.748 246.631C607.698 246.869 608.649 246.631 609.303 245.858C610.135 244.789 610.016 243.303 608.946 242.412C601.875 236.647 596.942 229.219 596.704 223.989C596.288 216.085 600.686 208.716 607.877 205.27C615.186 201.704 623.566 203.19 630.34 209.132C633.549 211.985 634.441 214.6 634.381 217.036C633.965 230.883 622.199 229.516 617.444 228.387C616.137 228.09 615.365 230.11 615.781 231.418C616.137 232.666 617.445 232.903 618.752 233.081C621.426 233.438 635.094 237.123 638.601 220.067C639.492 215.788 638.185 209.667 633.549 205.507C625.289 198.198 614.889 196.474 605.737 200.872C596.823 205.151 591.356 214.362 591.831 224.227C592.188 231.002 597.596 239.381 605.916 246.215C606.153 246.413 606.431 246.552 606.748 246.631Z" fill="#700000"/>
<path d="M708.904 95.3888C709.855 95.3293 710.746 95.8047 711.222 96.6961C711.816 97.8847 711.341 99.3703 710.152 99.9646C702.07 104.184 695.711 110.424 694.404 115.535C692.324 123.201 695.117 131.283 701.416 136.156C707.894 141.088 716.392 141.385 724.236 136.928C727.98 134.789 729.347 132.471 729.822 130.035C732.259 116.426 720.433 115.356 715.56 115.475C714.253 115.475 713.955 113.395 714.55 112.207C715.203 111.018 716.511 111.078 717.818 111.137C720.552 111.315 734.695 110.602 734.577 128.014C734.577 132.352 732.021 138.057 726.613 141.148C717.046 146.615 706.527 146.199 698.445 139.959C690.601 133.957 687.154 123.854 689.65 114.287C691.433 107.75 698.386 100.618 707.953 95.6859C708.27 95.5274 708.587 95.4284 708.904 95.3888Z" fill="#700000"/>
<path d="M500.73 104.125C500.81 104.164 500.869 104.184 500.909 104.184C502.216 104.6 502.989 105.967 502.513 107.274C492.827 133.185 513.091 150.359 522.718 153.033C528.721 154.638 536.208 155.173 542.389 150.537C550.055 144.773 551.006 135.74 547.202 129.144C543.399 122.607 533.534 118.031 524.264 122.072C523.016 122.607 521.589 122.012 521.054 120.824C520.52 119.576 521.054 118.15 522.302 117.615C534.188 112.445 546.43 118.209 551.422 126.707C555.344 133.482 556.77 145.843 545.301 154.4C537.872 159.986 528.958 159.867 521.411 157.728C508.575 154.162 487.122 135.74 497.878 105.789C498.294 104.541 499.542 103.828 500.73 104.125Z" fill="#700000"/>
<path d="M405.409 138.236C405.686 138.275 405.944 138.375 406.181 138.533C407.31 139.306 407.608 140.791 406.835 141.92C402.2 148.873 400.417 154.875 401.487 159.927C402.556 164.681 405.944 166.82 406.063 166.939C407.073 167.533 407.489 168.781 407.073 169.851C406.657 170.921 405.587 171.574 404.458 171.396C404.161 171.396 375.517 167.177 352.578 183.579C349.666 185.659 346.695 187.857 343.783 190.056C322.746 205.626 298.915 223.276 265.101 218.581C263.794 218.403 262.843 217.155 263.022 215.788C263.2 214.481 264.448 213.589 265.755 213.768C297.668 218.225 319.656 201.882 340.871 186.134C343.842 183.935 346.814 181.736 349.726 179.657C367.791 166.701 388.532 165.632 398.753 166.048C397.98 164.681 397.208 163.076 396.792 161.056C395.366 154.697 397.386 147.328 402.794 139.246C403.388 138.355 404.458 137.998 405.409 138.236Z" fill="#700000"/>
<path d="M743.55 163.077C742.163 163.393 740.796 163.829 739.449 164.384C724.236 170.861 721.324 183.817 725.068 193.147C728.752 202.12 739.152 208.657 751.988 203.725C753.236 203.19 753.831 201.823 753.355 200.575C752.88 199.327 751.513 198.673 750.205 199.149C739.865 203.19 732.259 197.901 729.584 191.304C726.613 183.876 729.049 174.071 741.351 168.9C750.324 165.097 761.615 167.593 770.114 175.259C778.493 182.806 781.702 193.206 778.671 203.071C778.315 204.378 779.028 205.745 780.335 206.102C781.583 206.518 782.95 205.805 783.366 204.497C786.931 192.79 783.188 180.489 773.382 171.693C764.706 163.849 753.415 160.699 743.55 163.077Z" fill="#700000"/>
<path d="M790.793 138.236C790.516 138.275 790.258 138.375 790.021 138.533C788.892 139.306 788.595 140.791 789.308 141.92C793.943 148.873 795.785 154.875 794.656 159.927C793.646 164.681 790.258 166.82 790.14 166.939C789.129 167.533 788.713 168.781 789.129 169.851C789.486 170.921 790.615 171.574 791.744 171.396C792.041 171.396 820.626 167.177 843.624 183.579C846.536 185.659 849.448 187.857 852.419 190.056C873.397 205.626 897.227 223.276 931.101 218.581C932.349 218.403 933.359 217.155 933.181 215.788C933.002 214.481 931.754 213.589 930.387 213.768C898.535 218.225 876.547 201.882 855.272 186.134C852.3 183.935 849.388 181.736 846.417 179.657C828.411 166.701 807.671 165.632 797.39 166.048C798.222 164.681 798.935 163.076 799.41 161.056C800.837 154.697 798.816 147.328 793.349 139.246C792.754 138.355 791.744 137.998 790.793 138.236Z" fill="#700000"/>
<path d="M544.707 261.072C510.061 261.072 495.145 237.658 489.203 222.979C488.668 221.672 489.321 220.186 490.569 219.711C491.877 219.176 493.362 219.77 493.838 221.077C499.721 235.578 515.172 259.289 552.314 255.664C572.044 253.703 586.306 245.799 594.567 232.071C595.28 230.883 596.825 230.467 598.014 231.18C599.202 231.893 599.618 233.438 598.905 234.627C589.694 249.781 574.183 258.576 552.79 260.656C549.977 260.933 547.283 261.072 544.707 261.072Z" fill="#700000"/>
<path d="M458.3 237.063C449.386 237.063 439.818 234.27 430.191 227.139C426.387 224.346 423.119 221.315 420.445 218.225C419.553 217.155 419.672 215.55 420.742 214.659C421.812 213.768 423.357 213.887 424.248 214.956C426.685 217.749 429.715 220.483 433.162 223.098C454.853 239.202 476.068 230.288 490.034 220.008C491.163 219.176 492.708 219.413 493.54 220.542C494.372 221.612 494.134 223.217 493.005 224.049C483.853 230.823 471.73 237.063 458.3 237.063Z" fill="#700000"/>
<path d="M451.673 190.361C432.953 176.99 410.014 180.555 410.014 180.555C410.014 180.555 420.533 174.315 409.955 158.508C399.733 143.235 380.836 156.784 379.528 157.735C380.301 155.893 391.057 128.854 369.366 123.565C347.972 118.394 336.741 130.518 335.849 131.528C331.214 117.741 318.378 102.765 288.427 103.003C275.709 103.062 266.557 106.39 260.02 111.204C253.424 106.39 244.332 103.062 231.555 103.003C201.663 102.765 188.767 117.741 184.191 131.528C183.241 130.518 172.068 118.394 150.675 123.565C128.984 128.854 139.74 155.893 140.453 157.735C139.205 156.784 120.248 143.235 110.086 158.508C99.5078 174.315 110.026 180.555 110.026 180.555C110.026 180.555 87.0876 176.99 68.368 190.361C49.6485 203.732 30.929 221.263 1.86914 217.162C1.86914 217.162 26.7691 227.859 58.622 214.785C89.4052 202.187 116.207 207.357 118.049 207.713C119.713 213.181 123.754 218.826 130.885 224.115C148.476 237.189 165.591 230.414 177.298 221.738C182.171 233.683 194.591 252.7 224.661 249.788C244.748 247.767 254.85 238.318 260.02 228.691C265.131 238.318 275.293 247.767 295.379 249.788C325.39 252.7 337.87 233.683 342.683 221.738C354.45 230.414 371.565 237.189 389.155 224.115C396.227 218.826 400.268 213.181 401.992 207.713C403.775 207.357 430.636 202.187 461.359 214.785C493.272 227.859 518.112 217.162 518.112 217.162C489.112 221.263 470.333 203.732 451.673 190.361Z" fill="#5B0101"/>
<path d="M147.108 175.98C148.217 176.217 149.287 176.554 150.317 176.99C162.143 182.041 164.401 192.084 161.43 199.275C158.637 206.287 150.555 211.339 140.571 207.476C139.62 207.119 139.145 206.05 139.502 205.039C139.918 204.089 140.987 203.613 141.938 203.97C150.02 207.119 155.903 203.019 157.983 197.908C160.301 192.144 158.399 184.537 148.832 180.496C141.879 177.525 133.083 179.486 126.487 185.428C120.009 191.312 117.513 199.394 119.831 207C120.188 208.011 119.593 209.08 118.583 209.377C117.632 209.675 116.563 209.14 116.266 208.13C113.472 199.037 116.384 189.529 123.991 182.635C130.706 176.574 139.442 174.137 147.108 175.98Z" fill="#700000"/>
<path d="M266.734 240.814C267.447 241.052 268.22 240.814 268.695 240.22C269.349 239.388 269.23 238.199 268.458 237.546C262.931 233.089 259.128 227.324 258.949 223.224C258.593 217.103 261.98 211.398 267.566 208.724C273.271 205.99 279.808 207.119 285.038 211.754C287.534 213.953 288.187 215.974 288.128 217.875C287.831 228.632 278.679 227.562 274.995 226.671C273.984 226.433 273.449 227.978 273.687 228.988C273.984 229.999 274.995 230.177 276.064 230.296C278.144 230.593 288.722 233.445 291.456 220.193C292.169 216.865 291.099 212.111 287.534 208.902C281.116 203.256 273.034 201.89 265.962 205.336C259.009 208.664 254.789 215.736 255.146 223.462C255.443 228.691 259.603 235.228 266.081 240.458C266.279 240.656 266.497 240.775 266.734 240.814Z" fill="#700000"/>
<path d="M346.009 123.446C346.722 123.446 347.435 123.802 347.792 124.456C348.267 125.407 347.911 126.536 346.96 127.011C340.661 130.28 335.788 135.094 334.718 139.075C333.173 145.018 335.312 151.317 340.185 155.061C345.237 158.924 351.833 159.161 357.895 155.715C360.807 154.051 361.876 152.209 362.233 150.366C364.134 139.788 354.923 138.956 351.179 139.016C350.11 139.075 349.872 137.411 350.407 136.46C350.882 135.569 351.892 135.628 352.903 135.688C355.042 135.866 365.977 135.272 365.917 148.762C365.917 152.149 363.956 156.606 359.737 158.983C352.308 163.203 344.167 162.846 337.927 158.092C331.806 153.397 329.132 145.553 331.093 138.124C332.4 133.014 337.868 127.487 345.237 123.684C345.474 123.565 345.732 123.485 346.009 123.446Z" fill="#700000"/>
<path d="M184.488 130.28C184.528 130.28 184.567 130.28 184.607 130.28C185.617 130.577 186.211 131.706 185.855 132.657C178.308 152.803 194.056 166.114 201.543 168.194C206.179 169.442 212.003 169.858 216.816 166.233C222.759 161.776 223.472 154.764 220.501 149.653C217.589 144.602 209.923 141.036 202.673 144.186C201.722 144.602 200.652 144.126 200.236 143.176C199.82 142.225 200.236 141.096 201.187 140.68C210.458 136.698 219.906 141.155 223.769 147.751C226.859 153.04 227.929 162.608 219.074 169.264C213.31 173.602 206.357 173.483 200.533 171.819C190.55 169.086 173.91 154.764 182.23 131.528C182.586 130.577 183.537 130.042 184.488 130.28Z" fill="#700000"/>
<path d="M110.501 156.666C110.699 156.745 110.897 156.844 111.095 156.963C111.986 157.557 112.165 158.686 111.63 159.578C108.005 164.926 106.638 169.621 107.47 173.543C108.242 177.228 110.917 178.892 110.976 178.951C111.749 179.426 112.105 180.377 111.808 181.209C111.451 182.101 110.619 182.576 109.728 182.457C109.49 182.398 87.3241 179.129 69.4959 191.906C67.2377 193.511 64.9795 195.174 62.6618 196.898C46.3788 209.021 27.897 222.689 1.63023 219.064C0.61997 218.886 -0.15259 217.935 0.0256916 216.925C0.144546 215.855 1.09538 215.142 2.10564 215.32C26.8867 218.767 43.9423 206.109 60.4036 193.867C62.7213 192.144 64.9795 190.48 67.2972 188.816C81.322 178.832 97.3673 177.941 105.33 178.297C104.736 177.228 104.142 175.98 103.785 174.434C102.656 169.502 104.261 163.797 108.48 157.498C108.956 156.785 109.728 156.487 110.501 156.666Z" fill="#700000"/>
<path d="M372.93 175.979C371.821 176.217 370.751 176.553 369.721 176.989C357.895 182.041 355.637 192.084 358.548 199.274C361.401 206.287 369.483 211.338 379.407 207.475C380.418 207.119 380.893 206.049 380.477 205.039C380.121 204.088 379.051 203.613 378.041 203.969C370.018 207.119 364.135 203.018 362.055 197.908C359.737 192.143 361.639 184.537 371.147 180.495C378.1 177.524 386.895 179.485 393.492 185.428C399.969 191.311 402.465 199.393 400.147 207C399.85 208.01 400.385 209.08 401.395 209.377C402.406 209.674 403.475 209.139 403.773 208.129C406.506 199.037 403.654 189.528 396.047 182.635C389.332 176.573 380.537 174.137 372.93 175.979Z" fill="#700000"/>
<path d="M409.536 156.665C409.338 156.745 409.14 156.844 408.942 156.962C408.05 157.557 407.813 158.686 408.407 159.577C412.032 164.926 413.399 169.62 412.567 173.543C411.735 177.227 409.12 178.891 409.001 178.95C408.229 179.426 407.932 180.377 408.229 181.209C408.526 182.1 409.417 182.576 410.249 182.457C410.487 182.397 432.713 179.129 450.541 191.906C452.799 193.51 455.057 195.174 457.316 196.897C473.658 209.021 492.14 222.689 518.407 219.064C519.417 218.885 520.13 217.935 520.011 216.924C519.892 215.855 518.941 215.142 517.872 215.32C493.15 218.767 476.095 206.109 459.574 193.867C457.316 192.143 454.998 190.479 452.74 188.815C438.715 178.832 422.61 177.94 414.647 178.297C415.301 177.227 415.895 175.979 416.192 174.434C417.321 169.502 415.776 163.797 411.557 157.497C411.081 156.784 410.249 156.487 409.536 156.665Z" fill="#700000"/>
<path d="M218.54 252.046C191.679 252.046 180.15 233.861 175.515 222.451C175.099 221.441 175.574 220.312 176.584 219.896C177.595 219.539 178.724 220.015 179.14 220.965C183.656 232.197 195.661 250.679 224.483 247.826C239.815 246.341 250.868 240.16 257.286 229.523C257.821 228.572 259.069 228.275 259.961 228.869C260.911 229.404 261.209 230.593 260.614 231.543C253.483 243.251 241.479 250.085 224.839 251.689C222.66 251.927 220.56 252.046 218.54 252.046Z" fill="#700000"/>
<path d="M151.564 233.386C144.611 233.386 137.183 231.247 129.695 225.66C126.783 223.521 124.228 221.203 122.148 218.767C121.494 217.935 121.554 216.687 122.386 216.033C123.218 215.32 124.406 215.38 125.119 216.212C127.021 218.41 129.339 220.55 132.013 222.57C148.89 235.05 165.351 228.156 176.167 220.134C177.059 219.539 178.247 219.718 178.901 220.55C179.555 221.441 179.317 222.63 178.485 223.283C171.354 228.572 161.964 233.386 151.564 233.386Z" fill="#700000"/>
<path d="M1555.93 167.876C1535.91 154.386 1511.96 158.843 1511.96 158.843C1511.96 158.843 1522.83 151.949 1511.24 135.726C1500.07 119.978 1480.64 134.775 1479.33 135.785C1480.04 133.824 1490.5 105.18 1467.62 100.307C1445.04 95.4343 1433.63 108.508 1432.68 109.637C1427.45 95.3154 1413.49 79.9833 1382.17 81.0529C1368.8 81.5878 1359.29 85.2723 1352.57 90.5019C1345.56 85.6883 1335.87 82.4792 1322.5 82.7763C1291.13 83.43 1278.05 99.5348 1273.65 114.154C1272.64 113.084 1260.52 100.664 1238.24 106.785C1215.65 112.965 1227.72 141.015 1228.61 142.917C1227.24 141.966 1206.98 128.357 1196.7 144.64C1186.06 161.517 1197.29 167.816 1197.29 167.816C1197.29 167.816 1173.16 164.667 1153.91 179.286C1134.71 193.846 1115.58 212.803 1084.97 209.356C1084.97 209.356 1111.42 219.875 1144.46 205.196C1176.31 191.112 1204.66 195.688 1206.56 195.985C1208.46 201.69 1212.86 207.514 1220.47 212.803C1239.3 225.996 1257.07 218.389 1269.14 208.94C1274.55 221.301 1288.21 240.912 1319.65 236.93C1340.63 234.256 1350.97 223.975 1356.08 213.754C1361.72 223.678 1372.66 233.365 1393.76 234.85C1425.37 237.049 1437.85 216.666 1442.6 204.008C1455.14 212.743 1473.33 219.34 1491.39 205.137C1498.64 199.372 1502.74 193.311 1504.35 187.546C1506.25 187.071 1534.24 180.89 1566.87 193.192C1600.68 205.969 1626.47 193.964 1626.47 193.964C1596.1 199.135 1575.96 181.306 1555.93 167.876Z" fill="#5B0101"/>
<path d="M1236.1 161.815C1237.24 162.092 1238.37 162.429 1239.48 162.825C1252.02 167.757 1254.7 178.217 1251.84 185.883C1249.05 193.311 1240.73 198.838 1230.21 195.094C1229.14 194.737 1228.61 193.608 1228.96 192.598C1229.32 191.528 1230.45 190.993 1231.52 191.409C1240.02 194.44 1246.08 189.924 1248.1 184.516C1250.42 178.395 1248.16 170.491 1238.06 166.509C1230.69 163.657 1221.48 165.975 1214.76 172.393C1208.11 178.751 1205.79 187.249 1208.4 195.213C1208.76 196.282 1208.22 197.412 1207.15 197.709C1206.14 198.065 1205.02 197.53 1204.66 196.461C1201.51 187.071 1204.24 176.969 1212.03 169.54C1218.92 163.003 1228.01 160.151 1236.1 161.815Z" fill="#700000"/>
<path d="M1363.51 226.293C1364.22 226.471 1365.05 226.233 1365.53 225.58C1366.18 224.748 1366.06 223.5 1365.17 222.846C1359.29 218.27 1355.13 212.387 1354.77 208.108C1354.24 201.631 1357.62 195.569 1363.39 192.598C1369.33 189.567 1376.17 190.518 1381.81 195.272C1384.49 197.471 1385.26 199.61 1385.26 201.571C1385.26 212.862 1375.63 212.03 1371.77 211.198C1370.7 210.961 1370.1 212.625 1370.46 213.694C1370.76 214.704 1371.83 214.883 1372.96 215.002C1375.16 215.239 1386.33 217.854 1388.82 203.889C1389.42 200.442 1388.23 195.45 1384.31 192.241C1377.47 186.477 1368.97 185.288 1361.61 189.091C1354.42 192.776 1350.2 200.383 1350.85 208.405C1351.27 213.873 1355.84 220.588 1362.79 225.936C1362.99 226.134 1363.23 226.253 1363.51 226.293Z" fill="#700000"/>
<path d="M1443.14 100.842C1443.85 100.783 1444.63 101.139 1445.04 101.853C1445.58 102.803 1445.22 103.992 1444.27 104.527C1437.73 108.152 1432.74 113.381 1431.73 117.541C1430.3 123.841 1432.74 130.378 1437.97 134.181C1443.38 138.044 1450.27 138.103 1456.57 134.3C1459.54 132.458 1460.61 130.556 1460.91 128.595C1462.63 117.422 1452.95 116.828 1449.02 117.007C1447.89 117.066 1447.6 115.343 1448.07 114.392C1448.61 113.381 1449.68 113.441 1450.75 113.441C1452.95 113.56 1464.42 112.609 1464.77 126.753C1464.89 130.318 1462.93 135.072 1458.59 137.687C1450.93 142.322 1442.37 142.204 1435.65 137.39C1429.12 132.636 1426.09 124.494 1427.93 116.65C1429.18 111.302 1434.7 105.359 1442.37 101.08C1442.61 100.961 1442.86 100.882 1443.14 100.842Z" fill="#700000"/>
<path d="M1273.89 112.787C1273.93 112.787 1273.99 112.807 1274.07 112.847C1275.08 113.144 1275.73 114.214 1275.38 115.283C1268.13 136.618 1285.06 150.108 1292.91 152.069C1297.84 153.198 1303.96 153.495 1308.89 149.573C1315.01 144.7 1315.55 137.331 1312.28 132.042C1309.07 126.812 1300.93 123.306 1293.44 126.812C1292.43 127.288 1291.24 126.872 1290.83 125.861C1290.35 124.851 1290.77 123.722 1291.78 123.246C1301.35 118.73 1311.45 123.128 1315.67 129.962C1319.06 135.429 1320.48 145.413 1311.33 152.663C1305.45 157.358 1298.2 157.476 1291.96 155.872C1281.44 153.317 1263.55 138.816 1271.57 114.154C1271.93 113.203 1272.88 112.55 1273.89 112.787Z" fill="#700000"/>
<path d="M1197.11 142.739C1197.31 142.778 1197.53 142.857 1197.77 142.976C1198.66 143.571 1198.95 144.759 1198.36 145.71C1194.73 151.474 1193.43 156.407 1194.44 160.448C1195.39 164.37 1198.18 166.034 1198.3 166.093C1199.13 166.569 1199.49 167.52 1199.19 168.411C1198.89 169.302 1198 169.897 1197.05 169.778C1196.81 169.718 1173.46 166.985 1155.16 180.891C1152.84 182.614 1150.46 184.456 1148.14 186.299C1131.39 199.491 1112.43 214.408 1084.73 211.377C1083.72 211.258 1082.89 210.248 1083.01 209.178C1083.13 208.108 1084.14 207.276 1085.21 207.395C1111.24 210.307 1128.77 196.52 1145.71 183.208C1148.08 181.366 1150.4 179.524 1152.72 177.741C1167.16 166.807 1183.98 165.44 1192.36 165.559C1191.64 164.429 1190.99 163.122 1190.63 161.518C1189.27 156.347 1190.75 150.345 1195.03 143.571C1195.45 142.857 1196.28 142.56 1197.11 142.739Z" fill="#700000"/>
<path d="M1472.91 155.099C1471.76 155.416 1470.65 155.812 1469.58 156.288C1457.34 161.874 1455.26 172.511 1458.53 179.999C1461.74 187.249 1470.36 192.301 1480.7 187.962C1481.71 187.546 1482.18 186.417 1481.77 185.407C1481.29 184.397 1480.16 183.921 1479.15 184.337C1470.83 187.844 1464.53 183.743 1462.16 178.395C1459.54 172.452 1461.32 164.429 1471.25 159.913C1478.44 156.585 1487.71 158.368 1494.78 164.429C1501.79 170.372 1504.65 178.751 1502.39 186.893C1502.15 187.903 1502.75 189.032 1503.81 189.27C1504.83 189.567 1505.95 188.973 1506.25 187.903C1508.87 178.276 1505.54 168.411 1497.34 161.399C1490.15 155.278 1480.88 152.96 1472.91 155.099Z" fill="#700000"/>
<path d="M1510.77 133.765C1510.53 133.844 1510.31 133.963 1510.11 134.121C1509.22 134.716 1509.04 135.964 1509.64 136.855C1513.56 142.382 1515.17 147.255 1514.45 151.355C1513.68 155.277 1511.01 157.12 1510.89 157.179C1510.06 157.714 1509.76 158.724 1510.11 159.556C1510.47 160.448 1511.36 160.982 1512.31 160.804C1512.55 160.745 1535.73 156.644 1554.8 169.48C1557.24 171.144 1559.68 172.808 1562.11 174.532C1579.58 186.774 1599.37 200.561 1626.83 195.926C1627.84 195.747 1628.61 194.737 1628.43 193.667C1628.26 192.598 1627.25 191.884 1626.12 192.063C1600.27 196.401 1582.02 183.624 1564.37 171.323C1561.88 169.599 1559.44 167.876 1557 166.212C1542.03 156.109 1525.09 155.753 1516.77 156.288C1517.42 155.159 1517.96 153.792 1518.32 152.187C1519.33 146.958 1517.48 141.015 1512.85 134.537C1512.37 133.884 1511.54 133.587 1510.77 133.765Z" fill="#700000"/>
<path d="M1313.29 239.485C1285.12 240.258 1272.47 221.538 1267.3 209.772C1266.82 208.702 1267.3 207.514 1268.31 207.038C1269.38 206.622 1270.56 207.098 1271.04 208.108C1276.09 219.756 1289.22 238.713 1319.35 234.909C1335.4 232.889 1346.81 226.055 1353.23 214.704C1353.82 213.694 1355.07 213.397 1356.02 213.932C1357.03 214.467 1357.33 215.715 1356.79 216.725C1349.66 229.264 1337.3 236.752 1319.89 238.95C1317.59 239.228 1315.39 239.406 1313.29 239.485Z" fill="#700000"/>
<path d="M1242.45 221.954C1235.14 222.133 1227.36 220.112 1219.34 214.467C1216.19 212.327 1213.45 209.95 1211.2 207.454C1210.42 206.622 1210.48 205.374 1211.31 204.602C1212.21 203.829 1213.45 203.889 1214.23 204.721C1216.25 206.979 1218.74 209.118 1221.65 211.139C1239.72 223.797 1256.78 216.012 1267.89 207.335C1268.78 206.622 1270.03 206.801 1270.74 207.692C1271.45 208.583 1271.28 209.831 1270.38 210.544C1263.08 216.309 1253.39 221.598 1242.45 221.954Z" fill="#700000"/>
<path d="M993.321 83.5117C994.811 84.4428 996.487 85.1876 998.442 86.0256L1001.24 106.975C992.949 103.809 988.666 99.34 988.386 94.4984L985.779 75.2251C986.71 78.2976 989.224 81.0909 993.321 83.5117Z" fill="#C68238"/>
<path d="M1173.02 70.2905C1173.86 74.4803 1171.71 79.1357 1166.31 83.698L1163.61 62.6557C1168.64 58.2796 1170.88 53.9035 1170.41 49.8999L1173.02 70.2905Z" fill="#C68238"/>
<path d="M1077.77 89.1909C1078.98 89.0978 1080.19 89.0047 1081.59 88.8185C1084.01 88.4461 1086.43 88.1667 1088.76 87.7943C1097.45 86.4908 1105.39 85.0321 1112.59 83.4182H1112.68C1121.53 81.3699 1129.35 79.1353 1136.15 76.8076L1138.94 97.8499C1124.98 102.692 1106.82 106.881 1084.29 109.861C1067.16 112.095 1052.07 113.026 1039.41 112.747L1036.71 91.7048C1045.37 91.8911 1055.14 91.5186 1066.04 90.5875C1069.76 90.2151 1073.67 89.7496 1077.77 89.1909Z" fill="#EFB970"/>
<path d="M1163.61 62.6553L1166.31 83.6976C1160.73 88.6323 1151.51 93.4739 1138.94 97.8499L1136.15 76.8076C1148.81 72.4316 1157.93 67.59 1163.61 62.6553Z" fill="#DDA058"/>
<path d="M1017.25 90.4945C1023.02 91.2394 1029.45 91.6118 1036.71 91.7049L1039.41 112.747C1022.56 112.561 1009.71 110.42 1001.23 106.975L998.441 86.0254C1003.38 87.8875 1009.61 89.4704 1017.25 90.4945Z" fill="#DDA058"/>
<path d="M1056.82 47.665L1058.12 57.2551L1054.31 57.8137L1056.82 47.665Z" fill="#DDA058"/>
<path d="M1094.81 42.7305L1099.84 51.855L1096.02 52.3205L1094.81 42.7305Z" fill="#EFB970"/>
<path d="M1094.81 42.7305L1096.02 52.3205L1062.78 56.6966L1078.61 44.8719L1094.81 42.7305Z" fill="#FFD48F"/>
<path d="M1078.61 44.8721L1062.78 56.6967L1058.12 57.2554L1056.82 47.6653L1078.61 44.8721Z" fill="#EFB970"/>
<path d="M1097.88 40.6821L1106.35 53.531L1058.5 59.8623L1062.78 56.6966L1096.02 52.3206L1099.84 51.855L1094.81 42.7305L1078.61 44.872L1081.4 42.8236L1097.88 40.6821Z" fill="#FFE0AA"/>
<path d="M1081.4 42.8237L1078.61 44.8721L1056.82 47.6653L1054.31 57.814L1058.12 57.2554L1062.78 56.6968L1058.5 59.8624L1048.44 61.1659L1053.28 46.455L1081.4 42.8237Z" fill="#FFD48F"/>
<path d="M1166.69 43.2891L1158.87 49.0618C1158.87 45.8961 1156.63 43.0098 1152.35 40.4959L1156.54 37.4233C1157.56 37.7958 1158.49 38.2613 1159.52 38.6337C1162.59 40.0303 1164.92 41.6132 1166.69 43.2891Z" fill="#FFD48F"/>
<path d="M1150.21 35.4679L1146.76 37.9818C1144.62 37.1439 1142.2 36.399 1139.59 35.8404L1142.39 33.792C1145.18 34.2575 1147.79 34.8162 1150.21 35.4679Z" fill="#FFD48F"/>
<path d="M1096.11 31.9302L1094.34 33.1406C1087.73 33.513 1081.03 34.1647 1074.51 35.0027C1067.53 35.9338 1060.45 37.1442 1053.65 38.5408L1055.98 36.8649C1062.13 35.7476 1068.27 34.7234 1074.32 33.8855C1081.49 32.9544 1088.76 32.3026 1096.11 31.9302Z" fill="#FFD48F"/>
<path d="M1127.86 72.0596L1112.68 83.4187H1112.59C1105.39 85.0325 1097.45 86.4912 1088.76 87.7947L1100.3 79.2288C1110.92 77.1804 1120.13 74.7597 1127.86 72.0596Z" fill="#FFD48F"/>
<path d="M1088.57 81.1841L1077.77 89.1913C1073.67 89.75 1069.76 90.2155 1066.04 90.5879L1076.28 82.86C1077.77 82.7669 1079.17 82.5807 1080.66 82.3945C1083.36 82.022 1086.06 81.7427 1088.57 81.1841Z" fill="#FFD48F"/>
<path d="M1025.91 84.07L1017.25 90.4944C1009.61 89.4702 1003.38 87.8874 998.441 86.0253C996.486 85.1873 994.81 84.4424 993.32 83.5114L1001.89 77.0869C1006.73 80.3457 1014.83 82.7665 1025.91 84.07Z" fill="#FFD48F"/>
<path d="M1152.35 40.4956C1156.63 43.0095 1158.87 45.8959 1158.87 49.0615L1127.86 72.0591C1120.13 74.7592 1110.92 77.18 1100.3 79.2283L1152.35 40.4956Z" fill="#DDA058"/>
<path d="M1146.76 37.9818L1088.57 81.1837C1086.06 81.7424 1083.36 82.0217 1080.66 82.3941C1079.17 82.5804 1077.77 82.7666 1076.28 82.8597L1139.59 35.8403C1142.2 36.399 1144.62 37.1438 1146.76 37.9818Z" fill="#DDA058"/>
<path d="M1094.34 33.1401L1081.4 42.8234L1053.28 46.4546L1048.44 61.1656L1058.5 59.862L1025.91 84.07C1014.83 82.7665 1006.73 80.3457 1001.89 77.0869L1053.66 38.5404C1060.45 37.1438 1067.53 35.9334 1074.51 35.0023C1081.03 34.1643 1087.73 33.5126 1094.34 33.1401Z" fill="#DDA058"/>
<path d="M1127.86 72.0596L1158.87 49.062C1159.33 56.4175 1148.72 65.0765 1127.86 72.0596Z" fill="#EFB970"/>
<path d="M1151.14 39.751C1151.6 39.9372 1151.98 40.2165 1152.35 40.4959L1100.3 79.2286C1096.58 79.9735 1092.67 80.6252 1088.57 81.1839L1146.76 37.9819C1148.44 38.4475 1149.93 39.0992 1151.14 39.751Z" fill="#EFB970"/>
<path d="M1139.59 35.8406L1076.28 82.86C1055.7 85.3739 1038.76 85.467 1025.91 84.0703L1058.5 59.8624L1106.35 53.5311L1097.88 40.6822L1081.4 42.8237L1094.34 33.1405C1111.29 32.3025 1127.67 33.0474 1139.59 35.8406Z" fill="#EFB970"/>
<path d="M1053.65 38.5405L1001.89 77.087C994.624 72.3386 994.252 66.0072 1001.51 59.3966C1010.73 51.0169 1031.12 43.4752 1053.65 38.5405Z" fill="#EFB970"/>
<path d="M1142.39 33.7921L1139.59 35.8405C1127.67 33.0472 1111.29 32.3024 1094.34 33.1403L1096.11 31.9299C1112.87 30.9989 1129.35 31.5575 1142.39 33.7921Z" fill="#FFE0AA"/>
<path d="M1156.54 37.4236L1152.35 40.4961C1151.97 40.2168 1151.6 39.9375 1151.14 39.7512C1149.93 39.0995 1148.44 38.4477 1146.76 37.9822L1150.21 35.4683C1152.53 36.0269 1154.58 36.6787 1156.54 37.4236Z" fill="#FFE0AA"/>
<path d="M1163.61 62.6554C1157.93 67.5901 1148.81 72.4317 1136.15 76.8078C1129.35 79.1355 1121.53 81.37 1112.68 83.4184L1127.86 72.0593C1148.72 65.0763 1159.33 56.4172 1158.87 49.0617L1166.69 43.2891C1168.83 45.3374 1170.04 47.4789 1170.41 49.8997C1170.88 53.9033 1168.64 58.2794 1163.61 62.6554Z" fill="#FFE0AA"/>
<path d="M1100.3 79.2285L1088.76 87.7944C1086.43 88.1669 1084.01 88.4462 1081.59 88.8186C1080.19 89.0049 1078.98 89.0979 1077.77 89.191L1088.57 81.1838C1092.67 80.6252 1096.58 79.9734 1100.3 79.2285Z" fill="#FFE0AA"/>
<path d="M1036.71 91.7051C1029.45 91.612 1023.02 91.2396 1017.25 90.4947L1025.91 84.0703C1038.76 85.4669 1055.7 85.3738 1076.28 82.8599L1066.04 90.5878C1055.14 91.5189 1045.37 91.8913 1036.71 91.7051Z" fill="#FFE0AA"/>
<path d="M1055.98 36.8647L1053.65 38.5407C1031.12 43.4754 1010.73 51.0171 1001.51 59.3968C994.252 66.0074 994.625 72.3388 1001.89 77.0872L993.321 83.5117C989.224 81.0909 986.71 78.2976 985.779 75.2251V74.6665C984.848 70.2904 987.269 65.3557 993.228 60.5141C1005.05 50.6447 1029.91 42.0788 1055.98 36.8647Z" fill="#FFE0AA"/>
<path d="M573.685 19.8262C574.43 21.5022 575.454 23.085 576.665 24.7609L567.82 43.9411C562.512 36.8649 561.209 30.8129 563.63 26.53L571.73 8.93262C570.892 12.0052 571.451 15.7295 573.685 19.8262Z" fill="#C68238"/>
<path d="M732.619 104.833C731.13 108.837 726.754 111.537 719.771 112.561L728.709 93.381C735.32 92.3569 739.603 89.843 741.278 86.1187L732.619 104.833Z" fill="#C68238"/>
<path d="M641.934 69.9178C643.051 70.4765 644.168 71.0352 645.379 71.5938C647.707 72.618 649.848 73.6422 652.083 74.5732C660.09 78.1113 667.569 81.1218 674.521 83.6047H674.615C683.18 86.6772 691.002 89.0049 697.985 90.5877L689.046 109.861C674.708 106.509 657.017 100.364 636.44 90.774C620.798 83.5116 607.577 76.2492 596.963 69.3592L605.901 50.0859C613.164 54.8344 621.636 59.7691 631.413 64.7969C634.765 66.4729 638.209 68.1488 641.934 69.9178Z" fill="#EFB970"/>
<path d="M728.709 93.3811L719.77 112.561C712.415 113.772 702.08 112.934 689.045 109.861L697.983 90.5879C711.018 93.6604 721.353 94.4984 728.709 93.3811Z" fill="#DDA058"/>
<path d="M590.166 38.6338C594.635 42.265 599.849 46.0824 605.901 50.086L596.963 69.3593C582.904 60.0485 573.127 51.4827 567.82 43.9409L576.666 24.7607C579.831 28.9506 584.3 33.6991 590.166 38.6338Z" fill="#DDA058"/>
<path d="M646.495 23.6436L642.491 32.3956L638.953 30.8128L646.495 23.6436Z" fill="#DDA058"/>
<path d="M681.224 39.751L680.665 50.0859L677.127 48.5031L681.224 39.751Z" fill="#EFB970"/>
<path d="M681.224 39.7513L677.127 48.5034L646.681 34.3511L666.42 32.8613L681.224 39.7513Z" fill="#FFD48F"/>
<path d="M666.419 32.8612L646.68 34.3509L642.49 32.3956L646.494 23.6436L666.419 32.8612Z" fill="#EFB970"/>
<path d="M684.948 39.5651L685.227 55.0209L641.467 34.8166L646.681 34.3511L677.127 48.5034L680.665 50.0863L681.224 39.7513L666.42 32.8613L669.865 32.582L684.948 39.5651Z" fill="#FFE0AA"/>
<path d="M669.864 32.5818L666.419 32.8611L646.494 23.6435L638.952 30.8128L642.49 32.3956L646.68 34.3509L641.466 34.8164L632.248 30.5334L644.166 20.6641L669.864 32.5818Z" fill="#FFD48F"/>
<path d="M741.744 78.5772L732.061 79.322C733.644 76.6219 733.364 72.9907 731.13 68.6146L736.251 68.2422C736.903 69.0802 737.554 70.0112 738.113 70.8492C739.975 73.6424 741.092 76.2495 741.744 78.5772Z" fill="#FFD48F"/>
<path d="M731.876 63.2144L727.686 63.4937C726.383 61.6315 724.707 59.6763 722.845 57.9072L726.197 57.6279C728.338 59.4901 730.293 61.3522 731.876 63.2144Z" fill="#FFD48F"/>
<path d="M688.115 31.2781L685.974 31.3713C680.201 28.2056 674.242 25.1331 668.19 22.3398C661.859 19.3604 655.248 16.6602 648.638 14.2394L651.617 14.0532C657.39 16.2878 663.069 18.7086 668.656 21.3157C675.266 24.3882 681.784 27.6469 688.115 31.2781Z" fill="#FFD48F"/>
<path d="M693.515 82.2081L674.614 83.6047H674.521C667.569 81.1219 660.089 78.1114 652.082 74.5733L666.421 73.4561C676.476 77.4597 685.508 80.346 693.515 82.2081Z" fill="#FFD48F"/>
<path d="M655.342 68.8939L641.934 69.918C638.21 68.149 634.765 66.473 631.413 64.7971L644.076 63.7729C645.379 64.4247 646.683 65.0764 648.079 65.7282C650.593 66.8455 653.014 67.9628 655.342 68.8939Z" fill="#FFD48F"/>
<path d="M600.967 37.7961L590.167 38.6341C584.301 33.6994 579.832 28.9509 576.666 24.7611C575.456 23.0851 574.431 21.5023 573.687 19.8264L584.301 19.0815C586.721 24.3887 592.308 30.8131 600.967 37.7961Z" fill="#FFD48F"/>
<path d="M731.13 68.6147C733.364 72.9908 733.644 76.622 732.061 79.3221L693.514 82.2084C685.507 80.3463 676.476 77.46 666.42 73.4564L731.13 68.6147Z" fill="#DDA058"/>
<path d="M727.684 63.4937L655.339 68.8939C653.012 67.9628 650.591 66.8455 648.077 65.7282C646.68 65.0765 645.377 64.4247 644.073 63.773L722.842 57.9072C724.704 59.6763 726.38 61.6315 727.684 63.4937Z" fill="#DDA058"/>
<path d="M685.972 31.3716L669.865 32.582L644.167 20.6642L632.249 30.5336L641.467 34.8166L600.965 37.796C592.306 30.8129 586.72 24.3885 584.299 19.0814L648.636 14.2397C655.247 16.6605 661.858 19.3607 668.189 22.3401C674.241 25.1333 680.2 28.2059 685.972 31.3716Z" fill="#DDA058"/>
<path d="M693.515 82.2081L732.061 79.3218C728.43 85.8393 714.836 87.4221 693.515 82.2081Z" fill="#EFB970"/>
<path d="M730.48 67.311C730.759 67.7766 730.945 68.149 731.131 68.6146L666.422 73.4562C662.884 72.1527 659.159 70.5698 655.342 68.8939L727.686 63.4937C728.804 64.7041 729.735 66.1006 730.48 67.311Z" fill="#EFB970"/>
<path d="M722.844 57.9073L644.075 63.773C625.36 54.8347 611.021 45.8963 600.966 37.796L641.468 34.8166L685.228 55.0209L684.949 39.565L669.865 32.582L685.973 31.3716C700.777 39.7513 714.185 49.1551 722.844 57.9073Z" fill="#EFB970"/>
<path d="M648.637 14.2397L584.299 19.0813C580.761 11.1671 583.834 5.67379 593.517 3.90475C605.714 1.76327 627.036 6.23242 648.637 14.2397Z" fill="#EFB970"/>
<path d="M726.195 57.6278L722.843 57.9071C714.184 49.155 700.777 39.7511 685.973 31.3715L688.114 31.2783C702.732 39.3787 716.419 48.6895 726.195 57.6278Z" fill="#FFE0AA"/>
<path d="M736.251 68.2421L731.13 68.6146C730.943 68.149 730.757 67.7766 730.478 67.3111C729.733 66.1007 728.802 64.7041 727.685 63.4937L731.874 63.2144C733.55 64.9834 735.04 66.6593 736.251 68.2421Z" fill="#FFE0AA"/>
<path d="M728.709 93.3812C721.353 94.4985 711.018 93.6605 697.983 90.588C691 89.0052 683.179 86.6775 674.613 83.6049L693.514 82.2083C714.836 87.4223 728.43 85.8395 732.061 79.322L741.744 78.5771C742.489 81.4635 742.303 83.9774 741.278 86.1188C739.602 89.8431 735.32 92.357 728.709 93.3812Z" fill="#FFE0AA"/>
<path d="M666.422 73.4563L652.083 74.5736C649.849 73.6425 647.707 72.6184 645.38 71.5942C644.169 71.0355 643.052 70.4768 641.935 69.9182L655.342 68.894C659.16 70.57 662.884 72.1528 666.422 73.4563Z" fill="#FFE0AA"/>
<path d="M605.901 50.0861C599.849 46.0825 594.635 42.2651 590.166 38.6339L600.966 37.7959C611.022 45.8963 625.361 54.8346 644.075 63.7729L631.413 64.7971C621.636 59.7693 613.164 54.8346 605.901 50.0861Z" fill="#FFE0AA"/>
<path d="M651.617 14.0534L648.637 14.2397C627.036 6.23241 605.714 1.76327 593.517 3.90475C583.834 5.67379 580.762 11.1671 584.3 19.0813L573.686 19.8261C571.451 15.7294 570.892 12.0051 571.73 8.93252L572.01 8.3739C573.592 4.18406 578.248 1.39085 585.883 0.366668C601.152 -1.58859 626.757 4.46336 651.617 14.0534Z" fill="#FFE0AA"/>
<path d="M838.948 57.1626C839.786 58.7455 840.81 60.4214 842.02 62.0973L833.082 81.2775C827.775 74.2013 826.564 68.1493 828.892 63.8663L837.085 46.269C836.154 49.3416 836.806 53.0659 838.948 57.1626Z" fill="#C68238"/>
<path d="M997.975 142.17C996.392 146.081 992.109 148.874 985.126 149.898L993.971 130.625C1000.67 129.694 1004.86 127.18 1006.63 123.456L997.975 142.17Z" fill="#C68238"/>
<path d="M907.29 107.255C908.408 107.813 909.525 108.372 910.735 108.931C912.97 109.955 915.204 110.979 917.346 111.91C925.353 115.448 932.864 118.459 939.878 120.942H939.971C948.444 124.014 956.265 126.342 963.341 127.925L954.403 147.198C939.971 143.846 922.374 137.701 901.797 128.111C886.062 120.848 872.84 113.586 862.319 106.603L871.258 87.4229C878.427 92.0782 886.993 97.0129 896.676 102.041C900.028 103.81 903.566 105.486 907.29 107.255Z" fill="#EFB970"/>
<path d="M993.971 130.625L985.126 149.898C977.77 151.015 967.342 150.271 954.4 147.198L963.339 127.925C976.281 130.997 986.616 131.835 993.971 130.625Z" fill="#DDA058"/>
<path d="M855.522 75.9707C859.991 79.6019 865.205 83.4193 871.257 87.4229L862.319 106.603C848.166 97.3854 838.483 88.7264 833.083 81.2778L842.021 62.0977C845.094 66.2875 849.563 71.036 855.522 75.9707Z" fill="#DDA058"/>
<path d="M911.85 60.9805L907.754 69.7326L904.309 68.1498L911.85 60.9805Z" fill="#DDA058"/>
<path d="M946.579 76.9946L945.927 87.4227L942.482 85.8399L946.579 76.9946Z" fill="#EFB970"/>
<path d="M946.58 76.9946L942.483 85.8398L912.037 71.6875L931.776 70.1978L946.58 76.9946Z" fill="#FFD48F"/>
<path d="M931.777 70.1977L912.038 71.6874L907.755 69.7321L911.852 60.98L931.777 70.1977Z" fill="#EFB970"/>
<path d="M950.304 76.9015L950.583 92.3574L906.729 72.06L912.037 71.6875L942.483 85.8399L945.928 87.4227L946.58 76.9947L931.775 70.1978L935.22 69.9185L950.304 76.9015Z" fill="#FFE0AA"/>
<path d="M935.221 69.9187L931.776 70.1981L911.851 60.9804L904.31 68.1497L907.755 69.7326L912.037 71.6878L906.73 72.0603L897.513 67.7773L909.431 58.001L935.221 69.9187Z" fill="#FFD48F"/>
<path d="M1007.01 115.914L997.325 116.658C999.001 113.958 998.721 110.327 996.394 105.951L1001.61 105.579C1002.26 106.417 1002.82 107.348 1003.38 108.186C1005.24 110.979 1006.45 113.586 1007.01 115.914Z" fill="#FFD48F"/>
<path d="M997.231 100.551L993.041 100.83C991.644 98.968 990.062 97.0127 988.106 95.2437L991.551 94.9644C993.6 96.8265 995.555 98.6887 997.231 100.551Z" fill="#FFD48F"/>
<path d="M953.472 68.6149L951.33 68.708C945.558 65.5424 939.506 62.4698 933.547 59.6766C927.122 56.6971 920.512 53.9039 913.994 51.4831L916.88 51.2969C922.653 53.6246 928.426 56.0454 934.012 58.6524C940.53 61.725 947.047 64.9837 953.472 68.6149Z" fill="#FFD48F"/>
<path d="M958.871 119.545L939.97 120.942H939.877C932.863 118.459 925.352 115.448 917.345 111.91L931.776 110.793C941.832 114.797 950.77 117.683 958.871 119.545Z" fill="#FFD48F"/>
<path d="M920.695 106.23L907.287 107.255C903.563 105.485 900.025 103.809 896.673 102.04L909.429 101.109C910.732 101.761 912.036 102.413 913.432 102.972C915.853 104.182 918.274 105.299 920.695 106.23Z" fill="#FFD48F"/>
<path d="M866.228 75.1325L855.52 75.9704C849.562 71.0357 845.092 66.2872 842.02 62.0974C840.809 60.4215 839.785 58.7455 838.947 57.1627L849.655 56.3247C852.075 61.7249 857.569 68.1494 866.228 75.1325Z" fill="#FFD48F"/>
<path d="M996.392 105.951C998.72 110.327 998.999 113.958 997.323 116.659L958.87 119.545C950.769 117.683 941.831 114.796 931.775 110.793L996.392 105.951Z" fill="#DDA058"/>
<path d="M993.04 100.83L920.696 106.23C918.275 105.299 915.854 104.182 913.433 102.972C912.037 102.413 910.733 101.761 909.43 101.109L988.106 95.2437C990.061 97.0127 991.644 98.968 993.04 100.83Z" fill="#DDA058"/>
<path d="M951.329 68.7083L935.221 69.9187L909.43 58.0009L897.513 67.7772L906.73 72.0602L866.228 75.1328C857.569 68.1497 852.076 61.7252 849.655 56.325L913.993 51.4834C920.51 53.9042 927.121 56.6974 933.545 59.6769C939.504 62.4701 945.556 65.5426 951.329 68.7083Z" fill="#DDA058"/>
<path d="M958.87 119.545L997.324 116.659C993.786 123.083 980.192 124.759 958.87 119.545Z" fill="#EFB970"/>
<path d="M995.74 104.648C996.019 105.113 996.206 105.485 996.392 105.951L931.775 110.793C928.144 109.489 924.513 107.906 920.695 106.23L993.04 100.83C994.157 102.04 995.088 103.437 995.74 104.648Z" fill="#EFB970"/>
<path d="M988.105 95.2437L909.429 101.109C890.715 92.1711 876.376 83.2328 866.228 75.1325L906.729 72.0599L950.583 92.3574L950.304 76.9015L935.22 69.9184L951.328 68.708C966.132 76.9946 979.54 86.4916 988.105 95.2437Z" fill="#EFB970"/>
<path d="M913.993 51.4835L849.656 56.3251C846.024 48.504 849.19 43.0107 858.873 41.2416C871.07 39.1001 892.392 43.5693 913.993 51.4835Z" fill="#EFB970"/>
<path d="M991.552 94.9647L988.107 95.244C979.541 86.4919 966.133 76.9949 951.329 68.7083L953.471 68.6152C968.088 76.7156 981.682 86.0263 991.552 94.9647Z" fill="#FFE0AA"/>
<path d="M1001.61 105.579L996.391 105.951C996.205 105.485 996.019 105.113 995.739 104.648C995.087 103.437 994.156 102.04 993.039 100.83L997.229 100.551C998.905 102.227 1000.3 103.903 1001.61 105.579Z" fill="#FFE0AA"/>
<path d="M993.972 130.625C986.617 131.835 976.282 130.997 963.34 127.924C956.264 126.342 948.443 124.014 939.97 120.941L958.871 119.545C980.192 124.759 993.786 123.083 997.324 116.658L1007.01 115.914C1007.75 118.8 1007.57 121.314 1006.63 123.455C1004.87 127.18 1000.68 129.693 993.972 130.625Z" fill="#FFE0AA"/>
<path d="M931.776 110.793L917.345 111.91C915.203 110.979 912.969 109.955 910.734 108.931C909.524 108.372 908.406 107.813 907.289 107.255L920.697 106.23C924.514 107.906 928.145 109.489 931.776 110.793Z" fill="#FFE0AA"/>
<path d="M871.256 87.423C865.204 83.4194 859.99 79.6019 855.521 75.9707L866.228 75.1328C876.377 83.2332 890.715 92.1715 909.43 101.11L896.674 102.041C886.991 97.0131 878.425 92.0784 871.256 87.423Z" fill="#FFE0AA"/>
<path d="M916.877 51.297L913.991 51.4832C892.39 43.569 871.068 39.0999 858.871 41.2414C849.188 43.0104 846.022 48.5038 849.654 56.3248L838.946 57.1628C836.805 53.0661 836.153 49.3417 837.084 46.2692L837.363 45.7105C838.853 41.5207 843.602 38.7275 851.236 37.7033C866.506 35.748 892.111 41.8 916.877 51.297Z" fill="#FFE0AA"/>
<path d="M680.942 132.114C682.99 133.231 685.318 134.256 688.018 135.28L692.673 163.305C681.407 159.395 675.355 153.715 674.797 147.197L670.514 121.407C671.817 125.41 675.262 129.135 680.942 132.114Z" fill="#C68238"/>
<path d="M921.999 105.95C923.303 111.537 920.603 117.868 913.62 124.386L908.871 96.1741C915.575 90.029 918.368 84.0702 917.437 78.6699L921.999 105.95Z" fill="#C68238"/>
<path d="M794.719 135.931C796.395 135.745 798.071 135.466 799.84 135.186C803.192 134.628 806.358 134.069 809.523 133.417C821.131 131.307 831.745 128.979 841.366 126.434H841.459C853.284 123.269 863.712 119.917 872.743 116.472L877.399 144.59C858.87 151.759 834.569 158.277 804.496 163.305C781.498 167.122 761.387 169.078 744.348 169.357L739.6 141.238C751.238 140.959 764.459 140.028 779.077 138.259C784.105 137.607 789.319 136.862 794.719 135.931Z" fill="#EFB970"/>
<path d="M908.87 96.1743L913.618 124.386C906.263 131.183 894.159 138.166 877.4 144.59L872.744 116.472C889.504 109.954 901.608 103.064 908.87 96.1743Z" fill="#DDA058"/>
<path d="M713.529 140.4C721.164 141.145 729.916 141.424 739.599 141.238L744.348 169.357C721.629 169.822 704.218 167.588 692.673 163.305L688.018 135.279C694.628 137.607 703.194 139.376 713.529 140.4Z" fill="#DDA058"/>
<path d="M764.74 80.9976L766.882 93.8464L761.761 94.6844L764.74 80.9976Z" fill="#DDA058"/>
<path d="M815.483 72.6182L822.746 84.5359L817.625 85.3739L815.483 72.6182Z" fill="#EFB970"/>
<path d="M815.483 72.6182L817.625 85.3739L773.026 92.8225L793.882 76.1562L815.483 72.6182Z" fill="#FFD48F"/>
<path d="M793.883 76.1562L773.027 92.8225L766.882 93.8467L764.74 80.9979L793.883 76.1562Z" fill="#EFB970"/>
<path d="M819.579 69.6387L831.59 86.5843L767.532 97.2916L773.026 92.8225L817.624 85.3739L822.745 84.5359L815.483 72.6181L793.882 76.1562L797.513 73.2699L819.579 69.6387Z" fill="#FFE0AA"/>
<path d="M797.514 73.27L793.883 76.1563L764.741 80.9979L761.761 94.6848L766.882 93.8468L773.027 92.8226L767.534 97.2918L754.033 99.5264L759.806 79.6013L797.514 73.27Z" fill="#FFD48F"/>
<path d="M912.223 69.918L901.981 78.1115C901.795 73.8285 898.629 70.0111 892.856 66.9386L898.257 62.5625C899.653 63.028 901.05 63.5867 902.353 64.0522C906.543 65.7281 909.802 67.7765 912.223 69.918Z" fill="#FFD48F"/>
<path d="M889.598 60.2347L885.222 63.6797C882.242 62.6555 878.983 61.8175 875.445 61.2589L879.077 58.3726C882.894 58.9312 886.339 59.4898 889.598 60.2347Z" fill="#FFD48F"/>
<path d="M816.788 57.9072L814.46 59.7694C805.615 60.5142 796.584 61.7246 787.831 63.1212C778.521 64.7041 769.024 66.6593 759.992 68.8939L763.065 66.4731C771.165 64.7041 779.452 63.0281 787.552 61.6315C797.142 60.0487 806.918 58.8383 816.788 57.9072Z" fill="#FFD48F"/>
<path d="M861.384 110.513L841.459 126.434H841.366C831.745 128.979 821.131 131.307 809.523 133.417L824.7 121.313C838.852 118.147 851.049 114.516 861.384 110.513Z" fill="#FFD48F"/>
<path d="M808.874 124.665L794.721 135.931C789.321 136.862 784.107 137.607 779.079 138.259L792.487 127.458C794.442 127.272 796.397 126.9 798.352 126.527C801.984 125.969 805.522 125.41 808.874 124.665Z" fill="#FFD48F"/>
<path d="M724.797 131.369L713.531 140.401C703.196 139.376 694.63 137.607 688.02 135.28C685.319 134.255 682.992 133.231 680.943 132.114L692.116 123.083C698.913 127.179 709.9 130.159 724.797 131.369Z" fill="#FFD48F"/>
<path d="M892.857 66.9385C898.63 70.011 901.795 73.8284 901.981 78.1114L861.387 110.513C851.052 114.516 838.855 118.148 824.702 121.313L892.857 66.9385Z" fill="#DDA058"/>
<path d="M885.221 63.6796L808.873 124.665C805.521 125.41 801.983 125.969 798.352 126.527C796.397 126.9 794.442 127.272 792.486 127.458L875.445 61.2588C878.983 61.8174 882.242 62.6554 885.221 63.6796Z" fill="#DDA058"/>
<path d="M814.46 59.769L797.514 73.2696L759.805 79.601L754.033 99.526L767.533 97.2914L724.797 131.369C709.9 130.158 698.913 127.179 692.116 123.082L759.992 68.8936C769.023 66.659 778.52 64.7037 787.831 63.1209C796.583 61.7243 805.614 60.5139 814.46 59.769Z" fill="#DDA058"/>
<path d="M861.387 110.513L901.982 78.1113C902.913 87.9807 889.04 100.085 861.387 110.513Z" fill="#EFB970"/>
<path d="M891.181 65.9142C891.74 66.1936 892.298 66.566 892.857 66.9385L824.702 121.313C819.675 122.524 814.367 123.641 808.874 124.665L885.222 63.6797C887.364 64.3314 889.412 65.0763 891.181 65.9142Z" fill="#EFB970"/>
<path d="M875.443 61.2588L792.484 127.458C764.924 131.741 742.206 132.672 724.795 131.369L767.531 97.2915L831.589 86.5841L819.579 69.6385L797.512 73.2697L814.458 59.7691C837.269 57.7208 859.242 58.0932 875.443 61.2588Z" fill="#EFB970"/>
<path d="M759.992 68.8936L692.116 123.082C682.154 117.03 681.409 108.557 690.906 99.3398C702.824 87.6082 729.918 76.5284 759.992 68.8936Z" fill="#EFB970"/>
<path d="M879.077 58.3726L875.445 61.2589C859.245 58.0932 837.271 57.7208 814.46 59.7692L816.788 57.907C839.227 55.9518 861.386 55.9518 879.077 58.3726Z" fill="#FFE0AA"/>
<path d="M898.256 62.5626L892.855 66.9386C892.297 66.5662 891.738 66.1937 891.18 65.9144C889.411 65.0764 887.362 64.3316 885.221 63.6799L889.597 60.2349C892.762 60.9797 895.649 61.7246 898.256 62.5626Z" fill="#FFE0AA"/>
<path d="M908.871 96.1743C901.608 103.064 889.504 109.954 872.745 116.472C863.714 119.917 853.286 123.269 841.461 126.434L861.386 110.513C889.039 100.085 902.912 87.9809 901.981 78.1115L912.223 69.918C915.202 72.6181 916.971 75.5044 917.437 78.6701C918.368 84.0703 915.575 90.0292 908.871 96.1743Z" fill="#FFE0AA"/>
<path d="M824.701 121.313L809.525 133.417C806.359 134.069 803.193 134.628 799.842 135.187C798.073 135.466 796.397 135.745 794.721 135.931L808.873 124.665C814.366 123.641 819.674 122.524 824.701 121.313Z" fill="#FFE0AA"/>
<path d="M739.601 141.238C729.918 141.425 721.166 141.145 713.531 140.4L724.797 131.369C742.208 132.672 764.927 131.741 792.487 127.458L779.079 138.259C764.461 140.028 751.24 140.959 739.601 141.238Z" fill="#FFE0AA"/>
<path d="M763.064 66.4731L759.991 68.8939C729.917 76.5287 702.823 87.6086 690.905 99.3401C681.408 108.558 682.153 117.031 692.116 123.083L680.943 132.114C675.263 129.135 671.818 125.41 670.515 121.407L670.329 120.569C668.932 114.703 672.004 108.092 679.732 101.202C695.188 87.4223 728.241 74.6666 763.064 66.4731Z" fill="#FFE0AA"/>
<path d="M491.47 98.316C492.588 98.8126 493.86 99.2471 495.288 99.6196L499.105 113.772C493.146 112.282 489.794 109.675 489.143 106.323L485.604 93.3813C486.536 95.4297 488.491 97.1056 491.47 98.316Z" fill="#C68238"/>
<path d="M613.814 72.6183C614.745 75.4115 613.721 78.7634 610.462 82.4877L606.552 68.2422C609.717 64.7972 610.835 61.5385 610.09 58.8384L613.814 72.6183Z" fill="#C68238"/>
<path d="M550.036 94.4989C550.874 94.3126 551.712 94.0333 552.643 93.8471C554.319 93.3505 555.933 92.885 557.484 92.4505C563.319 90.7745 568.657 89.0366 573.499 87.2365C579.458 85.0019 584.579 82.7673 589.048 80.5327L592.865 94.6851C583.741 99.3405 571.637 103.903 556.46 107.999C544.915 111.165 534.673 113.213 525.921 114.145L522.104 99.9922C528.062 99.2474 534.766 98.13 542.122 96.4541C544.667 95.8334 547.305 95.1816 550.036 94.4989Z" fill="#EFB970"/>
<path d="M606.55 68.2422L610.461 82.4876C607.016 86.3051 601.15 90.4949 592.863 94.6848L589.046 80.5324C597.332 76.3426 603.198 72.1527 606.55 68.2422Z" fill="#DDA058"/>
<path d="M508.603 100.923C512.575 100.923 517.075 100.613 522.103 99.9921L525.921 114.144C514.282 115.634 505.251 115.355 499.106 113.772L495.288 99.6196C498.826 100.458 503.295 100.923 508.603 100.923Z" fill="#DDA058"/>
<path d="M531.879 67.8701L533.648 74.2945L531.041 75.0394L531.879 67.8701Z" fill="#DDA058"/>
<path d="M557.483 60.8867L561.766 66.6593L559.252 67.4043L557.483 60.8867Z" fill="#EFB970"/>
<path d="M557.484 60.8867L559.253 67.4043L536.721 73.4562L546.59 63.8661L557.484 60.8867Z" fill="#FFD48F"/>
<path d="M546.591 63.8662L536.721 73.4563L533.649 74.2943L531.88 67.8699L546.591 63.8662Z" fill="#EFB970"/>
<path d="M559.44 59.2109L566.423 67.3113L534.114 76.0634L536.721 73.4564L559.253 67.4045L561.767 66.6595L557.484 60.8869L546.591 63.8663L548.267 62.1904L559.44 59.2109Z" fill="#FFE0AA"/>
<path d="M548.267 62.1904L546.591 63.8664L531.88 67.87L531.042 75.0393L533.649 74.2944L536.721 73.4565L534.114 76.0635L527.317 77.8325L529.273 67.3113L548.267 62.1904Z" fill="#FFD48F"/>
<path d="M606.924 54.6487L602.082 59.3041C601.803 57.1626 599.941 55.3004 596.868 54.09L599.382 51.5762C600.127 51.6693 600.872 51.9486 601.524 52.1348C603.758 52.7865 605.527 53.6245 606.924 54.6487Z" fill="#FFD48F"/>
<path d="M594.821 50.8313L592.772 52.7866C591.189 52.4141 589.514 52.1348 587.651 52.0417L589.327 50.3657C591.282 50.4588 593.145 50.5519 594.821 50.8313Z" fill="#FFD48F"/>
<path d="M557.39 53.3452L556.272 54.3694C551.803 55.3005 547.241 56.3247 542.772 57.5351C538.116 58.7455 533.368 60.2352 528.806 61.9111L530.295 60.5145C534.299 59.1179 538.489 57.8144 542.586 56.7902C547.427 55.4246 552.362 54.2763 557.39 53.3452Z" fill="#FFD48F"/>
<path d="M582.902 78.0186L573.498 87.2362C568.656 89.0363 563.318 90.7743 557.483 92.4502L564.653 85.4672C571.729 83.0464 577.874 80.6256 582.902 78.0186Z" fill="#FFD48F"/>
<path d="M556.739 87.9814L550.035 94.499C547.304 95.1818 544.666 95.8335 542.121 96.4542L548.452 90.2161C549.477 90.0298 550.408 89.7505 551.432 89.4711C553.294 89.0056 555.063 88.5401 556.739 87.9814Z" fill="#FFD48F"/>
<path d="M514.003 95.7092L508.603 100.923C503.295 100.923 498.826 100.458 495.288 99.6198C493.86 99.2473 492.588 98.8128 491.471 98.3162L496.778 93.1953C500.409 94.8712 506.275 95.8023 514.003 95.7092Z" fill="#FFD48F"/>
<path d="M596.869 54.0898C599.941 55.3002 601.803 57.1624 602.083 59.3039L582.902 78.0185C577.875 80.6255 571.729 83.0463 564.653 85.4671L596.869 54.0898Z" fill="#DDA058"/>
<path d="M592.771 52.7864L556.739 87.981C555.063 88.5397 553.294 89.0052 551.432 89.4707C550.407 89.75 549.476 90.0294 548.452 90.2156L587.65 52.0415C589.513 52.1346 591.189 52.4139 592.771 52.7864Z" fill="#DDA058"/>
<path d="M556.274 54.3691L548.267 62.1901L529.273 67.3111L527.318 77.8322L534.114 76.0632L514.003 95.7089C506.275 95.802 500.41 94.8709 496.778 93.1019L528.807 61.9108C533.37 60.2349 538.118 58.7452 542.773 57.5348C547.243 56.3244 551.805 55.3002 556.274 54.3691Z" fill="#DDA058"/>
<path d="M582.901 78.0188L602.082 59.3042C603.106 64.332 596.588 71.222 582.901 78.0188Z" fill="#EFB970"/>
<path d="M595.937 53.6246C596.216 53.7177 596.495 53.9039 596.868 54.0901L564.652 85.4674C562.139 86.3053 559.532 87.1433 556.738 87.9813L592.771 52.7866C593.888 52.9728 595.005 53.3452 595.937 53.6246Z" fill="#EFB970"/>
<path d="M587.649 52.0414L548.451 90.2156C534.578 93.8468 522.939 95.5227 514.001 95.7089L534.112 76.0632L566.421 67.3111L559.437 59.2107L548.265 62.1901L556.272 54.3691C567.817 52.2277 579.176 51.2035 587.649 52.0414Z" fill="#EFB970"/>
<path d="M528.806 61.9111L496.777 93.1022C491.377 90.5883 490.539 86.2122 494.915 80.9982C500.408 74.3876 513.723 67.3114 528.806 61.9111Z" fill="#EFB970"/>
<path d="M589.327 50.3657L587.651 52.0416C579.178 51.2037 567.819 52.2279 556.273 54.3693L557.391 53.3451C568.75 51.2036 580.109 49.9932 589.327 50.3657Z" fill="#FFE0AA"/>
<path d="M599.383 51.576L596.869 54.0898C596.497 53.9036 596.217 53.7174 595.938 53.6243C595.007 53.345 593.89 52.9726 592.772 52.7863L594.821 50.8311C596.497 51.0173 598.018 51.2656 599.383 51.576Z" fill="#FFE0AA"/>
<path d="M606.551 68.2421C603.199 72.1526 597.334 76.3425 589.047 80.5323C584.578 82.7669 579.457 85.0015 573.498 87.2361L582.902 78.0184C596.589 71.2216 603.106 64.3316 602.082 59.3038L606.924 54.6484C608.6 55.7657 609.624 57.2555 610.089 58.8383C610.834 61.5384 609.717 64.7971 606.551 68.2421Z" fill="#FFE0AA"/>
<path d="M564.653 85.4673L557.484 92.4504C555.932 92.8849 554.318 93.3504 552.642 93.847C551.711 94.0332 550.873 94.3125 550.035 94.4987L556.739 87.9812C559.532 87.1432 562.139 86.3053 564.653 85.4673Z" fill="#FFE0AA"/>
<path d="M522.102 99.9921C517.074 100.613 512.574 100.923 508.602 100.923L514.002 95.7091C522.94 95.5229 534.579 93.847 548.452 90.2158L542.12 96.454C534.765 98.1299 528.061 99.2473 522.102 99.9921Z" fill="#FFE0AA"/>
<path d="M530.297 60.5146L528.807 61.9113C513.724 67.3115 500.409 74.3877 494.916 80.9983C490.54 86.2123 491.378 90.5884 496.778 93.1023L491.471 98.3163C488.491 97.1059 486.536 95.43 485.605 93.3816L485.512 92.9161C484.488 90.0297 485.698 86.4916 489.329 82.488C496.499 74.667 512.793 66.4735 530.297 60.5146Z" fill="#FFE0AA"/>
<path d="M1149.93 97.0123C1150.92 97.7572 1152.07 98.471 1153.37 99.1538L1153.93 113.772C1148.44 111.072 1145.74 107.72 1145.83 104.368L1145.37 90.8672C1145.74 93.0087 1147.32 95.1502 1149.93 97.0123Z" fill="#C68238"/>
<path d="M1274.97 99.2467C1275.25 102.133 1273.48 105.206 1269.48 108.092L1268.83 93.381C1272.64 90.6809 1274.51 87.7945 1274.41 84.9082L1274.97 99.2467Z" fill="#C68238"/>
<path d="M1207.94 106.323C1208.77 106.323 1209.7 106.323 1210.54 106.23C1212.28 106.168 1213.99 106.106 1215.66 106.044C1221.75 105.671 1227.33 105.144 1232.42 104.461C1238.66 103.623 1244.25 102.599 1249.09 101.388L1249.65 116.099C1239.68 118.52 1226.84 120.289 1211.19 120.941C1199.18 121.406 1188.76 121.127 1180 120.196L1179.44 105.485C1185.4 106.137 1192.2 106.416 1199.74 106.509C1202.35 106.509 1205.08 106.447 1207.94 106.323Z" fill="#EFB970"/>
<path d="M1268.82 93.3809L1269.48 108.092C1265.29 111.071 1258.58 113.865 1249.64 116.099L1249.09 101.388C1258.02 99.1536 1264.73 96.3603 1268.82 93.3809Z" fill="#DDA058"/>
<path d="M1166.13 103.437C1169.98 104.244 1174.42 104.926 1179.44 105.485L1180 120.196C1168.36 118.986 1159.61 116.658 1153.93 113.772L1153.37 99.1538C1156.63 100.737 1160.92 102.226 1166.13 103.437Z" fill="#DDA058"/>
<path d="M1196.11 76.3423L1196.39 83.046L1193.69 83.1391L1196.11 76.3423Z" fill="#DDA058"/>
<path d="M1222.64 75.2251L1225.53 81.8358L1222.92 81.9289L1222.64 75.2251Z" fill="#EFB970"/>
<path d="M1222.64 75.2251L1222.92 81.9289L1199.65 82.8599L1211.38 75.6906L1222.64 75.2251Z" fill="#FFD48F"/>
<path d="M1211.38 75.6909L1199.65 82.8602L1196.39 83.0464L1196.11 76.3427L1211.38 75.6909Z" fill="#EFB970"/>
<path d="M1224.88 74.0146L1229.91 83.5116L1196.48 84.8151L1199.65 82.8599L1222.92 81.9288L1225.53 81.8357L1222.64 75.225L1211.38 75.6906L1213.33 74.4802L1224.88 74.0146Z" fill="#FFE0AA"/>
<path d="M1213.33 74.4805L1211.38 75.6909L1196.11 76.3426L1193.69 83.1395L1196.39 83.0464L1199.65 82.8602L1196.48 84.8154L1189.5 85.0948L1193.69 75.2253L1213.33 74.4805Z" fill="#FFD48F"/>
<path d="M1272.27 80.1598L1266.5 83.6979C1266.68 81.4633 1265.29 79.3218 1262.49 77.3665L1265.57 75.5044C1266.31 75.7837 1266.96 76.1562 1267.52 76.5286C1269.57 77.6459 1271.15 78.8563 1272.27 80.1598Z" fill="#FFD48F"/>
<path d="M1261.28 73.7355L1258.86 75.2252C1257.37 74.4803 1255.79 73.8286 1254.02 73.363L1256.07 72.0596C1257.93 72.6182 1259.7 73.0837 1261.28 73.7355Z" fill="#FFD48F"/>
<path d="M1224.23 67.8696L1222.92 68.6145C1218.36 68.5214 1213.71 68.5214 1209.05 68.6145C1204.21 68.8938 1199.28 69.2662 1194.43 69.8249L1196.2 68.8007C1200.49 68.3352 1204.77 68.0559 1209.05 67.8696C1214.08 67.6834 1219.14 67.6834 1224.23 67.8696Z" fill="#FFD48F"/>
<path d="M1243.69 97.5708L1232.42 104.461C1227.33 105.144 1221.75 105.671 1215.66 106.044L1224.13 100.83C1231.58 100.085 1238.1 98.9674 1243.69 97.5708Z" fill="#FFD48F"/>
<path d="M1215.85 101.481L1207.93 106.323C1205.08 106.447 1202.35 106.509 1199.74 106.509L1207.28 101.854C1208.31 101.854 1209.33 101.854 1210.45 101.761C1212.31 101.668 1214.08 101.668 1215.85 101.481Z" fill="#FFD48F"/>
<path d="M1172.46 99.433L1166.13 103.437C1160.91 102.226 1156.63 100.737 1153.37 99.1537C1152.07 98.4709 1150.92 97.7571 1149.93 97.0123L1156.26 93.1948C1159.52 95.7087 1164.92 97.8502 1172.46 99.433Z" fill="#FFD48F"/>
<path d="M1262.5 77.3667C1265.29 79.322 1266.68 81.4635 1266.5 83.6981L1243.69 97.5711C1238.1 98.9677 1231.58 100.085 1224.13 100.83L1262.5 77.3667Z" fill="#DDA058"/>
<path d="M1258.86 75.2249L1215.85 101.481C1214.08 101.668 1212.31 101.668 1210.45 101.761C1209.33 101.854 1208.31 101.854 1207.28 101.854L1254.02 73.3628C1255.79 73.8283 1257.37 74.4801 1258.86 75.2249Z" fill="#DDA058"/>
<path d="M1222.92 68.6148L1213.33 74.4805L1193.69 75.2254L1189.5 85.0948L1196.48 84.8154L1172.46 99.4334C1164.92 97.8505 1159.52 95.709 1156.26 93.1951L1194.43 69.8251C1199.28 69.2665 1204.21 68.8941 1209.05 68.6148C1213.71 68.5216 1218.36 68.5216 1222.92 68.6148Z" fill="#DDA058"/>
<path d="M1243.69 97.5708L1266.5 83.6978C1266.31 88.8187 1258.49 94.0327 1243.69 97.5708Z" fill="#EFB970"/>
<path d="M1261.75 76.7149C1262.03 76.9011 1262.31 77.0872 1262.5 77.3666L1224.14 100.83C1221.53 101.109 1218.83 101.295 1215.85 101.481L1258.86 75.2251C1259.89 75.6906 1260.91 76.2493 1261.75 76.7149Z" fill="#EFB970"/>
<path d="M1254.02 73.3632L1207.28 101.854C1192.94 102.32 1181.31 101.295 1172.46 99.4333L1196.48 84.8154L1229.91 83.512L1224.88 74.015L1213.34 74.4805L1222.93 68.6147C1234.66 69.0803 1245.92 70.6631 1254.02 73.3632Z" fill="#EFB970"/>
<path d="M1194.43 69.8247L1156.26 93.1947C1151.6 89.4704 1151.79 85.0013 1157.19 80.9045C1164.08 75.6905 1178.6 71.78 1194.43 69.8247Z" fill="#EFB970"/>
<path d="M1256.07 72.0595L1254.02 73.3629C1245.92 70.6628 1234.65 69.08 1222.92 68.6145L1224.23 67.8696C1235.77 68.2421 1247.13 69.7318 1256.07 72.0595Z" fill="#FFE0AA"/>
<path d="M1265.57 75.5044L1262.5 77.3665C1262.31 77.0872 1262.03 76.901 1261.75 76.7148C1260.91 76.2493 1259.89 75.6906 1258.86 75.2251L1261.29 73.7354C1262.9 74.294 1264.33 74.8836 1265.57 75.5044Z" fill="#FFE0AA"/>
<path d="M1268.83 93.381C1264.73 96.3604 1258.03 99.1537 1249.09 101.388C1244.25 102.599 1238.66 103.623 1232.42 104.461L1243.69 97.5708C1258.49 94.0327 1266.31 88.8187 1266.5 83.6978L1272.27 80.1597C1273.58 81.6494 1274.32 83.3254 1274.41 84.9082C1274.51 87.7945 1272.64 90.6808 1268.83 93.381Z" fill="#FFE0AA"/>
<path d="M1224.13 100.83L1215.66 106.044C1213.98 106.106 1212.28 106.168 1210.54 106.23C1209.7 106.323 1208.77 106.323 1207.93 106.323L1215.85 101.481C1218.83 101.295 1221.53 101.109 1224.13 100.83Z" fill="#FFE0AA"/>
<path d="M1179.44 105.485C1174.41 104.926 1169.98 104.244 1166.13 103.437L1172.46 99.4331C1181.3 101.295 1192.94 102.319 1207.28 101.854L1199.74 106.509C1192.2 106.416 1185.4 106.137 1179.44 105.485Z" fill="#FFE0AA"/>
<path d="M1196.2 68.8008L1194.43 69.8249C1178.6 71.7802 1164.08 75.6907 1157.19 80.9048C1151.79 85.0015 1151.6 89.4706 1156.26 93.1949L1149.93 97.0124C1147.32 95.1502 1145.74 93.0087 1145.37 90.8672L1145.27 90.4948C1144.99 87.4223 1146.95 84.1635 1151.32 81.1841C1160.17 75.1321 1177.86 70.756 1196.2 68.8008Z" fill="#FFE0AA"/>
<path d="M1051.42 133.976C1052.41 134.721 1053.53 135.435 1054.77 136.118L1055.33 150.736C1049.84 148.035 1047.14 144.684 1047.23 141.332L1046.76 127.831C1047.14 130.066 1048.72 132.114 1051.42 133.976Z" fill="#C68238"/>
<path d="M1176.37 136.211C1176.65 139.097 1174.88 142.169 1170.88 145.056L1170.32 130.345C1174.04 127.645 1175.9 124.758 1175.81 121.872L1176.37 136.211Z" fill="#C68238"/>
<path d="M1109.33 143.287C1110.17 143.287 1111.1 143.287 1112.03 143.194C1113.77 143.132 1115.45 143.07 1117.06 143.007C1123.14 142.635 1128.73 142.107 1133.82 141.425C1140.06 140.587 1145.64 139.562 1150.49 138.352L1151.04 153.063C1141.08 155.577 1128.33 157.346 1112.59 157.905C1100.58 158.37 1090.15 158.091 1081.4 157.16L1080.84 142.449C1086.8 143.101 1093.6 143.473 1101.23 143.473C1103.78 143.473 1106.48 143.411 1109.33 143.287Z" fill="#EFB970"/>
<path d="M1170.32 130.345L1170.88 145.056C1166.69 148.036 1160.08 150.829 1151.04 153.063L1150.49 138.352C1159.42 136.118 1166.13 133.325 1170.32 130.345Z" fill="#DDA058"/>
<path d="M1067.53 140.401C1071.38 141.27 1075.81 141.952 1080.84 142.449L1081.4 157.16C1069.76 155.95 1061.01 153.622 1055.33 150.736L1054.77 136.118C1058.03 137.701 1062.31 139.19 1067.53 140.401Z" fill="#DDA058"/>
<path d="M1097.51 113.306L1097.79 120.01L1095.18 120.103L1097.51 113.306Z" fill="#DDA058"/>
<path d="M1124.04 112.282L1126.93 118.8L1124.32 118.986L1124.04 112.282Z" fill="#EFB970"/>
<path d="M1124.04 112.282L1124.32 118.986L1101.05 119.824L1112.78 112.655L1124.04 112.282Z" fill="#FFD48F"/>
<path d="M1112.78 112.655L1101.05 119.824L1097.79 120.01L1097.51 113.307L1112.78 112.655Z" fill="#EFB970"/>
<path d="M1126.28 110.979L1131.4 120.476L1097.88 121.779L1101.05 119.824L1124.32 118.986L1126.93 118.8L1124.04 112.282L1112.78 112.654L1114.83 111.444L1126.28 110.979Z" fill="#FFE0AA"/>
<path d="M1114.83 111.444L1112.78 112.655L1097.51 113.306L1095.18 120.103L1097.79 120.01L1101.05 119.824L1097.88 121.779L1090.9 122.059L1095.09 112.282L1114.83 111.444Z" fill="#FFD48F"/>
<path d="M1173.67 117.124L1167.9 120.662C1168.08 118.427 1166.69 116.286 1163.99 114.33L1166.97 112.468C1167.71 112.748 1168.36 113.12 1169.02 113.492C1170.97 114.61 1172.55 115.82 1173.67 117.124Z" fill="#FFD48F"/>
<path d="M1162.78 110.7L1160.26 112.189C1158.77 111.444 1157.19 110.793 1155.42 110.327L1157.47 109.117C1159.33 109.582 1161.1 110.048 1162.78 110.7Z" fill="#FFD48F"/>
<path d="M1125.63 104.834L1124.32 105.578C1119.76 105.485 1115.11 105.485 1110.45 105.672C1105.61 105.858 1100.67 106.23 1095.83 106.789L1097.6 105.765C1101.89 105.392 1106.26 105.02 1110.45 104.834C1115.48 104.647 1120.54 104.647 1125.63 104.834Z" fill="#FFD48F"/>
<path d="M1145.09 134.535L1133.82 141.425C1128.73 142.107 1123.14 142.635 1117.06 143.007L1125.63 137.793C1133.08 137.049 1139.5 135.931 1145.09 134.535Z" fill="#FFD48F"/>
<path d="M1117.34 138.445L1109.33 143.287C1106.48 143.411 1103.78 143.473 1101.23 143.473L1108.68 138.818C1109.71 138.818 1110.73 138.818 1111.85 138.725C1113.71 138.632 1115.48 138.632 1117.34 138.445Z" fill="#FFD48F"/>
<path d="M1073.86 136.49L1067.53 140.401C1062.31 139.19 1058.03 137.7 1054.77 136.118C1053.53 135.435 1052.41 134.721 1051.42 133.976L1057.66 130.159C1060.92 132.673 1066.32 134.907 1073.86 136.49Z" fill="#FFD48F"/>
<path d="M1163.99 114.331C1166.69 116.286 1168.08 118.427 1167.9 120.662L1145.09 134.535C1139.5 135.932 1133.08 137.049 1125.63 137.794L1163.99 114.331Z" fill="#DDA058"/>
<path d="M1160.26 112.189L1117.34 138.445C1115.48 138.631 1113.71 138.631 1111.85 138.724C1110.73 138.818 1109.7 138.818 1108.68 138.818L1155.42 110.327C1157.19 110.792 1158.77 111.444 1160.26 112.189Z" fill="#DDA058"/>
<path d="M1124.32 105.578L1114.83 111.444L1095.09 112.282L1090.9 122.058L1097.88 121.779L1073.86 136.49C1066.32 134.907 1060.92 132.673 1057.66 130.159L1095.83 106.789C1100.67 106.23 1105.61 105.858 1110.45 105.671C1115.11 105.485 1119.76 105.485 1124.32 105.578Z" fill="#DDA058"/>
<path d="M1145.08 134.535L1167.9 120.662C1167.71 125.783 1159.89 130.997 1145.08 134.535Z" fill="#EFB970"/>
<path d="M1163.15 113.679C1163.43 113.865 1163.71 114.051 1163.99 114.33L1125.63 137.794C1122.93 138.073 1120.23 138.259 1117.34 138.445L1160.26 112.189C1161.29 112.655 1162.31 113.213 1163.15 113.679Z" fill="#EFB970"/>
<path d="M1155.42 110.327L1108.68 138.818C1094.34 139.284 1082.7 138.259 1073.86 136.49L1097.88 121.779L1131.4 120.476L1126.28 110.979L1114.83 111.444L1124.32 105.579C1136.05 106.044 1147.32 107.627 1155.42 110.327Z" fill="#EFB970"/>
<path d="M1095.83 106.789L1057.66 130.159C1053 126.434 1053.19 122.058 1058.59 117.868C1065.48 112.654 1080 108.744 1095.83 106.789Z" fill="#EFB970"/>
<path d="M1157.47 109.116L1155.42 110.327C1147.32 107.627 1136.05 106.044 1124.32 105.578L1125.62 104.833C1137.26 105.206 1148.53 106.696 1157.47 109.116Z" fill="#FFE0AA"/>
<path d="M1166.97 112.468L1163.99 114.33C1163.71 114.051 1163.43 113.865 1163.15 113.679C1162.31 113.213 1161.29 112.654 1160.26 112.189L1162.78 110.699C1164.33 111.258 1165.73 111.848 1166.97 112.468Z" fill="#FFE0AA"/>
<path d="M1170.32 130.345C1166.13 133.324 1159.42 136.117 1150.49 138.352C1145.65 139.562 1140.06 140.587 1133.82 141.425L1145.09 134.535C1159.89 130.997 1167.71 125.783 1167.9 120.662L1173.67 117.124C1175.07 118.613 1175.72 120.289 1175.81 121.872C1175.9 124.758 1174.04 127.645 1170.32 130.345Z" fill="#FFE0AA"/>
<path d="M1125.63 137.793L1117.06 143.007C1115.45 143.07 1113.77 143.132 1112.03 143.194C1111.1 143.287 1110.17 143.287 1109.33 143.287L1117.34 138.445C1120.23 138.259 1122.93 138.073 1125.63 137.793Z" fill="#FFE0AA"/>
<path d="M1080.84 142.449C1075.81 141.953 1071.38 141.27 1067.53 140.401L1073.86 136.49C1082.7 138.259 1094.34 139.283 1108.68 138.818L1101.23 143.473C1093.6 143.473 1086.8 143.101 1080.84 142.449Z" fill="#FFE0AA"/>
<path d="M1097.6 105.765L1095.83 106.789C1080 108.744 1065.48 112.655 1058.59 117.869C1053.19 122.058 1053 126.435 1057.66 130.159L1051.42 133.976C1048.72 132.114 1047.14 130.066 1046.76 127.831V127.459C1046.39 124.386 1048.35 121.127 1052.82 118.148C1061.57 112.096 1079.26 107.72 1097.6 105.765Z" fill="#FFE0AA"/>
<path d="M311.117 130.158C312.11 130.903 313.258 131.617 314.562 132.3L315.121 146.918C309.627 144.218 306.927 140.866 307.02 137.514L306.555 124.106C306.927 126.248 308.51 128.296 311.117 130.158Z" fill="#C68238"/>
<path d="M436.16 132.393C436.439 135.279 434.577 138.352 430.666 141.238L430.015 126.527C433.832 123.827 435.694 120.941 435.508 118.054L436.16 132.393Z" fill="#C68238"/>
<path d="M369.122 139.469C369.96 139.469 370.891 139.469 371.729 139.376C373.467 139.314 375.174 139.252 376.85 139.19C382.871 138.817 388.426 138.29 393.516 137.607H393.609C399.847 136.769 405.434 135.745 410.275 134.534L410.834 149.245C400.872 151.759 388.023 153.528 372.381 154.087C360.37 154.552 349.942 154.273 341.189 153.342L340.631 138.631C346.59 139.283 353.387 139.655 360.928 139.655C363.535 139.655 366.266 139.593 369.122 139.469Z" fill="#EFB970"/>
<path d="M430.014 126.527L430.666 141.238C426.476 144.218 419.772 147.011 410.834 149.246L410.275 134.535C419.214 132.3 425.824 129.507 430.014 126.527Z" fill="#DDA058"/>
<path d="M327.316 136.583C331.165 137.452 335.603 138.135 340.631 138.631L341.189 153.342C329.551 152.132 320.799 149.804 315.119 146.918L314.561 132.3C317.819 133.883 322.102 135.372 327.316 136.583Z" fill="#DDA058"/>
<path d="M357.299 109.488L357.578 116.192L354.878 116.285L357.299 109.488Z" fill="#DDA058"/>
<path d="M383.833 108.464L386.719 114.982L384.112 115.168L383.833 108.464Z" fill="#EFB970"/>
<path d="M383.835 108.464L384.114 115.168L360.837 116.099L372.568 108.837L383.835 108.464Z" fill="#FFD48F"/>
<path d="M372.567 108.837L360.836 116.099L357.577 116.192L357.298 109.489L372.567 108.837Z" fill="#EFB970"/>
<path d="M386.068 107.161L391.096 116.658L357.67 117.961L360.836 116.099L384.113 115.168L386.72 114.982L383.833 108.464L372.567 108.837L374.522 107.626L386.068 107.161Z" fill="#FFE0AA"/>
<path d="M374.522 107.626L372.567 108.837L357.297 109.489L354.876 116.286L357.577 116.192L360.835 116.099L357.67 117.961L350.687 118.241L354.876 108.464L374.522 107.626Z" fill="#FFD48F"/>
<path d="M433.461 113.306L427.688 116.844C427.874 114.609 426.478 112.468 423.685 110.513L426.757 108.65C427.502 108.93 428.154 109.302 428.712 109.675C430.761 110.792 432.344 112.002 433.461 113.306Z" fill="#FFD48F"/>
<path d="M422.473 106.882L420.053 108.371C418.563 107.627 416.98 106.975 415.211 106.509L417.259 105.299C419.121 105.764 420.891 106.23 422.473 106.882Z" fill="#FFD48F"/>
<path d="M385.417 101.016L384.114 101.76C379.552 101.667 374.803 101.667 370.241 101.854C365.399 102.04 360.465 102.412 355.623 102.971L357.392 101.947C361.675 101.574 365.958 101.202 370.241 101.016C375.269 100.829 380.328 100.829 385.417 101.016Z" fill="#FFD48F"/>
<path d="M404.782 130.81L393.609 137.607H393.516C388.426 138.29 382.871 138.817 376.85 139.19L385.322 133.976C392.771 133.231 399.289 132.114 404.782 130.81Z" fill="#FFD48F"/>
<path d="M377.036 134.627L369.122 139.469C366.267 139.593 363.536 139.655 360.929 139.655L368.47 135C369.495 135 370.519 135 371.543 134.907C373.498 134.907 375.267 134.814 377.036 134.627Z" fill="#FFD48F"/>
<path d="M333.649 132.672L327.318 136.583C322.104 135.372 317.821 133.883 314.562 132.3C313.259 131.617 312.11 130.903 311.117 130.158L317.448 126.341C320.614 128.855 326.108 131.089 333.649 132.672Z" fill="#FFD48F"/>
<path d="M423.682 110.513C426.475 112.468 427.871 114.609 427.685 116.844L404.781 130.81C399.287 132.114 392.77 133.231 385.321 133.976L423.682 110.513Z" fill="#DDA058"/>
<path d="M420.051 108.371L377.036 134.628C375.267 134.814 373.498 134.907 371.542 134.907C370.518 135 369.494 135 368.47 135L415.21 106.509C416.979 106.975 418.562 107.627 420.051 108.371Z" fill="#DDA058"/>
<path d="M384.113 101.76L374.523 107.626L354.878 108.464L350.688 118.24L357.671 117.961L333.649 132.672C326.107 131.089 320.614 128.855 317.448 126.341L355.622 102.971C360.464 102.412 365.399 102.04 370.24 101.854C374.803 101.667 379.551 101.667 384.113 101.76Z" fill="#DDA058"/>
<path d="M404.782 130.81L427.687 116.844C427.5 121.965 419.679 127.272 404.782 130.81Z" fill="#EFB970"/>
<path d="M422.939 109.954C423.219 110.14 423.498 110.233 423.684 110.513L385.324 133.976C382.717 134.255 379.923 134.441 377.037 134.627L420.053 108.371C421.077 108.837 422.101 109.395 422.939 109.954Z" fill="#EFB970"/>
<path d="M415.211 106.509L368.471 135C354.132 135.466 342.494 134.442 333.648 132.672L357.67 117.961L391.096 116.658L386.068 107.161L374.523 107.627L384.113 101.761C395.844 102.226 407.11 103.809 415.211 106.509Z" fill="#EFB970"/>
<path d="M355.622 102.971L317.448 126.341C312.792 122.616 312.979 118.24 318.379 114.051C325.176 108.837 339.794 104.926 355.622 102.971Z" fill="#EFB970"/>
<path d="M417.26 105.299L415.211 106.509C407.111 103.809 395.845 102.226 384.113 101.76L385.417 101.016C396.962 101.481 408.321 102.878 417.26 105.299Z" fill="#FFE0AA"/>
<path d="M426.756 108.65L423.684 110.513C423.498 110.233 423.218 110.14 422.939 109.954C422.101 109.395 421.077 108.837 420.053 108.371L422.474 106.881C424.087 107.44 425.515 108.03 426.756 108.65Z" fill="#FFE0AA"/>
<path d="M430.015 126.527C425.826 129.506 419.215 132.3 410.277 134.534C405.435 135.745 399.849 136.769 393.61 137.607L404.783 130.81C419.68 127.272 427.501 121.965 427.688 116.844L433.46 113.306C434.764 114.888 435.509 116.471 435.509 118.054C435.695 120.94 433.833 123.827 430.015 126.527Z" fill="#FFE0AA"/>
<path d="M385.323 133.976L376.85 139.19C375.174 139.252 373.467 139.314 371.729 139.376C370.891 139.469 369.96 139.469 369.122 139.469L377.036 134.627C379.923 134.441 382.716 134.255 385.323 133.976Z" fill="#FFE0AA"/>
<path d="M340.632 138.631C335.604 138.135 331.166 137.452 327.317 136.583L333.649 132.672C342.494 134.441 354.132 135.466 368.471 135L360.929 139.655C353.387 139.655 346.591 139.283 340.632 138.631Z" fill="#FFE0AA"/>
<path d="M357.391 101.947L355.622 102.971C339.793 104.926 325.176 108.837 318.379 114.051C312.979 118.241 312.792 122.617 317.448 126.341L311.116 130.158C308.509 128.296 306.927 126.248 306.554 124.106L306.461 123.641C306.089 120.568 308.137 117.31 312.513 114.33C321.358 108.278 339.049 103.902 357.391 101.947Z" fill="#FFE0AA"/>
<path d="M543.984 140.308C545.66 141.053 547.522 141.611 549.663 142.077L555.902 162.747C547.056 160.885 541.936 157.16 540.818 152.319L535.139 133.325C536.535 136.211 539.515 138.725 543.984 140.308Z" fill="#C68238"/>
<path d="M723.029 97.0126C724.519 101.109 723.122 106.137 718.467 111.724L712.136 90.9607C716.605 85.7466 718.095 80.905 716.884 76.9014L723.029 97.0126Z" fill="#C68238"/>
<path d="M630.109 132.021C631.319 131.742 632.53 131.37 633.833 130.997C636.254 130.252 638.675 129.507 641.002 128.762C649.506 126.031 657.265 123.238 664.279 120.383H664.372C672.938 116.845 680.48 113.307 686.905 109.769L693.236 130.532C679.921 137.701 662.324 145.056 640.165 151.76C623.219 156.881 608.229 160.326 595.38 162.188L589.142 141.425C597.801 140.122 607.67 138.073 618.564 135.373C622.195 134.349 626.105 133.325 630.109 132.021Z" fill="#EFB970"/>
<path d="M712.136 90.9609L718.468 111.724C713.626 117.59 705.153 124.014 693.236 130.532L686.904 109.769C698.915 103.251 707.295 96.8267 712.136 90.9609Z" fill="#DDA058"/>
<path d="M569.402 143.474C575.268 143.194 581.785 142.543 589.141 141.425L595.379 162.188C578.34 164.795 565.026 164.795 555.901 162.747L549.663 142.077C554.877 143.101 561.488 143.66 569.402 143.474Z" fill="#DDA058"/>
<path d="M602.083 93.6611L604.969 103.158L601.245 104.275L602.083 93.6611Z" fill="#DDA058"/>
<path d="M639.514 82.3018L646.124 90.6814L642.4 91.7987L639.514 82.3018Z" fill="#EFB970"/>
<path d="M639.512 82.3018L642.398 91.7987L609.531 101.761L623.59 87.1433L639.512 82.3018Z" fill="#FFD48F"/>
<path d="M623.592 87.1436L609.533 101.761L604.97 103.158L602.084 93.6611L623.592 87.1436Z" fill="#EFB970"/>
<path d="M642.306 79.6948L653.013 91.3333L605.808 105.672L609.532 101.761L642.399 91.7988L646.123 90.6816L639.513 82.3019L623.591 87.1434L626.012 84.6296L642.306 79.6948Z" fill="#FFE0AA"/>
<path d="M626.013 84.6294L623.592 87.1433L602.084 93.6608L601.246 104.275L604.97 103.158L609.533 101.761L605.808 105.672L595.846 108.651L598.266 93.1022L626.013 84.6294Z" fill="#FFD48F"/>
<path d="M712.044 70.8495L705.154 78.0188C704.595 74.8531 701.895 72.2462 697.146 70.4771L700.871 66.6597C701.988 66.8459 703.012 67.1253 704.036 67.4046C707.388 68.3357 709.995 69.4529 712.044 70.8495Z" fill="#FFD48F"/>
<path d="M694.167 65.7285L691.094 68.8011C688.86 68.3356 686.253 68.0562 683.553 67.9631L685.974 65.4492C688.86 65.4492 691.56 65.5423 694.167 65.7285Z" fill="#FFD48F"/>
<path d="M639.046 71.2222L637.463 72.805C630.853 74.2947 624.242 75.9707 617.725 77.9259C610.928 80.0674 603.945 82.3951 597.334 85.0021L599.382 82.9537C605.341 80.7191 611.393 78.6708 617.445 76.9017C624.521 74.7602 631.691 72.805 639.046 71.2222Z" fill="#FFD48F"/>
<path d="M677.78 106.417L664.373 120.383H664.28C657.266 123.238 649.507 126.031 641.003 128.762L651.152 118.148C661.58 114.331 670.425 110.42 677.78 106.417Z" fill="#FFD48F"/>
<path d="M639.607 122.152L630.11 132.021C626.106 133.325 622.196 134.349 618.564 135.373L627.596 125.969C628.992 125.597 630.389 125.131 631.972 124.666C634.579 123.828 637.186 123.083 639.607 122.152Z" fill="#FFD48F"/>
<path d="M576.944 135.466L569.402 143.474C561.488 143.66 554.877 143.101 549.663 142.077C547.521 141.611 545.659 141.053 543.983 140.308L551.525 132.487C557.018 134.908 565.584 136.025 576.944 135.466Z" fill="#FFD48F"/>
<path d="M697.147 70.4771C701.895 72.2461 704.595 74.8531 705.154 78.0187L677.78 106.417C670.425 110.42 661.579 114.331 651.151 118.148L697.147 70.4771Z" fill="#DDA058"/>
<path d="M691.094 68.8014L639.606 122.152C637.185 123.083 634.578 123.828 631.971 124.666C630.388 125.131 628.991 125.597 627.595 125.969L683.552 67.9634C686.253 68.0565 688.86 68.3358 691.094 68.8014Z" fill="#DDA058"/>
<path d="M637.464 72.8047L626.011 84.6294L598.265 93.1021L595.845 108.651L605.807 105.672L576.944 135.466C565.585 136.025 557.019 134.907 551.525 132.487L597.334 85.0018C603.945 82.3947 610.928 80.0671 617.725 77.9256C624.242 75.9703 630.853 74.2944 637.464 72.8047Z" fill="#DDA058"/>
<path d="M677.781 106.416L705.155 78.0186C706.831 85.3741 697.613 95.8021 677.781 106.416Z" fill="#EFB970"/>
<path d="M695.843 69.9185C696.309 70.1047 696.775 70.291 697.147 70.4772L651.152 118.148C647.521 119.545 643.703 120.848 639.606 122.152L691.095 68.8013C692.864 69.0806 694.447 69.453 695.843 69.9185Z" fill="#EFB970"/>
<path d="M683.553 67.9631L627.595 125.969C607.204 131.835 590.259 134.814 576.944 135.466L605.808 105.672L653.013 91.3331L642.306 79.6947L626.012 84.6294L637.464 72.8048C654.41 69.0804 671.076 67.1252 683.553 67.9631Z" fill="#EFB970"/>
<path d="M597.335 85.002L551.526 132.487C543.519 128.949 542.122 122.617 548.267 114.703C556.181 104.741 575.454 93.661 597.335 85.002Z" fill="#EFB970"/>
<path d="M685.973 65.4493L683.552 67.9632C671.076 67.1252 654.409 69.0805 637.464 72.8048L639.047 71.222C655.713 67.4977 672.472 65.2631 685.973 65.4493Z" fill="#FFE0AA"/>
<path d="M700.87 66.6596L697.146 70.477C696.773 70.2908 696.308 70.1046 695.842 69.9184C694.446 69.4528 692.863 69.0804 691.094 68.8011L694.166 65.7285C696.587 66.0078 698.822 66.2872 700.87 66.6596Z" fill="#FFE0AA"/>
<path d="M712.137 90.9609C707.296 96.8267 698.916 103.251 686.905 109.769C680.481 113.307 672.939 116.845 664.373 120.383L677.781 106.417C697.612 95.8025 706.83 85.3744 705.154 78.0189L712.044 70.8496C714.558 72.5255 716.234 74.5739 716.886 76.9016C718.096 80.9052 716.606 85.7469 712.137 90.9609Z" fill="#FFE0AA"/>
<path d="M651.15 118.148L641.001 128.763C638.673 129.508 636.253 130.252 633.832 130.997C632.528 131.37 631.318 131.742 630.107 132.021L639.604 122.152C643.701 120.849 647.519 119.545 651.15 118.148Z" fill="#FFE0AA"/>
<path d="M589.141 141.425C581.786 142.542 575.268 143.194 569.402 143.473L576.944 135.466C590.165 134.814 607.204 131.835 627.595 125.969L618.563 135.373C607.67 138.073 597.8 140.122 589.141 141.425Z" fill="#FFE0AA"/>
<path d="M599.383 82.9536L597.335 85.002C575.454 93.661 556.181 104.741 548.267 114.703C542.122 122.617 543.519 128.949 551.526 132.487L543.984 140.308C539.515 138.725 536.536 136.211 535.139 133.325L534.953 132.673C533.277 128.483 534.86 123.176 540.074 117.217C550.409 105.299 574.058 92.4506 599.383 82.9536Z" fill="#FFE0AA"/>
<path d="M951.421 149.339C952.601 149.835 953.873 150.27 955.239 150.642L959.056 164.794C953.097 163.398 949.746 160.698 949.094 157.439L945.556 144.404C946.487 146.452 948.442 148.128 951.421 149.339Z" fill="#C68238"/>
<path d="M1073.77 123.641C1074.7 126.434 1073.67 129.786 1070.41 133.51L1066.5 119.265C1069.67 115.82 1070.79 112.561 1070.04 109.861L1073.77 123.641Z" fill="#C68238"/>
<path d="M1009.99 145.521C1010.92 145.335 1011.76 145.055 1012.59 144.869C1014.27 144.435 1015.88 143.969 1017.44 143.472C1023.33 141.797 1028.67 140.059 1033.45 138.258C1039.41 136.024 1044.62 133.789 1049 131.555L1052.91 145.707C1043.69 150.362 1031.59 154.925 1016.41 159.021C1004.87 162.187 994.625 164.235 985.873 165.26L982.056 151.014C988.015 150.269 994.718 149.152 1002.07 147.476C1004.62 146.917 1007.26 146.266 1009.99 145.521Z" fill="#EFB970"/>
<path d="M1066.5 119.265L1070.41 133.51C1066.97 137.328 1061.1 141.517 1052.91 145.707L1049 131.555C1057.29 127.365 1063.15 123.175 1066.5 119.265Z" fill="#DDA058"/>
<path d="M968.555 151.946C972.589 151.946 977.09 151.635 982.055 151.015L985.873 165.26C974.234 166.657 965.296 166.377 959.058 164.794L955.24 150.642C958.778 151.48 963.248 151.946 968.555 151.946Z" fill="#DDA058"/>
<path d="M991.832 118.892L993.601 125.41L990.994 126.061L991.832 118.892Z" fill="#DDA058"/>
<path d="M1017.44 111.909L1021.72 117.775L1019.21 118.427L1017.44 111.909Z" fill="#EFB970"/>
<path d="M1017.44 111.909L1019.2 118.427L996.673 124.479L1006.54 114.889L1017.44 111.909Z" fill="#FFD48F"/>
<path d="M1006.54 114.889L996.674 124.479L993.601 125.41L991.832 118.892L1006.54 114.889Z" fill="#EFB970"/>
<path d="M1019.39 110.233L1026.37 118.334L994.066 127.086L996.673 124.479L1019.21 118.427L1021.72 117.775L1017.44 111.909L1006.54 114.889L1008.22 113.213L1019.39 110.233Z" fill="#FFE0AA"/>
<path d="M1008.22 113.213L1006.54 114.889L991.832 118.892L990.994 126.062L993.601 125.41L996.673 124.479L994.066 127.086L987.27 128.948L989.225 118.427L1008.22 113.213Z" fill="#FFD48F"/>
<path d="M1066.88 105.671L1062.04 110.327C1061.76 108.185 1059.99 106.416 1056.82 105.113L1059.34 102.599C1060.08 102.785 1060.83 102.971 1061.57 103.157C1063.71 103.809 1065.57 104.647 1066.88 105.671Z" fill="#FFD48F"/>
<path d="M1054.77 101.854L1052.73 103.809C1051.14 103.437 1049.47 103.157 1047.6 103.064L1049.28 101.388C1051.24 101.481 1053.1 101.574 1054.77 101.854Z" fill="#FFD48F"/>
<path d="M1017.34 104.368L1016.23 105.392C1011.76 106.323 1007.2 107.347 1002.73 108.558C998.072 109.768 993.323 111.258 988.761 112.934L990.25 111.537C994.347 110.14 998.444 108.93 1002.54 107.813C1007.38 106.509 1012.32 105.361 1017.34 104.368Z" fill="#FFD48F"/>
<path d="M1042.86 129.041L1033.45 138.259C1028.67 140.059 1023.34 141.797 1017.44 143.473L1024.61 136.49C1031.78 134.162 1037.83 131.648 1042.86 129.041Z" fill="#FFD48F"/>
<path d="M1016.69 139.003L1009.99 145.521C1007.26 146.266 1004.62 146.918 1002.07 147.476L1008.41 141.238C1009.43 141.052 1010.36 140.772 1011.38 140.493C1013.25 140.028 1015.02 139.562 1016.69 139.003Z" fill="#FFD48F"/>
<path d="M973.955 146.732L968.555 151.946C963.248 151.946 958.778 151.48 955.24 150.642C953.875 150.27 952.602 149.835 951.423 149.339L956.73 144.218C960.454 145.987 966.227 146.825 973.955 146.732Z" fill="#FFD48F"/>
<path d="M1056.82 105.112C1059.99 106.416 1061.76 108.185 1062.03 110.326L1042.85 129.041C1037.83 131.648 1031.77 134.162 1024.61 136.49L1056.82 105.112Z" fill="#DDA058"/>
<path d="M1052.72 103.809L1016.69 139.003C1015.01 139.562 1013.24 140.028 1011.38 140.493C1010.36 140.773 1009.43 141.052 1008.4 141.238L1047.6 103.064C1049.46 103.157 1051.14 103.436 1052.72 103.809Z" fill="#DDA058"/>
<path d="M1016.23 105.392L1008.22 113.213L989.225 118.427L987.27 128.948L994.067 127.086L973.955 146.731C966.227 146.824 960.455 145.987 956.73 144.217L988.76 112.933C993.322 111.257 998.07 109.768 1002.73 108.557C1007.19 107.347 1011.76 106.323 1016.23 105.392Z" fill="#DDA058"/>
<path d="M1042.85 129.041L1062.03 110.326C1063.06 115.354 1056.54 122.337 1042.85 129.041Z" fill="#EFB970"/>
<path d="M1055.89 104.647C1056.26 104.833 1056.54 104.926 1056.82 105.112L1024.61 136.489C1022.09 137.327 1019.49 138.165 1016.69 139.003L1052.73 103.809C1053.84 103.995 1054.96 104.367 1055.89 104.647Z" fill="#EFB970"/>
<path d="M1047.6 103.064L1008.4 141.238C994.532 144.87 982.893 146.545 973.955 146.732L994.066 127.086L1026.37 118.334L1019.39 110.233L1008.22 113.213L1016.23 105.392C1027.77 103.25 1039.13 102.319 1047.6 103.064Z" fill="#EFB970"/>
<path d="M988.759 112.934L956.73 144.218C951.33 141.611 950.492 137.235 954.868 132.021C960.455 125.41 973.769 118.334 988.759 112.934Z" fill="#EFB970"/>
<path d="M1049.28 101.388L1047.6 103.064C1039.13 102.319 1027.77 103.25 1016.23 105.392L1017.34 104.368C1028.7 102.226 1040.16 101.016 1049.28 101.388Z" fill="#FFE0AA"/>
<path d="M1059.34 102.598L1056.82 105.112C1056.54 104.926 1056.26 104.833 1055.89 104.647C1054.96 104.367 1053.84 103.995 1052.72 103.809L1054.77 101.854C1056.45 102.04 1057.97 102.288 1059.34 102.598Z" fill="#FFE0AA"/>
<path d="M1066.5 119.265C1063.15 123.175 1057.29 127.365 1049 131.555C1044.62 133.789 1039.41 136.024 1033.45 138.259L1042.85 129.041C1056.54 122.337 1063.06 115.354 1062.03 110.326L1066.88 105.671C1068.55 106.881 1069.58 108.278 1070.04 109.861C1070.79 112.561 1069.67 115.82 1066.5 119.265Z" fill="#FFE0AA"/>
<path d="M1024.61 136.49L1017.44 143.473C1015.88 143.969 1014.27 144.435 1012.59 144.869C1011.76 145.056 1010.92 145.335 1009.99 145.521L1016.69 139.004C1019.48 138.166 1022.09 137.328 1024.61 136.49Z" fill="#FFE0AA"/>
<path d="M982.057 151.015C977.092 151.635 972.591 151.946 968.557 151.946L973.957 146.732C982.895 146.545 994.534 144.869 1008.41 141.238L1002.08 147.477C994.72 149.152 988.016 150.27 982.057 151.015Z" fill="#FFE0AA"/>
<path d="M990.249 111.537L988.759 112.933C973.769 118.333 960.454 125.41 954.868 132.02C950.492 137.234 951.33 141.61 956.73 144.217L951.423 149.338C948.444 148.128 946.488 146.452 945.557 144.404L945.464 144.031C944.44 141.052 945.65 137.514 949.282 133.603C956.451 125.689 972.838 117.496 990.249 111.537Z" fill="#FFE0AA"/>
</svg>
